M48
; DRILL file {KiCad (6.0.7)} date Mon Nov 21 13:24:07 2022
; FORMAT={-:-/ absolute / metric / decimal}
; #@! TF.CreationDate,2022-11-21T13:24:07-08:00
; #@! TF.GenerationSoftware,Kicad,Pcbnew,(6.0.7)
; #@! TF.FileFunction,MixedPlating,1,4
FMAT,2
METRIC
; #@! TA.AperFunction,Plated,PTH,ComponentDrill
T1C0.203
; #@! TA.AperFunction,Plated,PTH,ViaDrill
T2C0.330
; #@! TA.AperFunction,Plated,PTH,ViaDrill
T3C0.381
; #@! TA.AperFunction,Plated,PTH,ComponentDrill
T4C0.650
; #@! TA.AperFunction,Plated,PTH,ComponentDrill
T5C0.750
; #@! TA.AperFunction,Plated,PTH,ComponentDrill
T6C0.800
; #@! TA.AperFunction,Plated,PTH,ComponentDrill
T7C0.990
; #@! TA.AperFunction,Plated,PTH,ComponentDrill
T8C1.300
; #@! TA.AperFunction,Plated,PTH,ComponentDrill
T9C1.520
; #@! TA.AperFunction,NonPlated,NPTH,ComponentDrill
T10C0.700
; #@! TA.AperFunction,NonPlated,NPTH,ComponentDrill
T11C3.200
%
G90
G05
T1
X143.504Y-90.6
X144.254Y-88.85
X144.254Y-92.35
X145.004Y-90.6
T2
X133.0Y-67.6
X133.0Y-69.6
X135.0Y-103.4
X135.9Y-117.05
X137.4Y-113.0
X137.8Y-87.0
X137.8Y-94.0
X138.2Y-94.8
X139.0Y-113.0
X139.05Y-98.8
X140.6Y-112.6
X141.15Y-103.15
X142.2Y-93.6
X142.2Y-99.4
X142.2Y-100.2
X142.2Y-101.0
X142.6Y-97.8
X143.0Y-99.4
X143.0Y-100.2
X143.0Y-101.0
X143.2Y-114.0
X143.4Y-57.8
X143.4Y-107.0
X143.6Y-117.05
X144.4Y-97.8
X144.75Y-62.5
X145.6Y-124.8
X145.8Y-87.2
X145.8Y-93.8
X145.8Y-121.2
X146.25Y-62.5
X146.4Y-87.8
X147.7Y-109.8
X148.6Y-109.0
X148.7Y-66.5
X148.7Y-70.5
X149.2Y-95.2
X149.4Y-105.2
X152.2Y-109.0
X152.6Y-108.2
X153.0Y-109.75
X153.8Y-112.2
X154.8Y-112.2
X158.3Y-106.7
X160.6Y-110.2
X161.2Y-106.8
X163.0Y-119.75
X163.1Y-106.8
X163.2Y-110.4
X163.2Y-111.4
X163.2Y-112.4
X163.2Y-113.4
X163.2Y-114.4
X163.2Y-120.8
X163.6Y-124.8
X164.1Y-121.3
X164.8Y-106.8
X165.5Y-120.2
X167.4Y-117.7
X167.75Y-92.0
X169.0Y-113.4
X169.0Y-116.7
X169.5Y-92.0
X169.896Y-81.513
X169.896Y-85.513
X169.896Y-89.513
X170.0Y-77.513
T3
X138.6Y-90.85
X139.6Y-91.6
X140.7Y-88.9
X140.9Y-92.4
X141.3Y-82.5
X143.4Y-110.2
X143.8Y-79.4
X145.6Y-83.4
X146.3Y-79.6
X149.0Y-106.6
X149.6Y-102.8
X149.75Y-123.5
X151.0Y-123.5
X152.25Y-123.5
X153.5Y-123.5
X154.75Y-123.5
X156.0Y-123.5
X157.25Y-123.5
X158.5Y-123.5
X159.75Y-123.5
T5
X139.1Y-64.7
X139.1Y-71.2
X141.1Y-64.7
X141.1Y-71.2
X143.1Y-64.7
X143.1Y-71.2
X145.1Y-64.7
X145.1Y-71.2
X153.9Y-64.7
X153.9Y-71.2
X155.9Y-64.7
X155.9Y-71.2
X157.9Y-64.7
X157.9Y-71.2
X159.9Y-64.7
X159.9Y-71.2
T6
X143.5Y-56.5
X145.5Y-56.5
X147.5Y-56.5
X149.5Y-56.5
X151.5Y-56.5
X153.5Y-56.5
X155.5Y-56.5
T7
X168.037Y-65.225
X168.037Y-69.725
T8
X165.547Y-63.975
X165.547Y-70.985
T9
X132.25Y-82.42
X132.25Y-87.5
X132.25Y-93.5
X132.25Y-98.58
T10
X136.86Y-119.7
X142.64Y-119.7
T11
X131.0Y-57.0
X131.0Y-124.0
X168.0Y-57.0
X168.0Y-124.0
T4
G00X135.43Y-118.62
M15
G01X135.43Y-119.72
M16
G05
G00X135.43Y-123.05
M15
G01X135.43Y-123.65
M16
G05
G00X144.07Y-118.62
M15
G01X144.07Y-119.72
M16
G05
G00X144.07Y-123.05
M15
G01X144.07Y-123.65
M16
G05
T6
G00X156.9Y-99.9
M15
G01X156.9Y-97.3
M16
G05
G00X161.0Y-93.8
M15
G01X158.8Y-93.8
M16
G05
G00X162.7Y-99.7
M15
G01X162.7Y-97.5
M16
G05
T0
M30
