%TF.GenerationSoftware,KiCad,Pcbnew,(6.0.7)*%
%TF.CreationDate,2022-11-21T13:24:11-08:00*%
%TF.ProjectId,WaterTopper,57617465-7254-46f7-9070-65722e6b6963,rev?*%
%TF.SameCoordinates,Original*%
%TF.FileFunction,Copper,L3,Inr*%
%TF.FilePolarity,Positive*%
%FSLAX46Y46*%
G04 Gerber Fmt 4.6, Leading zero omitted, Abs format (unit mm)*
G04 Created by KiCad (PCBNEW (6.0.7)) date 2022-11-21 13:24:11*
%MOMM*%
%LPD*%
G01*
G04 APERTURE LIST*
G04 Aperture macros list*
%AMRoundRect*
0 Rectangle with rounded corners*
0 $1 Rounding radius*
0 $2 $3 $4 $5 $6 $7 $8 $9 X,Y pos of 4 corners*
0 Add a 4 corners polygon primitive as box body*
4,1,4,$2,$3,$4,$5,$6,$7,$8,$9,$2,$3,0*
0 Add four circle primitives for the rounded corners*
1,1,$1+$1,$2,$3*
1,1,$1+$1,$4,$5*
1,1,$1+$1,$6,$7*
1,1,$1+$1,$8,$9*
0 Add four rect primitives between the rounded corners*
20,1,$1+$1,$2,$3,$4,$5,0*
20,1,$1+$1,$4,$5,$6,$7,0*
20,1,$1+$1,$6,$7,$8,$9,0*
20,1,$1+$1,$8,$9,$2,$3,0*%
G04 Aperture macros list end*
%TA.AperFunction,ComponentPad*%
%ADD10R,1.350000X1.350000*%
%TD*%
%TA.AperFunction,ComponentPad*%
%ADD11O,1.350000X1.350000*%
%TD*%
%TA.AperFunction,ComponentPad*%
%ADD12C,2.100000*%
%TD*%
%TA.AperFunction,ComponentPad*%
%ADD13C,1.750000*%
%TD*%
%TA.AperFunction,ComponentPad*%
%ADD14R,1.800000X4.400000*%
%TD*%
%TA.AperFunction,ComponentPad*%
%ADD15O,1.800000X4.000000*%
%TD*%
%TA.AperFunction,ComponentPad*%
%ADD16O,4.000000X1.800000*%
%TD*%
%TA.AperFunction,ComponentPad*%
%ADD17O,1.050000X2.100000*%
%TD*%
%TA.AperFunction,ComponentPad*%
%ADD18R,3.000000X3.000000*%
%TD*%
%TA.AperFunction,ComponentPad*%
%ADD19C,3.000000*%
%TD*%
%TA.AperFunction,ComponentPad*%
%ADD20C,0.499999*%
%TD*%
%TA.AperFunction,ComponentPad*%
%ADD21RoundRect,0.250000X0.350000X0.625000X-0.350000X0.625000X-0.350000X-0.625000X0.350000X-0.625000X0*%
%TD*%
%TA.AperFunction,ComponentPad*%
%ADD22O,1.200000X1.750000*%
%TD*%
%TA.AperFunction,ViaPad*%
%ADD23C,0.685800*%
%TD*%
%TA.AperFunction,ViaPad*%
%ADD24C,0.889000*%
%TD*%
G04 APERTURE END LIST*
D10*
%TO.N,GND*%
%TO.C,J3*%
X143500000Y-56500000D03*
D11*
%TO.N,Net-(J3-Pad2)*%
X145500000Y-56500000D03*
%TO.N,TFT_SCK*%
X147500000Y-56500000D03*
%TO.N,TFT_SDA*%
X149500000Y-56500000D03*
%TO.N,TFT_RST*%
X151500000Y-56500000D03*
%TO.N,TFT_DC*%
X153500000Y-56500000D03*
%TO.N,TFT_CS*%
X155500000Y-56500000D03*
%TD*%
D12*
%TO.N,*%
%TO.C,SW3*%
X165547500Y-70985000D03*
X165547500Y-63975000D03*
D13*
%TO.N,U_BTN*%
X168037500Y-65225000D03*
%TO.N,GND*%
X168037500Y-69725000D03*
%TD*%
D14*
%TO.N,+12V*%
%TO.C,J2*%
X156900000Y-98600000D03*
D15*
%TO.N,GND*%
X162700000Y-98600000D03*
D16*
X159900000Y-93800000D03*
%TD*%
D17*
%TO.N,GND*%
%TO.C,J1*%
X135430000Y-119170000D03*
X144070000Y-119170000D03*
X135430000Y-123350000D03*
X144070000Y-123350000D03*
%TD*%
D18*
%TO.N,MTR1A*%
%TO.C,J8*%
X132250000Y-82420000D03*
D19*
%TO.N,MTR1B*%
X132250000Y-87500000D03*
%TD*%
D20*
%TO.N,GND*%
%TO.C,U3*%
X145003998Y-90600000D03*
X143503996Y-90600000D03*
X144253997Y-88850001D03*
X144253997Y-92349999D03*
%TD*%
D18*
%TO.N,MTR2B*%
%TO.C,J9*%
X132250000Y-93500000D03*
D19*
%TO.N,MTR2A*%
X132250000Y-98580000D03*
%TD*%
D21*
%TO.N,+12V*%
%TO.C,J7*%
X145100000Y-71200000D03*
D22*
%TO.N,LSENSOR4*%
X143100000Y-71200000D03*
%TO.N,GND*%
X141100000Y-71200000D03*
%TO.N,Net-(J7-Pad4)*%
X139100000Y-71200000D03*
%TD*%
D21*
%TO.N,+12V*%
%TO.C,J4*%
X159900000Y-64700000D03*
D22*
%TO.N,LSENSOR1*%
X157900000Y-64700000D03*
%TO.N,GND*%
X155900000Y-64700000D03*
%TO.N,Net-(J4-Pad4)*%
X153900000Y-64700000D03*
%TD*%
D21*
%TO.N,+12V*%
%TO.C,J5*%
X159900000Y-71200000D03*
D22*
%TO.N,LSENSOR2*%
X157900000Y-71200000D03*
%TO.N,GND*%
X155900000Y-71200000D03*
%TO.N,Net-(J5-Pad4)*%
X153900000Y-71200000D03*
%TD*%
D21*
%TO.N,+12V*%
%TO.C,J6*%
X145100000Y-64700000D03*
D22*
%TO.N,LSENSOR3*%
X143100000Y-64700000D03*
%TO.N,GND*%
X141100000Y-64700000D03*
%TO.N,Net-(J6-Pad4)*%
X139100000Y-64700000D03*
%TD*%
D23*
%TO.N,U_BTN*%
X169500000Y-92000000D03*
X163000000Y-119750000D03*
%TO.N,TFT_SDA*%
X163200000Y-111400000D03*
%TO.N,TFT_SCK*%
X160600000Y-110200000D03*
%TO.N,TFT_RST*%
X163200000Y-112400000D03*
%TO.N,TFT_DC*%
X163200000Y-113400000D03*
%TO.N,TFT_CS*%
X163200000Y-114400000D03*
%TO.N,/MCU_D-*%
X139000000Y-113000000D03*
X154800000Y-112200000D03*
%TO.N,/MCU_D+*%
X140600000Y-112600000D03*
X153800000Y-112200000D03*
D24*
%TO.N,MTR2B*%
X139600000Y-91600000D03*
%TO.N,MTR2A*%
X140900000Y-92400000D03*
%TO.N,MTR1B*%
X138600000Y-90850000D03*
%TO.N,MTR1A*%
X140700353Y-88899647D03*
D23*
%TO.N,MCU_EN*%
X145600000Y-124800000D03*
X158300000Y-106700000D03*
%TO.N,MCU_BOOT*%
X163100000Y-106800000D03*
X163200000Y-120800000D03*
D24*
%TO.N,GND*%
X143400000Y-110200000D03*
D23*
X146400000Y-87800000D03*
X169000000Y-116700000D03*
X145800000Y-93800000D03*
X137400000Y-113000000D03*
X139050000Y-98800000D03*
X167400000Y-117700000D03*
X142600000Y-97800000D03*
X152600000Y-108200000D03*
X137800000Y-94000000D03*
D24*
X143800000Y-79400000D03*
D23*
X143400000Y-57800000D03*
X141150000Y-103150000D03*
X163600000Y-124800000D03*
D24*
X153500000Y-123500000D03*
X151000000Y-123500000D03*
D23*
X147700000Y-109800000D03*
X163200000Y-110400000D03*
X169896400Y-89512500D03*
D24*
X146300000Y-79600000D03*
D23*
X170000000Y-77512500D03*
X152200000Y-109000000D03*
D24*
X149750000Y-123500000D03*
X145600000Y-83400000D03*
D23*
X138200000Y-94800000D03*
D24*
X157250000Y-123500000D03*
X159750000Y-123500000D03*
D23*
X137800000Y-87000000D03*
X135900000Y-117050000D03*
X169896400Y-81512500D03*
D24*
X149600000Y-102800000D03*
D23*
X149400000Y-105200000D03*
X169896400Y-85512500D03*
D24*
X156000000Y-123500000D03*
D23*
X142200000Y-93600000D03*
X164800000Y-106800000D03*
X143200000Y-114000000D03*
D24*
X158500000Y-123500000D03*
D23*
X149200000Y-95200000D03*
X161200000Y-106800000D03*
X135000000Y-103400000D03*
X143600000Y-117050000D03*
X144400000Y-97800000D03*
D24*
X154750000Y-123500000D03*
D23*
X145800000Y-87200000D03*
D24*
X149000000Y-106600000D03*
X152250000Y-123500000D03*
D23*
X169000000Y-113400000D03*
%TO.N,+3V3*%
X142200000Y-100200000D03*
X145800000Y-121200000D03*
X143000000Y-101000000D03*
X148600000Y-109000000D03*
X146250000Y-62500000D03*
X164100000Y-121300000D03*
X133000000Y-69600000D03*
X148700000Y-66500000D03*
X167750000Y-92000000D03*
X143000000Y-99400000D03*
X133000000Y-67600000D03*
X148700000Y-70500000D03*
X142200000Y-101000000D03*
X143000000Y-100200000D03*
X165500000Y-120200000D03*
X142200000Y-99400000D03*
D24*
%TO.N,+12V*%
X141300000Y-82500000D03*
D23*
X143400000Y-107000000D03*
%TO.N,TFT_EN*%
X153000000Y-109750000D03*
X144750000Y-62500000D03*
%TD*%
%TA.AperFunction,Conductor*%
%TO.N,GND*%
G36*
X142287406Y-55528502D02*
G01*
X142333899Y-55582158D01*
X142344003Y-55652432D01*
X142337267Y-55678728D01*
X142326523Y-55707388D01*
X142322895Y-55722649D01*
X142317369Y-55773514D01*
X142317000Y-55780328D01*
X142317000Y-56227885D01*
X142321475Y-56243124D01*
X142322865Y-56244329D01*
X142330548Y-56246000D01*
X143628000Y-56246000D01*
X143696121Y-56266002D01*
X143742614Y-56319658D01*
X143754000Y-56372000D01*
X143754000Y-57664884D01*
X143758475Y-57680123D01*
X143759865Y-57681328D01*
X143767548Y-57682999D01*
X144219669Y-57682999D01*
X144226490Y-57682629D01*
X144277352Y-57677105D01*
X144292604Y-57673479D01*
X144413054Y-57628324D01*
X144428649Y-57619786D01*
X144530724Y-57543285D01*
X144543285Y-57530724D01*
X144594798Y-57461990D01*
X144651657Y-57419475D01*
X144722475Y-57414449D01*
X144765621Y-57432788D01*
X144932863Y-57544536D01*
X144938171Y-57546817D01*
X144938172Y-57546817D01*
X145127409Y-57628119D01*
X145127412Y-57628120D01*
X145132712Y-57630397D01*
X145138342Y-57631671D01*
X145323104Y-57673479D01*
X145344860Y-57678402D01*
X145350631Y-57678629D01*
X145350633Y-57678629D01*
X145419336Y-57681328D01*
X145562205Y-57686941D01*
X145777466Y-57655730D01*
X145782930Y-57653875D01*
X145782935Y-57653874D01*
X145977963Y-57587671D01*
X145977968Y-57587669D01*
X145983435Y-57585813D01*
X146173213Y-57479532D01*
X146340446Y-57340446D01*
X146400252Y-57268537D01*
X146459189Y-57228953D01*
X146530171Y-57227517D01*
X146592913Y-57267258D01*
X146596204Y-57271914D01*
X146600347Y-57275950D01*
X146600348Y-57275951D01*
X146666554Y-57340446D01*
X146752009Y-57423692D01*
X146932863Y-57544536D01*
X146938171Y-57546817D01*
X146938172Y-57546817D01*
X147127409Y-57628119D01*
X147127412Y-57628120D01*
X147132712Y-57630397D01*
X147138342Y-57631671D01*
X147323104Y-57673479D01*
X147344860Y-57678402D01*
X147350631Y-57678629D01*
X147350633Y-57678629D01*
X147419336Y-57681328D01*
X147562205Y-57686941D01*
X147777466Y-57655730D01*
X147782930Y-57653875D01*
X147782935Y-57653874D01*
X147977963Y-57587671D01*
X147977968Y-57587669D01*
X147983435Y-57585813D01*
X148173213Y-57479532D01*
X148340446Y-57340446D01*
X148400252Y-57268537D01*
X148459189Y-57228953D01*
X148530171Y-57227517D01*
X148592913Y-57267258D01*
X148596204Y-57271914D01*
X148600347Y-57275950D01*
X148600348Y-57275951D01*
X148666554Y-57340446D01*
X148752009Y-57423692D01*
X148932863Y-57544536D01*
X148938171Y-57546817D01*
X148938172Y-57546817D01*
X149127409Y-57628119D01*
X149127412Y-57628120D01*
X149132712Y-57630397D01*
X149138342Y-57631671D01*
X149323104Y-57673479D01*
X149344860Y-57678402D01*
X149350631Y-57678629D01*
X149350633Y-57678629D01*
X149419336Y-57681328D01*
X149562205Y-57686941D01*
X149777466Y-57655730D01*
X149782930Y-57653875D01*
X149782935Y-57653874D01*
X149977963Y-57587671D01*
X149977968Y-57587669D01*
X149983435Y-57585813D01*
X150173213Y-57479532D01*
X150340446Y-57340446D01*
X150400252Y-57268537D01*
X150459189Y-57228953D01*
X150530171Y-57227517D01*
X150592913Y-57267258D01*
X150596204Y-57271914D01*
X150600347Y-57275950D01*
X150600348Y-57275951D01*
X150666554Y-57340446D01*
X150752009Y-57423692D01*
X150932863Y-57544536D01*
X150938171Y-57546817D01*
X150938172Y-57546817D01*
X151127409Y-57628119D01*
X151127412Y-57628120D01*
X151132712Y-57630397D01*
X151138342Y-57631671D01*
X151323104Y-57673479D01*
X151344860Y-57678402D01*
X151350631Y-57678629D01*
X151350633Y-57678629D01*
X151419336Y-57681328D01*
X151562205Y-57686941D01*
X151777466Y-57655730D01*
X151782930Y-57653875D01*
X151782935Y-57653874D01*
X151977963Y-57587671D01*
X151977968Y-57587669D01*
X151983435Y-57585813D01*
X152173213Y-57479532D01*
X152340446Y-57340446D01*
X152400252Y-57268537D01*
X152459189Y-57228953D01*
X152530171Y-57227517D01*
X152592913Y-57267258D01*
X152596204Y-57271914D01*
X152600347Y-57275950D01*
X152600348Y-57275951D01*
X152666554Y-57340446D01*
X152752009Y-57423692D01*
X152932863Y-57544536D01*
X152938171Y-57546817D01*
X152938172Y-57546817D01*
X153127409Y-57628119D01*
X153127412Y-57628120D01*
X153132712Y-57630397D01*
X153138342Y-57631671D01*
X153323104Y-57673479D01*
X153344860Y-57678402D01*
X153350631Y-57678629D01*
X153350633Y-57678629D01*
X153419336Y-57681328D01*
X153562205Y-57686941D01*
X153777466Y-57655730D01*
X153782930Y-57653875D01*
X153782935Y-57653874D01*
X153977963Y-57587671D01*
X153977968Y-57587669D01*
X153983435Y-57585813D01*
X154173213Y-57479532D01*
X154340446Y-57340446D01*
X154400252Y-57268537D01*
X154459189Y-57228953D01*
X154530171Y-57227517D01*
X154592913Y-57267258D01*
X154596204Y-57271914D01*
X154600347Y-57275950D01*
X154600348Y-57275951D01*
X154666554Y-57340446D01*
X154752009Y-57423692D01*
X154932863Y-57544536D01*
X154938171Y-57546817D01*
X154938172Y-57546817D01*
X155127409Y-57628119D01*
X155127412Y-57628120D01*
X155132712Y-57630397D01*
X155138342Y-57631671D01*
X155323104Y-57673479D01*
X155344860Y-57678402D01*
X155350631Y-57678629D01*
X155350633Y-57678629D01*
X155419336Y-57681328D01*
X155562205Y-57686941D01*
X155777466Y-57655730D01*
X155782930Y-57653875D01*
X155782935Y-57653874D01*
X155977963Y-57587671D01*
X155977968Y-57587669D01*
X155983435Y-57585813D01*
X156173213Y-57479532D01*
X156340446Y-57340446D01*
X156479532Y-57173213D01*
X156585813Y-56983435D01*
X156587669Y-56977968D01*
X156587671Y-56977963D01*
X156653874Y-56782935D01*
X156653875Y-56782930D01*
X156655730Y-56777466D01*
X156686941Y-56562205D01*
X156688570Y-56500000D01*
X156668667Y-56283400D01*
X156609626Y-56074055D01*
X156513423Y-55878974D01*
X156493772Y-55852658D01*
X156387162Y-55709889D01*
X156362430Y-55643339D01*
X156377605Y-55573983D01*
X156427867Y-55523840D01*
X156488120Y-55508500D01*
X166230060Y-55508500D01*
X166298181Y-55528502D01*
X166344674Y-55582158D01*
X166354778Y-55652432D01*
X166327564Y-55714306D01*
X166280002Y-55772414D01*
X166279997Y-55772421D01*
X166277287Y-55775732D01*
X166127073Y-56020858D01*
X166125347Y-56024791D01*
X166125346Y-56024792D01*
X166029505Y-56243124D01*
X166011517Y-56284102D01*
X166010342Y-56288227D01*
X166010341Y-56288230D01*
X165983955Y-56380860D01*
X165932756Y-56560594D01*
X165892249Y-56845216D01*
X165892227Y-56849505D01*
X165892226Y-56849512D01*
X165890944Y-57094285D01*
X165890743Y-57132703D01*
X165891302Y-57136947D01*
X165891302Y-57136951D01*
X165907810Y-57262340D01*
X165928268Y-57417734D01*
X166004129Y-57695036D01*
X166116923Y-57959476D01*
X166264561Y-58206161D01*
X166444313Y-58430528D01*
X166652851Y-58628423D01*
X166886317Y-58796186D01*
X166890112Y-58798195D01*
X166890113Y-58798196D01*
X166911869Y-58809715D01*
X167140392Y-58930712D01*
X167410373Y-59029511D01*
X167691264Y-59090755D01*
X167719841Y-59093004D01*
X167914282Y-59108307D01*
X167914291Y-59108307D01*
X167916739Y-59108500D01*
X168072271Y-59108500D01*
X168074407Y-59108354D01*
X168074418Y-59108354D01*
X168282548Y-59094165D01*
X168282554Y-59094164D01*
X168286825Y-59093873D01*
X168291020Y-59093004D01*
X168291022Y-59093004D01*
X168427583Y-59064724D01*
X168568342Y-59035574D01*
X168839343Y-58939607D01*
X169094812Y-58807750D01*
X169098313Y-58805289D01*
X169098317Y-58805287D01*
X169212418Y-58725095D01*
X169330023Y-58642441D01*
X169540622Y-58446740D01*
X169722713Y-58224268D01*
X169872927Y-57979142D01*
X169988483Y-57715898D01*
X169994321Y-57695403D01*
X170032220Y-57635369D01*
X170096560Y-57605355D01*
X170166914Y-57614890D01*
X170220944Y-57660947D01*
X170241500Y-57729923D01*
X170241500Y-91239054D01*
X170221498Y-91307175D01*
X170167842Y-91353668D01*
X170097568Y-91363772D01*
X170041439Y-91340990D01*
X170036884Y-91337680D01*
X169951269Y-91275477D01*
X169933387Y-91262485D01*
X169933386Y-91262484D01*
X169928045Y-91258604D01*
X169922017Y-91255920D01*
X169922015Y-91255919D01*
X169770577Y-91188495D01*
X169770576Y-91188495D01*
X169764546Y-91185810D01*
X169677016Y-91167205D01*
X169595943Y-91149972D01*
X169595939Y-91149972D01*
X169589486Y-91148600D01*
X169410514Y-91148600D01*
X169404061Y-91149972D01*
X169404057Y-91149972D01*
X169322984Y-91167205D01*
X169235454Y-91185810D01*
X169229424Y-91188495D01*
X169229423Y-91188495D01*
X169077985Y-91255919D01*
X169077983Y-91255920D01*
X169071955Y-91258604D01*
X169066614Y-91262484D01*
X169066613Y-91262485D01*
X168941111Y-91353668D01*
X168927164Y-91363801D01*
X168922743Y-91368711D01*
X168922742Y-91368712D01*
X168811852Y-91491869D01*
X168807409Y-91496803D01*
X168743631Y-91607269D01*
X168734119Y-91623745D01*
X168682737Y-91672738D01*
X168613023Y-91686174D01*
X168547112Y-91659788D01*
X168515881Y-91623745D01*
X168506369Y-91607269D01*
X168442591Y-91496803D01*
X168438149Y-91491869D01*
X168327258Y-91368712D01*
X168327257Y-91368711D01*
X168322836Y-91363801D01*
X168308890Y-91353668D01*
X168183387Y-91262485D01*
X168183386Y-91262484D01*
X168178045Y-91258604D01*
X168172017Y-91255920D01*
X168172015Y-91255919D01*
X168020577Y-91188495D01*
X168020576Y-91188495D01*
X168014546Y-91185810D01*
X167927016Y-91167205D01*
X167845943Y-91149972D01*
X167845939Y-91149972D01*
X167839486Y-91148600D01*
X167660514Y-91148600D01*
X167654061Y-91149972D01*
X167654057Y-91149972D01*
X167572984Y-91167205D01*
X167485454Y-91185810D01*
X167479424Y-91188495D01*
X167479423Y-91188495D01*
X167327985Y-91255919D01*
X167327983Y-91255920D01*
X167321955Y-91258604D01*
X167316614Y-91262484D01*
X167316613Y-91262485D01*
X167191111Y-91353668D01*
X167177164Y-91363801D01*
X167172743Y-91368711D01*
X167172742Y-91368712D01*
X167061852Y-91491869D01*
X167057409Y-91496803D01*
X166967923Y-91651797D01*
X166965881Y-91658082D01*
X166917142Y-91808087D01*
X166912618Y-91822009D01*
X166893910Y-92000000D01*
X166912618Y-92177991D01*
X166967923Y-92348203D01*
X166971226Y-92353925D01*
X166971227Y-92353926D01*
X166978969Y-92367336D01*
X167057409Y-92503197D01*
X167061827Y-92508104D01*
X167061828Y-92508105D01*
X167158939Y-92615958D01*
X167177164Y-92636199D01*
X167182506Y-92640080D01*
X167182508Y-92640082D01*
X167287500Y-92716363D01*
X167321955Y-92741396D01*
X167327983Y-92744080D01*
X167327985Y-92744081D01*
X167479423Y-92811505D01*
X167485454Y-92814190D01*
X167572984Y-92832795D01*
X167654057Y-92850028D01*
X167654061Y-92850028D01*
X167660514Y-92851400D01*
X167839486Y-92851400D01*
X167845939Y-92850028D01*
X167845943Y-92850028D01*
X167927016Y-92832795D01*
X168014546Y-92814190D01*
X168020577Y-92811505D01*
X168172015Y-92744081D01*
X168172017Y-92744080D01*
X168178045Y-92741396D01*
X168212500Y-92716363D01*
X168317492Y-92640082D01*
X168317494Y-92640080D01*
X168322836Y-92636199D01*
X168341061Y-92615958D01*
X168438172Y-92508105D01*
X168438173Y-92508104D01*
X168442591Y-92503197D01*
X168515881Y-92376255D01*
X168567263Y-92327262D01*
X168636977Y-92313826D01*
X168702888Y-92340212D01*
X168734119Y-92376255D01*
X168807409Y-92503197D01*
X168811827Y-92508104D01*
X168811828Y-92508105D01*
X168908939Y-92615958D01*
X168927164Y-92636199D01*
X168932506Y-92640080D01*
X168932508Y-92640082D01*
X169037500Y-92716363D01*
X169071955Y-92741396D01*
X169077983Y-92744080D01*
X169077985Y-92744081D01*
X169229423Y-92811505D01*
X169235454Y-92814190D01*
X169322984Y-92832795D01*
X169404057Y-92850028D01*
X169404061Y-92850028D01*
X169410514Y-92851400D01*
X169589486Y-92851400D01*
X169595939Y-92850028D01*
X169595943Y-92850028D01*
X169677016Y-92832795D01*
X169764546Y-92814190D01*
X169770577Y-92811505D01*
X169922015Y-92744081D01*
X169922017Y-92744080D01*
X169928045Y-92741396D01*
X169966953Y-92713128D01*
X169990875Y-92695747D01*
X170041440Y-92659010D01*
X170108306Y-92635152D01*
X170177458Y-92651232D01*
X170226938Y-92702146D01*
X170241500Y-92760946D01*
X170241500Y-123266246D01*
X170221498Y-123334367D01*
X170167842Y-123380860D01*
X170097568Y-123390964D01*
X170032988Y-123361470D01*
X169996687Y-123307947D01*
X169995871Y-123304964D01*
X169883077Y-123040524D01*
X169735439Y-122793839D01*
X169555687Y-122569472D01*
X169347149Y-122371577D01*
X169113683Y-122203814D01*
X169091843Y-122192250D01*
X168947004Y-122115562D01*
X168859608Y-122069288D01*
X168589627Y-121970489D01*
X168308736Y-121909245D01*
X168277685Y-121906801D01*
X168085718Y-121891693D01*
X168085709Y-121891693D01*
X168083261Y-121891500D01*
X167927729Y-121891500D01*
X167925593Y-121891646D01*
X167925582Y-121891646D01*
X167717452Y-121905835D01*
X167717446Y-121905836D01*
X167713175Y-121906127D01*
X167708980Y-121906996D01*
X167708978Y-121906996D01*
X167591676Y-121931288D01*
X167431658Y-121964426D01*
X167160657Y-122060393D01*
X166905188Y-122192250D01*
X166901687Y-122194711D01*
X166901683Y-122194713D01*
X166891594Y-122201804D01*
X166669977Y-122357559D01*
X166459378Y-122553260D01*
X166277287Y-122775732D01*
X166127073Y-123020858D01*
X166125347Y-123024791D01*
X166125346Y-123024792D01*
X166096052Y-123091525D01*
X166011517Y-123284102D01*
X165932756Y-123560594D01*
X165892249Y-123845216D01*
X165892227Y-123849505D01*
X165892226Y-123849512D01*
X165890765Y-124128417D01*
X165890743Y-124132703D01*
X165891302Y-124136947D01*
X165891302Y-124136951D01*
X165907810Y-124262340D01*
X165928268Y-124417734D01*
X165929401Y-124421874D01*
X165929401Y-124421876D01*
X165938242Y-124454193D01*
X166004129Y-124695036D01*
X166005813Y-124698984D01*
X166079832Y-124872517D01*
X166116923Y-124959476D01*
X166264561Y-125206161D01*
X166267242Y-125209508D01*
X166267248Y-125209516D01*
X166329100Y-125286720D01*
X166356082Y-125352389D01*
X166343277Y-125422221D01*
X166294750Y-125474045D01*
X166230766Y-125491500D01*
X146402112Y-125491500D01*
X146333991Y-125471498D01*
X146287498Y-125417842D01*
X146277394Y-125347568D01*
X146292993Y-125302500D01*
X146378773Y-125153926D01*
X146378774Y-125153925D01*
X146382077Y-125148203D01*
X146437382Y-124977991D01*
X146439744Y-124955524D01*
X146455400Y-124806565D01*
X146456090Y-124800000D01*
X146448902Y-124731610D01*
X146438072Y-124628573D01*
X146438072Y-124628572D01*
X146437382Y-124622009D01*
X146434097Y-124611897D01*
X146384119Y-124458082D01*
X146382077Y-124451797D01*
X146377307Y-124443534D01*
X146295892Y-124302521D01*
X146292591Y-124296803D01*
X146172836Y-124163801D01*
X146160426Y-124154784D01*
X146033387Y-124062485D01*
X146033386Y-124062484D01*
X146028045Y-124058604D01*
X146022017Y-124055920D01*
X146022015Y-124055919D01*
X145870577Y-123988495D01*
X145870576Y-123988495D01*
X145864546Y-123985810D01*
X145777016Y-123967205D01*
X145695943Y-123949972D01*
X145695939Y-123949972D01*
X145689486Y-123948600D01*
X145510514Y-123948600D01*
X145504061Y-123949972D01*
X145504057Y-123949972D01*
X145422984Y-123967205D01*
X145335454Y-123985810D01*
X145329424Y-123988495D01*
X145329423Y-123988495D01*
X145312497Y-123996031D01*
X145280248Y-124010389D01*
X145209882Y-124019823D01*
X145145585Y-123989717D01*
X145107772Y-123929628D01*
X145103000Y-123895282D01*
X145103000Y-123622115D01*
X145098525Y-123606876D01*
X145097135Y-123605671D01*
X145089452Y-123604000D01*
X144342115Y-123604000D01*
X144326876Y-123608475D01*
X144325671Y-123609865D01*
X144324000Y-123617548D01*
X144324000Y-124858986D01*
X144327973Y-124872517D01*
X144335768Y-124873637D01*
X144452932Y-124839154D01*
X144464301Y-124834561D01*
X144568485Y-124780095D01*
X144638121Y-124766261D01*
X144704181Y-124792271D01*
X144745693Y-124849867D01*
X144752170Y-124878585D01*
X144762618Y-124977991D01*
X144817923Y-125148203D01*
X144821226Y-125153925D01*
X144821227Y-125153926D01*
X144907007Y-125302500D01*
X144923745Y-125371495D01*
X144900525Y-125438587D01*
X144844718Y-125482474D01*
X144797888Y-125491500D01*
X132769940Y-125491500D01*
X132701819Y-125471498D01*
X132655326Y-125417842D01*
X132645222Y-125347568D01*
X132672436Y-125285694D01*
X132719998Y-125227586D01*
X132720003Y-125227579D01*
X132722713Y-125224268D01*
X132872927Y-124979142D01*
X132919241Y-124873637D01*
X132986757Y-124719830D01*
X132988483Y-124715898D01*
X133067244Y-124439406D01*
X133107751Y-124154784D01*
X133107845Y-124136951D01*
X133108966Y-123922890D01*
X134397000Y-123922890D01*
X134397300Y-123929035D01*
X134411170Y-124070481D01*
X134413553Y-124082519D01*
X134468542Y-124264651D01*
X134473217Y-124275993D01*
X134562535Y-124443977D01*
X134569322Y-124454193D01*
X134689572Y-124601634D01*
X134698216Y-124610338D01*
X134844809Y-124731610D01*
X134854980Y-124738470D01*
X135022342Y-124828962D01*
X135033647Y-124833714D01*
X135158692Y-124872422D01*
X135172795Y-124872628D01*
X135176000Y-124865873D01*
X135176000Y-124858986D01*
X135684000Y-124858986D01*
X135687973Y-124872517D01*
X135695768Y-124873637D01*
X135812932Y-124839154D01*
X135824300Y-124834561D01*
X135992911Y-124746414D01*
X136003173Y-124739698D01*
X136151443Y-124620485D01*
X136160213Y-124611897D01*
X136282499Y-124466162D01*
X136289437Y-124456031D01*
X136381094Y-124289308D01*
X136385924Y-124278038D01*
X136443452Y-124096685D01*
X136446002Y-124084691D01*
X136462607Y-123936650D01*
X136463000Y-123929626D01*
X136463000Y-123922890D01*
X143037000Y-123922890D01*
X143037300Y-123929035D01*
X143051170Y-124070481D01*
X143053553Y-124082519D01*
X143108542Y-124264651D01*
X143113217Y-124275993D01*
X143202535Y-124443977D01*
X143209322Y-124454193D01*
X143329572Y-124601634D01*
X143338216Y-124610338D01*
X143484809Y-124731610D01*
X143494980Y-124738470D01*
X143662342Y-124828962D01*
X143673647Y-124833714D01*
X143798692Y-124872422D01*
X143812795Y-124872628D01*
X143816000Y-124865873D01*
X143816000Y-123622115D01*
X143811525Y-123606876D01*
X143810135Y-123605671D01*
X143802452Y-123604000D01*
X143055115Y-123604000D01*
X143039876Y-123608475D01*
X143038671Y-123609865D01*
X143037000Y-123617548D01*
X143037000Y-123922890D01*
X136463000Y-123922890D01*
X136463000Y-123622115D01*
X136458525Y-123606876D01*
X136457135Y-123605671D01*
X136449452Y-123604000D01*
X135702115Y-123604000D01*
X135686876Y-123608475D01*
X135685671Y-123609865D01*
X135684000Y-123617548D01*
X135684000Y-124858986D01*
X135176000Y-124858986D01*
X135176000Y-123622115D01*
X135171525Y-123606876D01*
X135170135Y-123605671D01*
X135162452Y-123604000D01*
X134415115Y-123604000D01*
X134399876Y-123608475D01*
X134398671Y-123609865D01*
X134397000Y-123617548D01*
X134397000Y-123922890D01*
X133108966Y-123922890D01*
X133109235Y-123871583D01*
X133109235Y-123871576D01*
X133109257Y-123867297D01*
X133071732Y-123582266D01*
X132995871Y-123304964D01*
X132899013Y-123077885D01*
X134397000Y-123077885D01*
X134401475Y-123093124D01*
X134402865Y-123094329D01*
X134410548Y-123096000D01*
X135157885Y-123096000D01*
X135173124Y-123091525D01*
X135174329Y-123090135D01*
X135176000Y-123082452D01*
X135176000Y-123077885D01*
X135684000Y-123077885D01*
X135688475Y-123093124D01*
X135689865Y-123094329D01*
X135697548Y-123096000D01*
X136444885Y-123096000D01*
X136460124Y-123091525D01*
X136461329Y-123090135D01*
X136463000Y-123082452D01*
X136463000Y-123077885D01*
X143037000Y-123077885D01*
X143041475Y-123093124D01*
X143042865Y-123094329D01*
X143050548Y-123096000D01*
X143797885Y-123096000D01*
X143813124Y-123091525D01*
X143814329Y-123090135D01*
X143816000Y-123082452D01*
X143816000Y-123077885D01*
X144324000Y-123077885D01*
X144328475Y-123093124D01*
X144329865Y-123094329D01*
X144337548Y-123096000D01*
X145084885Y-123096000D01*
X145100124Y-123091525D01*
X145101329Y-123090135D01*
X145103000Y-123082452D01*
X145103000Y-122777110D01*
X145102700Y-122770965D01*
X145088830Y-122629519D01*
X145086447Y-122617481D01*
X145031458Y-122435349D01*
X145026783Y-122424007D01*
X144937465Y-122256023D01*
X144930678Y-122245807D01*
X144810428Y-122098366D01*
X144801784Y-122089662D01*
X144655191Y-121968390D01*
X144645020Y-121961530D01*
X144477658Y-121871038D01*
X144466353Y-121866286D01*
X144341308Y-121827578D01*
X144327205Y-121827372D01*
X144324000Y-121834127D01*
X144324000Y-123077885D01*
X143816000Y-123077885D01*
X143816000Y-121841014D01*
X143812027Y-121827483D01*
X143804232Y-121826363D01*
X143687068Y-121860846D01*
X143675700Y-121865439D01*
X143507089Y-121953586D01*
X143496827Y-121960302D01*
X143348557Y-122079515D01*
X143339787Y-122088103D01*
X143217501Y-122233838D01*
X143210563Y-122243969D01*
X143118906Y-122410692D01*
X143114076Y-122421962D01*
X143056548Y-122603315D01*
X143053998Y-122615309D01*
X143037393Y-122763350D01*
X143037000Y-122770374D01*
X143037000Y-123077885D01*
X136463000Y-123077885D01*
X136463000Y-122777110D01*
X136462700Y-122770965D01*
X136448830Y-122629519D01*
X136446447Y-122617481D01*
X136391458Y-122435349D01*
X136386783Y-122424007D01*
X136297465Y-122256023D01*
X136290678Y-122245807D01*
X136170428Y-122098366D01*
X136161784Y-122089662D01*
X136015191Y-121968390D01*
X136005020Y-121961530D01*
X135837658Y-121871038D01*
X135826353Y-121866286D01*
X135701308Y-121827578D01*
X135687205Y-121827372D01*
X135684000Y-121834127D01*
X135684000Y-123077885D01*
X135176000Y-123077885D01*
X135176000Y-121841014D01*
X135172027Y-121827483D01*
X135164232Y-121826363D01*
X135047068Y-121860846D01*
X135035700Y-121865439D01*
X134867089Y-121953586D01*
X134856827Y-121960302D01*
X134708557Y-122079515D01*
X134699787Y-122088103D01*
X134577501Y-122233838D01*
X134570563Y-122243969D01*
X134478906Y-122410692D01*
X134474076Y-122421962D01*
X134416548Y-122603315D01*
X134413998Y-122615309D01*
X134397393Y-122763350D01*
X134397000Y-122770374D01*
X134397000Y-123077885D01*
X132899013Y-123077885D01*
X132883077Y-123040524D01*
X132735439Y-122793839D01*
X132555687Y-122569472D01*
X132347149Y-122371577D01*
X132113683Y-122203814D01*
X132091843Y-122192250D01*
X131947004Y-122115562D01*
X131859608Y-122069288D01*
X131589627Y-121970489D01*
X131308736Y-121909245D01*
X131277685Y-121906801D01*
X131085718Y-121891693D01*
X131085709Y-121891693D01*
X131083261Y-121891500D01*
X130927729Y-121891500D01*
X130925593Y-121891646D01*
X130925582Y-121891646D01*
X130717452Y-121905835D01*
X130717446Y-121905836D01*
X130713175Y-121906127D01*
X130708980Y-121906996D01*
X130708978Y-121906996D01*
X130591676Y-121931288D01*
X130431658Y-121964426D01*
X130160657Y-122060393D01*
X129905188Y-122192250D01*
X129901687Y-122194711D01*
X129901683Y-122194713D01*
X129891594Y-122201804D01*
X129669977Y-122357559D01*
X129459378Y-122553260D01*
X129277287Y-122775732D01*
X129127073Y-123020858D01*
X129125347Y-123024791D01*
X129125346Y-123024792D01*
X129096052Y-123091525D01*
X129011517Y-123284102D01*
X129006702Y-123301007D01*
X129005679Y-123304597D01*
X128967780Y-123364631D01*
X128903440Y-123394645D01*
X128833086Y-123385110D01*
X128779056Y-123339053D01*
X128758500Y-123270077D01*
X128758500Y-121200000D01*
X144943910Y-121200000D01*
X144944600Y-121206565D01*
X144955273Y-121308105D01*
X144962618Y-121377991D01*
X144964658Y-121384269D01*
X144964658Y-121384270D01*
X144992977Y-121471427D01*
X145017923Y-121548203D01*
X145107409Y-121703197D01*
X145111827Y-121708104D01*
X145111828Y-121708105D01*
X145197449Y-121803197D01*
X145227164Y-121836199D01*
X145232506Y-121840080D01*
X145232508Y-121840082D01*
X145364802Y-121936199D01*
X145371955Y-121941396D01*
X145377983Y-121944080D01*
X145377985Y-121944081D01*
X145435246Y-121969575D01*
X145535454Y-122014190D01*
X145622984Y-122032795D01*
X145704057Y-122050028D01*
X145704061Y-122050028D01*
X145710514Y-122051400D01*
X145889486Y-122051400D01*
X145895939Y-122050028D01*
X145895943Y-122050028D01*
X145977016Y-122032795D01*
X146064546Y-122014190D01*
X146164754Y-121969575D01*
X146222015Y-121944081D01*
X146222017Y-121944080D01*
X146228045Y-121941396D01*
X146235198Y-121936199D01*
X146367492Y-121840082D01*
X146367494Y-121840080D01*
X146372836Y-121836199D01*
X146402551Y-121803197D01*
X146488172Y-121708105D01*
X146488173Y-121708104D01*
X146492591Y-121703197D01*
X146582077Y-121548203D01*
X146607023Y-121471427D01*
X146635342Y-121384270D01*
X146635342Y-121384269D01*
X146637382Y-121377991D01*
X146644728Y-121308105D01*
X146655400Y-121206565D01*
X146656090Y-121200000D01*
X146640327Y-121050028D01*
X146638072Y-121028573D01*
X146638072Y-121028572D01*
X146637382Y-121022009D01*
X146634842Y-121014190D01*
X146584119Y-120858082D01*
X146582077Y-120851797D01*
X146573072Y-120836199D01*
X146499116Y-120708105D01*
X146492591Y-120696803D01*
X146425247Y-120622009D01*
X146377258Y-120568712D01*
X146377257Y-120568711D01*
X146372836Y-120563801D01*
X146365100Y-120558180D01*
X146233387Y-120462485D01*
X146233386Y-120462484D01*
X146228045Y-120458604D01*
X146222017Y-120455920D01*
X146222015Y-120455919D01*
X146070577Y-120388495D01*
X146070576Y-120388495D01*
X146064546Y-120385810D01*
X145977016Y-120367205D01*
X145895943Y-120349972D01*
X145895939Y-120349972D01*
X145889486Y-120348600D01*
X145710514Y-120348600D01*
X145704061Y-120349972D01*
X145704057Y-120349972D01*
X145622984Y-120367205D01*
X145535454Y-120385810D01*
X145529424Y-120388495D01*
X145529423Y-120388495D01*
X145377985Y-120455919D01*
X145377983Y-120455920D01*
X145371955Y-120458604D01*
X145366614Y-120462484D01*
X145366613Y-120462485D01*
X145234901Y-120558180D01*
X145227164Y-120563801D01*
X145222743Y-120568711D01*
X145222742Y-120568712D01*
X145174754Y-120622009D01*
X145107409Y-120696803D01*
X145100884Y-120708105D01*
X145026929Y-120836199D01*
X145017923Y-120851797D01*
X145015881Y-120858082D01*
X144965159Y-121014190D01*
X144962618Y-121022009D01*
X144961928Y-121028572D01*
X144961928Y-121028573D01*
X144959673Y-121050028D01*
X144943910Y-121200000D01*
X128758500Y-121200000D01*
X128758500Y-119742890D01*
X134397000Y-119742890D01*
X134397300Y-119749035D01*
X134411170Y-119890481D01*
X134413553Y-119902519D01*
X134468542Y-120084651D01*
X134473217Y-120095993D01*
X134562535Y-120263977D01*
X134569322Y-120274193D01*
X134689572Y-120421634D01*
X134698216Y-120430338D01*
X134844809Y-120551610D01*
X134854980Y-120558470D01*
X135022342Y-120648962D01*
X135033647Y-120653714D01*
X135158692Y-120692422D01*
X135172795Y-120692628D01*
X135176000Y-120685873D01*
X135176000Y-120678986D01*
X135684000Y-120678986D01*
X135687973Y-120692517D01*
X135695768Y-120693637D01*
X135812932Y-120659154D01*
X135824300Y-120654561D01*
X135992911Y-120566414D01*
X136003173Y-120559698D01*
X136151444Y-120440484D01*
X136160210Y-120431901D01*
X136178016Y-120410680D01*
X136237126Y-120371353D01*
X136308113Y-120370227D01*
X136351067Y-120391575D01*
X136412652Y-120438660D01*
X136581704Y-120517490D01*
X136763740Y-120558180D01*
X136769463Y-120558500D01*
X136906596Y-120558500D01*
X137045437Y-120543417D01*
X137222223Y-120483922D01*
X137382109Y-120387853D01*
X137517636Y-120259692D01*
X137553741Y-120206565D01*
X137618646Y-120111060D01*
X137618647Y-120111058D01*
X137622480Y-120105418D01*
X137630742Y-120084763D01*
X137689215Y-119938570D01*
X137689216Y-119938568D01*
X137691751Y-119932229D01*
X137722216Y-119748205D01*
X137717521Y-119658615D01*
X137717163Y-119651795D01*
X141777784Y-119651795D01*
X141778141Y-119658611D01*
X141778141Y-119658615D01*
X141782931Y-119750000D01*
X141787547Y-119838067D01*
X141837080Y-120017898D01*
X141924075Y-120182898D01*
X141928480Y-120188111D01*
X141928483Y-120188115D01*
X142040064Y-120320153D01*
X142040068Y-120320157D01*
X142044471Y-120325367D01*
X142049895Y-120329514D01*
X142049896Y-120329515D01*
X142187231Y-120434516D01*
X142187235Y-120434519D01*
X142192652Y-120438660D01*
X142361704Y-120517490D01*
X142543740Y-120558180D01*
X142549463Y-120558500D01*
X142686596Y-120558500D01*
X142825437Y-120543417D01*
X143002223Y-120483922D01*
X143162109Y-120387853D01*
X143163684Y-120390475D01*
X143217518Y-120369999D01*
X143286988Y-120384641D01*
X143324961Y-120415981D01*
X143329566Y-120421628D01*
X143338216Y-120430338D01*
X143484809Y-120551610D01*
X143494980Y-120558470D01*
X143662342Y-120648962D01*
X143673647Y-120653714D01*
X143798692Y-120692422D01*
X143812795Y-120692628D01*
X143816000Y-120685873D01*
X143816000Y-120678986D01*
X144324000Y-120678986D01*
X144327973Y-120692517D01*
X144335768Y-120693637D01*
X144452932Y-120659154D01*
X144464300Y-120654561D01*
X144632911Y-120566414D01*
X144643173Y-120559698D01*
X144791443Y-120440485D01*
X144800213Y-120431897D01*
X144922499Y-120286162D01*
X144929437Y-120276031D01*
X145021094Y-120109308D01*
X145025924Y-120098038D01*
X145083452Y-119916685D01*
X145086002Y-119904691D01*
X145102607Y-119756650D01*
X145102979Y-119750000D01*
X162143910Y-119750000D01*
X162144600Y-119756565D01*
X162154610Y-119851797D01*
X162162618Y-119927991D01*
X162217923Y-120098203D01*
X162221226Y-120103925D01*
X162221227Y-120103926D01*
X162224334Y-120109308D01*
X162307409Y-120253197D01*
X162311827Y-120258104D01*
X162311828Y-120258105D01*
X162387359Y-120341991D01*
X162418077Y-120405998D01*
X162413556Y-120465237D01*
X162382793Y-120559918D01*
X162362618Y-120622009D01*
X162361928Y-120628572D01*
X162361928Y-120628573D01*
X162355217Y-120692422D01*
X162343910Y-120800000D01*
X162362618Y-120977991D01*
X162364658Y-120984269D01*
X162364658Y-120984270D01*
X162374880Y-121015730D01*
X162417923Y-121148203D01*
X162507409Y-121303197D01*
X162511827Y-121308104D01*
X162511828Y-121308105D01*
X162580407Y-121384270D01*
X162627164Y-121436199D01*
X162632506Y-121440080D01*
X162632508Y-121440082D01*
X162693328Y-121484270D01*
X162771955Y-121541396D01*
X162777983Y-121544080D01*
X162777985Y-121544081D01*
X162929423Y-121611505D01*
X162935454Y-121614190D01*
X163022984Y-121632795D01*
X163104057Y-121650028D01*
X163104061Y-121650028D01*
X163110514Y-121651400D01*
X163247023Y-121651400D01*
X163315144Y-121671402D01*
X163356142Y-121714400D01*
X163407409Y-121803197D01*
X163411827Y-121808104D01*
X163411828Y-121808105D01*
X163503717Y-121910158D01*
X163527164Y-121936199D01*
X163532506Y-121940080D01*
X163532508Y-121940082D01*
X163666613Y-122037515D01*
X163671955Y-122041396D01*
X163677983Y-122044080D01*
X163677985Y-122044081D01*
X163799912Y-122098366D01*
X163835454Y-122114190D01*
X163922984Y-122132795D01*
X164004057Y-122150028D01*
X164004061Y-122150028D01*
X164010514Y-122151400D01*
X164189486Y-122151400D01*
X164195939Y-122150028D01*
X164195943Y-122150028D01*
X164277016Y-122132795D01*
X164364546Y-122114190D01*
X164400088Y-122098366D01*
X164522015Y-122044081D01*
X164522017Y-122044080D01*
X164528045Y-122041396D01*
X164533387Y-122037515D01*
X164667492Y-121940082D01*
X164667494Y-121940080D01*
X164672836Y-121936199D01*
X164696283Y-121910158D01*
X164788172Y-121808105D01*
X164788173Y-121808104D01*
X164792591Y-121803197D01*
X164882077Y-121648203D01*
X164937382Y-121477991D01*
X164941367Y-121440082D01*
X164955400Y-121306565D01*
X164956090Y-121300000D01*
X164937382Y-121122009D01*
X164933462Y-121109944D01*
X164931438Y-121038977D01*
X164968103Y-120978180D01*
X165031816Y-120946858D01*
X165104545Y-120955906D01*
X165235454Y-121014190D01*
X165322984Y-121032795D01*
X165404057Y-121050028D01*
X165404061Y-121050028D01*
X165410514Y-121051400D01*
X165589486Y-121051400D01*
X165595939Y-121050028D01*
X165595943Y-121050028D01*
X165677016Y-121032795D01*
X165764546Y-121014190D01*
X165831748Y-120984270D01*
X165922015Y-120944081D01*
X165922017Y-120944080D01*
X165928045Y-120941396D01*
X166042717Y-120858082D01*
X166067492Y-120840082D01*
X166067494Y-120840080D01*
X166072836Y-120836199D01*
X166077258Y-120831288D01*
X166188172Y-120708105D01*
X166188173Y-120708104D01*
X166192591Y-120703197D01*
X166271563Y-120566414D01*
X166278773Y-120553926D01*
X166278774Y-120553925D01*
X166282077Y-120548203D01*
X166319867Y-120431897D01*
X166335342Y-120384270D01*
X166335342Y-120384269D01*
X166337382Y-120377991D01*
X166356090Y-120200000D01*
X166345483Y-120099086D01*
X166338072Y-120028573D01*
X166338072Y-120028572D01*
X166337382Y-120022009D01*
X166282077Y-119851797D01*
X166270217Y-119831254D01*
X166195892Y-119702521D01*
X166192591Y-119696803D01*
X166080227Y-119572009D01*
X166077258Y-119568712D01*
X166077257Y-119568711D01*
X166072836Y-119563801D01*
X166061213Y-119555356D01*
X165933387Y-119462485D01*
X165933386Y-119462484D01*
X165928045Y-119458604D01*
X165922017Y-119455920D01*
X165922015Y-119455919D01*
X165770577Y-119388495D01*
X165770576Y-119388495D01*
X165764546Y-119385810D01*
X165677016Y-119367205D01*
X165595943Y-119349972D01*
X165595939Y-119349972D01*
X165589486Y-119348600D01*
X165410514Y-119348600D01*
X165404061Y-119349972D01*
X165404057Y-119349972D01*
X165322984Y-119367205D01*
X165235454Y-119385810D01*
X165229424Y-119388495D01*
X165229423Y-119388495D01*
X165077985Y-119455919D01*
X165077983Y-119455920D01*
X165071955Y-119458604D01*
X165066614Y-119462484D01*
X165066613Y-119462485D01*
X164938788Y-119555356D01*
X164927164Y-119563801D01*
X164922743Y-119568711D01*
X164922742Y-119568712D01*
X164919774Y-119572009D01*
X164807409Y-119696803D01*
X164804108Y-119702521D01*
X164729784Y-119831254D01*
X164717923Y-119851797D01*
X164662618Y-120022009D01*
X164661928Y-120028572D01*
X164661928Y-120028573D01*
X164654517Y-120099086D01*
X164643910Y-120200000D01*
X164662618Y-120377991D01*
X164664658Y-120384269D01*
X164666538Y-120390056D01*
X164668562Y-120461023D01*
X164631897Y-120521820D01*
X164568184Y-120553142D01*
X164495455Y-120544094D01*
X164364546Y-120485810D01*
X164277016Y-120467205D01*
X164195943Y-120449972D01*
X164195939Y-120449972D01*
X164189486Y-120448600D01*
X164052977Y-120448600D01*
X163984856Y-120428598D01*
X163943858Y-120385600D01*
X163935675Y-120371427D01*
X163892591Y-120296803D01*
X163863035Y-120263977D01*
X163812641Y-120208009D01*
X163781923Y-120144002D01*
X163786444Y-120084763D01*
X163835342Y-119934270D01*
X163835342Y-119934269D01*
X163837382Y-119927991D01*
X163845391Y-119851797D01*
X163855400Y-119756565D01*
X163856090Y-119750000D01*
X163837382Y-119572009D01*
X163833454Y-119559918D01*
X163784119Y-119408082D01*
X163782077Y-119401797D01*
X163767220Y-119376063D01*
X163695892Y-119252521D01*
X163692591Y-119246803D01*
X163671289Y-119223144D01*
X163577258Y-119118712D01*
X163577257Y-119118711D01*
X163572836Y-119113801D01*
X163526103Y-119079847D01*
X163433387Y-119012485D01*
X163433386Y-119012484D01*
X163428045Y-119008604D01*
X163422017Y-119005920D01*
X163422015Y-119005919D01*
X163270577Y-118938495D01*
X163270576Y-118938495D01*
X163264546Y-118935810D01*
X163171347Y-118916000D01*
X163095943Y-118899972D01*
X163095939Y-118899972D01*
X163089486Y-118898600D01*
X162910514Y-118898600D01*
X162904061Y-118899972D01*
X162904057Y-118899972D01*
X162828653Y-118916000D01*
X162735454Y-118935810D01*
X162729424Y-118938495D01*
X162729423Y-118938495D01*
X162577985Y-119005919D01*
X162577983Y-119005920D01*
X162571955Y-119008604D01*
X162566614Y-119012484D01*
X162566613Y-119012485D01*
X162473898Y-119079847D01*
X162427164Y-119113801D01*
X162422743Y-119118711D01*
X162422742Y-119118712D01*
X162328712Y-119223144D01*
X162307409Y-119246803D01*
X162304108Y-119252521D01*
X162232781Y-119376063D01*
X162217923Y-119401797D01*
X162215881Y-119408082D01*
X162166547Y-119559918D01*
X162162618Y-119572009D01*
X162143910Y-119750000D01*
X145102979Y-119750000D01*
X145103000Y-119749626D01*
X145103000Y-119442115D01*
X145098525Y-119426876D01*
X145097135Y-119425671D01*
X145089452Y-119424000D01*
X144342115Y-119424000D01*
X144326876Y-119428475D01*
X144325671Y-119429865D01*
X144324000Y-119437548D01*
X144324000Y-120678986D01*
X143816000Y-120678986D01*
X143816000Y-118897885D01*
X144324000Y-118897885D01*
X144328475Y-118913124D01*
X144329865Y-118914329D01*
X144337548Y-118916000D01*
X145084885Y-118916000D01*
X145100124Y-118911525D01*
X145101329Y-118910135D01*
X145103000Y-118902452D01*
X145103000Y-118597110D01*
X145102700Y-118590965D01*
X145088830Y-118449519D01*
X145086447Y-118437481D01*
X145031458Y-118255349D01*
X145026783Y-118244007D01*
X144937465Y-118076023D01*
X144930678Y-118065807D01*
X144810428Y-117918366D01*
X144801784Y-117909662D01*
X144655191Y-117788390D01*
X144645020Y-117781530D01*
X144477658Y-117691038D01*
X144466353Y-117686286D01*
X144341308Y-117647578D01*
X144327205Y-117647372D01*
X144324000Y-117654127D01*
X144324000Y-118897885D01*
X143816000Y-118897885D01*
X143816000Y-117661014D01*
X143812027Y-117647483D01*
X143804232Y-117646363D01*
X143687068Y-117680846D01*
X143675700Y-117685439D01*
X143507089Y-117773586D01*
X143496827Y-117780302D01*
X143348557Y-117899515D01*
X143339787Y-117908103D01*
X143217501Y-118053838D01*
X143210563Y-118063969D01*
X143118906Y-118230692D01*
X143114076Y-118241962D01*
X143056548Y-118423315D01*
X143053998Y-118435309D01*
X143037393Y-118583350D01*
X143037000Y-118590374D01*
X143037000Y-118751770D01*
X143016998Y-118819891D01*
X142963342Y-118866384D01*
X142893068Y-118876488D01*
X142883532Y-118874739D01*
X142736260Y-118841820D01*
X142730537Y-118841500D01*
X142593404Y-118841500D01*
X142454563Y-118856583D01*
X142277777Y-118916078D01*
X142117891Y-119012147D01*
X141982364Y-119140308D01*
X141978529Y-119145951D01*
X141933721Y-119211885D01*
X141877520Y-119294582D01*
X141874988Y-119300911D01*
X141874987Y-119300914D01*
X141810785Y-119461430D01*
X141808249Y-119467771D01*
X141777784Y-119651795D01*
X137717163Y-119651795D01*
X137712810Y-119568746D01*
X137712453Y-119561933D01*
X137662920Y-119382102D01*
X137575925Y-119217102D01*
X137571520Y-119211889D01*
X137571517Y-119211885D01*
X137459936Y-119079847D01*
X137459932Y-119079843D01*
X137455529Y-119074633D01*
X137450104Y-119070485D01*
X137312769Y-118965484D01*
X137312765Y-118965481D01*
X137307348Y-118961340D01*
X137138296Y-118882510D01*
X136956260Y-118841820D01*
X136950537Y-118841500D01*
X136813404Y-118841500D01*
X136674563Y-118856583D01*
X136630537Y-118871399D01*
X136629189Y-118871853D01*
X136558246Y-118874623D01*
X136497068Y-118838599D01*
X136465077Y-118775219D01*
X136463000Y-118752434D01*
X136463000Y-118597110D01*
X136462700Y-118590965D01*
X136448830Y-118449519D01*
X136446447Y-118437481D01*
X136391458Y-118255349D01*
X136386783Y-118244007D01*
X136297465Y-118076023D01*
X136290678Y-118065807D01*
X136170428Y-117918366D01*
X136161784Y-117909662D01*
X136015191Y-117788390D01*
X136005020Y-117781530D01*
X135837658Y-117691038D01*
X135826353Y-117686286D01*
X135701308Y-117647578D01*
X135687205Y-117647372D01*
X135684000Y-117654127D01*
X135684000Y-120678986D01*
X135176000Y-120678986D01*
X135176000Y-119442115D01*
X135171525Y-119426876D01*
X135170135Y-119425671D01*
X135162452Y-119424000D01*
X134415115Y-119424000D01*
X134399876Y-119428475D01*
X134398671Y-119429865D01*
X134397000Y-119437548D01*
X134397000Y-119742890D01*
X128758500Y-119742890D01*
X128758500Y-118897885D01*
X134397000Y-118897885D01*
X134401475Y-118913124D01*
X134402865Y-118914329D01*
X134410548Y-118916000D01*
X135157885Y-118916000D01*
X135173124Y-118911525D01*
X135174329Y-118910135D01*
X135176000Y-118902452D01*
X135176000Y-117661014D01*
X135172027Y-117647483D01*
X135164232Y-117646363D01*
X135047068Y-117680846D01*
X135035700Y-117685439D01*
X134867089Y-117773586D01*
X134856827Y-117780302D01*
X134708557Y-117899515D01*
X134699787Y-117908103D01*
X134577501Y-118053838D01*
X134570563Y-118063969D01*
X134478906Y-118230692D01*
X134474076Y-118241962D01*
X134416548Y-118423315D01*
X134413998Y-118435309D01*
X134397393Y-118583350D01*
X134397000Y-118590374D01*
X134397000Y-118897885D01*
X128758500Y-118897885D01*
X128758500Y-114400000D01*
X162343910Y-114400000D01*
X162362618Y-114577991D01*
X162417923Y-114748203D01*
X162507409Y-114903197D01*
X162627164Y-115036199D01*
X162771955Y-115141396D01*
X162777983Y-115144080D01*
X162777985Y-115144081D01*
X162929423Y-115211505D01*
X162935454Y-115214190D01*
X163022984Y-115232795D01*
X163104057Y-115250028D01*
X163104061Y-115250028D01*
X163110514Y-115251400D01*
X163289486Y-115251400D01*
X163295939Y-115250028D01*
X163295943Y-115250028D01*
X163377016Y-115232795D01*
X163464546Y-115214190D01*
X163470577Y-115211505D01*
X163622015Y-115144081D01*
X163622017Y-115144080D01*
X163628045Y-115141396D01*
X163772836Y-115036199D01*
X163892591Y-114903197D01*
X163982077Y-114748203D01*
X164037382Y-114577991D01*
X164056090Y-114400000D01*
X164037382Y-114222009D01*
X163982077Y-114051797D01*
X163930810Y-113963000D01*
X163914072Y-113894005D01*
X163930810Y-113837000D01*
X163978773Y-113753926D01*
X163978774Y-113753925D01*
X163982077Y-113748203D01*
X164005011Y-113677620D01*
X164035342Y-113584270D01*
X164035342Y-113584269D01*
X164037382Y-113577991D01*
X164044728Y-113508105D01*
X164055400Y-113406565D01*
X164056090Y-113400000D01*
X164039282Y-113240082D01*
X164038072Y-113228573D01*
X164038072Y-113228572D01*
X164037382Y-113222009D01*
X163982077Y-113051797D01*
X163930810Y-112963000D01*
X163914072Y-112894005D01*
X163930810Y-112837000D01*
X163931273Y-112836199D01*
X163982077Y-112748203D01*
X164037382Y-112577991D01*
X164056090Y-112400000D01*
X164037382Y-112222009D01*
X164025175Y-112184438D01*
X163984119Y-112058082D01*
X163982077Y-112051797D01*
X163930810Y-111963000D01*
X163914072Y-111894005D01*
X163930810Y-111837000D01*
X163978773Y-111753926D01*
X163978774Y-111753925D01*
X163982077Y-111748203D01*
X164037382Y-111577991D01*
X164038874Y-111563801D01*
X164055400Y-111406565D01*
X164056090Y-111400000D01*
X164037382Y-111222009D01*
X163982077Y-111051797D01*
X163892591Y-110896803D01*
X163841520Y-110840082D01*
X163777258Y-110768712D01*
X163777257Y-110768711D01*
X163772836Y-110763801D01*
X163696178Y-110708105D01*
X163633387Y-110662485D01*
X163633386Y-110662484D01*
X163628045Y-110658604D01*
X163622017Y-110655920D01*
X163622015Y-110655919D01*
X163470577Y-110588495D01*
X163470576Y-110588495D01*
X163464546Y-110585810D01*
X163369286Y-110565562D01*
X163295943Y-110549972D01*
X163295939Y-110549972D01*
X163289486Y-110548600D01*
X163110514Y-110548600D01*
X163104061Y-110549972D01*
X163104057Y-110549972D01*
X163030714Y-110565562D01*
X162935454Y-110585810D01*
X162929424Y-110588495D01*
X162929423Y-110588495D01*
X162777985Y-110655919D01*
X162777983Y-110655920D01*
X162771955Y-110658604D01*
X162766614Y-110662484D01*
X162766613Y-110662485D01*
X162703823Y-110708105D01*
X162627164Y-110763801D01*
X162622743Y-110768711D01*
X162622742Y-110768712D01*
X162558481Y-110840082D01*
X162507409Y-110896803D01*
X162417923Y-111051797D01*
X162362618Y-111222009D01*
X162343910Y-111400000D01*
X162344600Y-111406565D01*
X162361127Y-111563801D01*
X162362618Y-111577991D01*
X162417923Y-111748203D01*
X162421226Y-111753925D01*
X162421227Y-111753926D01*
X162469190Y-111837000D01*
X162485928Y-111905995D01*
X162469190Y-111963000D01*
X162417923Y-112051797D01*
X162415881Y-112058082D01*
X162374826Y-112184438D01*
X162362618Y-112222009D01*
X162343910Y-112400000D01*
X162362618Y-112577991D01*
X162417923Y-112748203D01*
X162468728Y-112836199D01*
X162469190Y-112837000D01*
X162485928Y-112905995D01*
X162469190Y-112963000D01*
X162417923Y-113051797D01*
X162362618Y-113222009D01*
X162361928Y-113228572D01*
X162361928Y-113228573D01*
X162360718Y-113240082D01*
X162343910Y-113400000D01*
X162344600Y-113406565D01*
X162355273Y-113508105D01*
X162362618Y-113577991D01*
X162364658Y-113584269D01*
X162364658Y-113584270D01*
X162394989Y-113677620D01*
X162417923Y-113748203D01*
X162421226Y-113753925D01*
X162421227Y-113753926D01*
X162469190Y-113837000D01*
X162485928Y-113905995D01*
X162469190Y-113963000D01*
X162417923Y-114051797D01*
X162362618Y-114222009D01*
X162343910Y-114400000D01*
X128758500Y-114400000D01*
X128758500Y-113000000D01*
X138143910Y-113000000D01*
X138144600Y-113006565D01*
X138155273Y-113108105D01*
X138162618Y-113177991D01*
X138164658Y-113184269D01*
X138164658Y-113184270D01*
X138193630Y-113273437D01*
X138217923Y-113348203D01*
X138307409Y-113503197D01*
X138311827Y-113508104D01*
X138311828Y-113508105D01*
X138380407Y-113584270D01*
X138427164Y-113636199D01*
X138571955Y-113741396D01*
X138577983Y-113744080D01*
X138577985Y-113744081D01*
X138729423Y-113811505D01*
X138735454Y-113814190D01*
X138822984Y-113832795D01*
X138904057Y-113850028D01*
X138904061Y-113850028D01*
X138910514Y-113851400D01*
X139089486Y-113851400D01*
X139095939Y-113850028D01*
X139095943Y-113850028D01*
X139177016Y-113832795D01*
X139264546Y-113814190D01*
X139270577Y-113811505D01*
X139422015Y-113744081D01*
X139422017Y-113744080D01*
X139428045Y-113741396D01*
X139572836Y-113636199D01*
X139619593Y-113584270D01*
X139688172Y-113508105D01*
X139688173Y-113508104D01*
X139692591Y-113503197D01*
X139782077Y-113348203D01*
X139806370Y-113273437D01*
X139846443Y-113214831D01*
X139911840Y-113187194D01*
X139981797Y-113199301D01*
X140019840Y-113228065D01*
X140027164Y-113236199D01*
X140032506Y-113240080D01*
X140032508Y-113240082D01*
X140166613Y-113337515D01*
X140171955Y-113341396D01*
X140177983Y-113344080D01*
X140177985Y-113344081D01*
X140329423Y-113411505D01*
X140335454Y-113414190D01*
X140422984Y-113432795D01*
X140504057Y-113450028D01*
X140504061Y-113450028D01*
X140510514Y-113451400D01*
X140689486Y-113451400D01*
X140695939Y-113450028D01*
X140695943Y-113450028D01*
X140777016Y-113432795D01*
X140864546Y-113414190D01*
X140870577Y-113411505D01*
X141022015Y-113344081D01*
X141022017Y-113344080D01*
X141028045Y-113341396D01*
X141033387Y-113337515D01*
X141167492Y-113240082D01*
X141167494Y-113240080D01*
X141172836Y-113236199D01*
X141177258Y-113231288D01*
X141288172Y-113108105D01*
X141288173Y-113108104D01*
X141292591Y-113103197D01*
X141382077Y-112948203D01*
X141405011Y-112877620D01*
X141435342Y-112784270D01*
X141435342Y-112784269D01*
X141437382Y-112777991D01*
X141444728Y-112708105D01*
X141455400Y-112606565D01*
X141456090Y-112600000D01*
X141445243Y-112496803D01*
X141438072Y-112428573D01*
X141438072Y-112428572D01*
X141437382Y-112422009D01*
X141417208Y-112359918D01*
X141384119Y-112258082D01*
X141382077Y-112251797D01*
X141352172Y-112200000D01*
X152943910Y-112200000D01*
X152944600Y-112206565D01*
X152961127Y-112363801D01*
X152962618Y-112377991D01*
X153017923Y-112548203D01*
X153107409Y-112703197D01*
X153111827Y-112708104D01*
X153111828Y-112708105D01*
X153222742Y-112831288D01*
X153227164Y-112836199D01*
X153232506Y-112840080D01*
X153232508Y-112840082D01*
X153366613Y-112937515D01*
X153371955Y-112941396D01*
X153377983Y-112944080D01*
X153377985Y-112944081D01*
X153529423Y-113011505D01*
X153535454Y-113014190D01*
X153622984Y-113032795D01*
X153704057Y-113050028D01*
X153704061Y-113050028D01*
X153710514Y-113051400D01*
X153889486Y-113051400D01*
X153895939Y-113050028D01*
X153895943Y-113050028D01*
X153977016Y-113032795D01*
X154064546Y-113014190D01*
X154070577Y-113011505D01*
X154222015Y-112944081D01*
X154222017Y-112944080D01*
X154228045Y-112941396D01*
X154233386Y-112937515D01*
X154236998Y-112935430D01*
X154305994Y-112918691D01*
X154363002Y-112935430D01*
X154366614Y-112937515D01*
X154371955Y-112941396D01*
X154377983Y-112944080D01*
X154377985Y-112944081D01*
X154529423Y-113011505D01*
X154535454Y-113014190D01*
X154622984Y-113032795D01*
X154704057Y-113050028D01*
X154704061Y-113050028D01*
X154710514Y-113051400D01*
X154889486Y-113051400D01*
X154895939Y-113050028D01*
X154895943Y-113050028D01*
X154977016Y-113032795D01*
X155064546Y-113014190D01*
X155070577Y-113011505D01*
X155222015Y-112944081D01*
X155222017Y-112944080D01*
X155228045Y-112941396D01*
X155233387Y-112937515D01*
X155367492Y-112840082D01*
X155367494Y-112840080D01*
X155372836Y-112836199D01*
X155377258Y-112831288D01*
X155488172Y-112708105D01*
X155488173Y-112708104D01*
X155492591Y-112703197D01*
X155582077Y-112548203D01*
X155637382Y-112377991D01*
X155638874Y-112363801D01*
X155655400Y-112206565D01*
X155656090Y-112200000D01*
X155645243Y-112096803D01*
X155638072Y-112028573D01*
X155638072Y-112028572D01*
X155637382Y-112022009D01*
X155617208Y-111959918D01*
X155584119Y-111858082D01*
X155582077Y-111851797D01*
X155492591Y-111696803D01*
X155379703Y-111571427D01*
X155377258Y-111568712D01*
X155377257Y-111568711D01*
X155372836Y-111563801D01*
X155300000Y-111510882D01*
X155233387Y-111462485D01*
X155233386Y-111462484D01*
X155228045Y-111458604D01*
X155222017Y-111455920D01*
X155222015Y-111455919D01*
X155070577Y-111388495D01*
X155070576Y-111388495D01*
X155064546Y-111385810D01*
X154977016Y-111367205D01*
X154895943Y-111349972D01*
X154895939Y-111349972D01*
X154889486Y-111348600D01*
X154710514Y-111348600D01*
X154704061Y-111349972D01*
X154704057Y-111349972D01*
X154622984Y-111367205D01*
X154535454Y-111385810D01*
X154529424Y-111388495D01*
X154529423Y-111388495D01*
X154377985Y-111455919D01*
X154377983Y-111455920D01*
X154371955Y-111458604D01*
X154366614Y-111462485D01*
X154363002Y-111464570D01*
X154294006Y-111481309D01*
X154236998Y-111464570D01*
X154233386Y-111462485D01*
X154228045Y-111458604D01*
X154222017Y-111455920D01*
X154222015Y-111455919D01*
X154070577Y-111388495D01*
X154070576Y-111388495D01*
X154064546Y-111385810D01*
X153977016Y-111367205D01*
X153895943Y-111349972D01*
X153895939Y-111349972D01*
X153889486Y-111348600D01*
X153710514Y-111348600D01*
X153704061Y-111349972D01*
X153704057Y-111349972D01*
X153622984Y-111367205D01*
X153535454Y-111385810D01*
X153529424Y-111388495D01*
X153529423Y-111388495D01*
X153377985Y-111455919D01*
X153377983Y-111455920D01*
X153371955Y-111458604D01*
X153366614Y-111462484D01*
X153366613Y-111462485D01*
X153300001Y-111510882D01*
X153227164Y-111563801D01*
X153222743Y-111568711D01*
X153222742Y-111568712D01*
X153220298Y-111571427D01*
X153107409Y-111696803D01*
X153017923Y-111851797D01*
X153015881Y-111858082D01*
X152982793Y-111959918D01*
X152962618Y-112022009D01*
X152961928Y-112028572D01*
X152961928Y-112028573D01*
X152954757Y-112096803D01*
X152943910Y-112200000D01*
X141352172Y-112200000D01*
X141292591Y-112096803D01*
X141225247Y-112022009D01*
X141177258Y-111968712D01*
X141177257Y-111968711D01*
X141172836Y-111963801D01*
X141076771Y-111894005D01*
X141033387Y-111862485D01*
X141033386Y-111862484D01*
X141028045Y-111858604D01*
X141022017Y-111855920D01*
X141022015Y-111855919D01*
X140870577Y-111788495D01*
X140870576Y-111788495D01*
X140864546Y-111785810D01*
X140777016Y-111767205D01*
X140695943Y-111749972D01*
X140695939Y-111749972D01*
X140689486Y-111748600D01*
X140510514Y-111748600D01*
X140504061Y-111749972D01*
X140504057Y-111749972D01*
X140422984Y-111767205D01*
X140335454Y-111785810D01*
X140329424Y-111788495D01*
X140329423Y-111788495D01*
X140177985Y-111855919D01*
X140177983Y-111855920D01*
X140171955Y-111858604D01*
X140166614Y-111862484D01*
X140166613Y-111862485D01*
X140123230Y-111894005D01*
X140027164Y-111963801D01*
X140022743Y-111968711D01*
X140022742Y-111968712D01*
X139974754Y-112022009D01*
X139907409Y-112096803D01*
X139817923Y-112251797D01*
X139815881Y-112258082D01*
X139793630Y-112326563D01*
X139753557Y-112385169D01*
X139688160Y-112412806D01*
X139618203Y-112400699D01*
X139580160Y-112371935D01*
X139572836Y-112363801D01*
X139521583Y-112326563D01*
X139433387Y-112262485D01*
X139433386Y-112262484D01*
X139428045Y-112258604D01*
X139422017Y-112255920D01*
X139422015Y-112255919D01*
X139270577Y-112188495D01*
X139270576Y-112188495D01*
X139264546Y-112185810D01*
X139177016Y-112167205D01*
X139095943Y-112149972D01*
X139095939Y-112149972D01*
X139089486Y-112148600D01*
X138910514Y-112148600D01*
X138904061Y-112149972D01*
X138904057Y-112149972D01*
X138822984Y-112167205D01*
X138735454Y-112185810D01*
X138729424Y-112188495D01*
X138729423Y-112188495D01*
X138577985Y-112255919D01*
X138577983Y-112255920D01*
X138571955Y-112258604D01*
X138566614Y-112262484D01*
X138566613Y-112262485D01*
X138478418Y-112326563D01*
X138427164Y-112363801D01*
X138422746Y-112368708D01*
X138422742Y-112368712D01*
X138374754Y-112422009D01*
X138307409Y-112496803D01*
X138217923Y-112651797D01*
X138162618Y-112822009D01*
X138161928Y-112828572D01*
X138161928Y-112828573D01*
X138152456Y-112918691D01*
X138143910Y-113000000D01*
X128758500Y-113000000D01*
X128758500Y-109000000D01*
X147743910Y-109000000D01*
X147762618Y-109177991D01*
X147817923Y-109348203D01*
X147907409Y-109503197D01*
X147911827Y-109508104D01*
X147911828Y-109508105D01*
X148022742Y-109631288D01*
X148027164Y-109636199D01*
X148032506Y-109640080D01*
X148032508Y-109640082D01*
X148110578Y-109696803D01*
X148171955Y-109741396D01*
X148177983Y-109744080D01*
X148177985Y-109744081D01*
X148206025Y-109756565D01*
X148335454Y-109814190D01*
X148422984Y-109832795D01*
X148504057Y-109850028D01*
X148504061Y-109850028D01*
X148510514Y-109851400D01*
X148689486Y-109851400D01*
X148695939Y-109850028D01*
X148695943Y-109850028D01*
X148777016Y-109832795D01*
X148864546Y-109814190D01*
X148993975Y-109756565D01*
X149008720Y-109750000D01*
X152143910Y-109750000D01*
X152144600Y-109756565D01*
X152154610Y-109851797D01*
X152162618Y-109927991D01*
X152217923Y-110098203D01*
X152307409Y-110253197D01*
X152311827Y-110258104D01*
X152311828Y-110258105D01*
X152422742Y-110381288D01*
X152427164Y-110386199D01*
X152571955Y-110491396D01*
X152577983Y-110494080D01*
X152577985Y-110494081D01*
X152729423Y-110561505D01*
X152735454Y-110564190D01*
X152822984Y-110582795D01*
X152904057Y-110600028D01*
X152904061Y-110600028D01*
X152910514Y-110601400D01*
X153089486Y-110601400D01*
X153095939Y-110600028D01*
X153095943Y-110600028D01*
X153177016Y-110582795D01*
X153264546Y-110564190D01*
X153270577Y-110561505D01*
X153422015Y-110494081D01*
X153422017Y-110494080D01*
X153428045Y-110491396D01*
X153572836Y-110386199D01*
X153577258Y-110381288D01*
X153688172Y-110258105D01*
X153688173Y-110258104D01*
X153692591Y-110253197D01*
X153723304Y-110200000D01*
X159743910Y-110200000D01*
X159762618Y-110377991D01*
X159764658Y-110384269D01*
X159764658Y-110384270D01*
X159794989Y-110477620D01*
X159817923Y-110548203D01*
X159907409Y-110703197D01*
X159911827Y-110708104D01*
X159911828Y-110708105D01*
X159961977Y-110763801D01*
X160027164Y-110836199D01*
X160032506Y-110840080D01*
X160032508Y-110840082D01*
X160110578Y-110896803D01*
X160171955Y-110941396D01*
X160177983Y-110944080D01*
X160177985Y-110944081D01*
X160329423Y-111011505D01*
X160335454Y-111014190D01*
X160422984Y-111032795D01*
X160504057Y-111050028D01*
X160504061Y-111050028D01*
X160510514Y-111051400D01*
X160689486Y-111051400D01*
X160695939Y-111050028D01*
X160695943Y-111050028D01*
X160777016Y-111032795D01*
X160864546Y-111014190D01*
X160870577Y-111011505D01*
X161022015Y-110944081D01*
X161022017Y-110944080D01*
X161028045Y-110941396D01*
X161089422Y-110896803D01*
X161167492Y-110840082D01*
X161167494Y-110840080D01*
X161172836Y-110836199D01*
X161238023Y-110763801D01*
X161288172Y-110708105D01*
X161288173Y-110708104D01*
X161292591Y-110703197D01*
X161382077Y-110548203D01*
X161405011Y-110477620D01*
X161435342Y-110384270D01*
X161435342Y-110384269D01*
X161437382Y-110377991D01*
X161456090Y-110200000D01*
X161445992Y-110103926D01*
X161438072Y-110028573D01*
X161438072Y-110028572D01*
X161437382Y-110022009D01*
X161382077Y-109851797D01*
X161292591Y-109696803D01*
X161241520Y-109640082D01*
X161177258Y-109568712D01*
X161177257Y-109568711D01*
X161172836Y-109563801D01*
X161096178Y-109508105D01*
X161033387Y-109462485D01*
X161033386Y-109462484D01*
X161028045Y-109458604D01*
X161022017Y-109455920D01*
X161022015Y-109455919D01*
X160870577Y-109388495D01*
X160870576Y-109388495D01*
X160864546Y-109385810D01*
X160777016Y-109367205D01*
X160695943Y-109349972D01*
X160695939Y-109349972D01*
X160689486Y-109348600D01*
X160510514Y-109348600D01*
X160504061Y-109349972D01*
X160504057Y-109349972D01*
X160422984Y-109367205D01*
X160335454Y-109385810D01*
X160329424Y-109388495D01*
X160329423Y-109388495D01*
X160177985Y-109455919D01*
X160177983Y-109455920D01*
X160171955Y-109458604D01*
X160166614Y-109462484D01*
X160166613Y-109462485D01*
X160103823Y-109508105D01*
X160027164Y-109563801D01*
X160022743Y-109568711D01*
X160022742Y-109568712D01*
X159958481Y-109640082D01*
X159907409Y-109696803D01*
X159817923Y-109851797D01*
X159762618Y-110022009D01*
X159761928Y-110028572D01*
X159761928Y-110028573D01*
X159754008Y-110103926D01*
X159743910Y-110200000D01*
X153723304Y-110200000D01*
X153782077Y-110098203D01*
X153837382Y-109927991D01*
X153845391Y-109851797D01*
X153855400Y-109756565D01*
X153856090Y-109750000D01*
X153837382Y-109572009D01*
X153833454Y-109559918D01*
X153784119Y-109408082D01*
X153782077Y-109401797D01*
X153692591Y-109246803D01*
X153624723Y-109171427D01*
X153577258Y-109118712D01*
X153577257Y-109118711D01*
X153572836Y-109113801D01*
X153428045Y-109008604D01*
X153422017Y-109005920D01*
X153422015Y-109005919D01*
X153270577Y-108938495D01*
X153270576Y-108938495D01*
X153264546Y-108935810D01*
X153177016Y-108917205D01*
X153095943Y-108899972D01*
X153095939Y-108899972D01*
X153089486Y-108898600D01*
X152910514Y-108898600D01*
X152904061Y-108899972D01*
X152904057Y-108899972D01*
X152822984Y-108917205D01*
X152735454Y-108935810D01*
X152729424Y-108938495D01*
X152729423Y-108938495D01*
X152577985Y-109005919D01*
X152577983Y-109005920D01*
X152571955Y-109008604D01*
X152427164Y-109113801D01*
X152422743Y-109118711D01*
X152422742Y-109118712D01*
X152375278Y-109171427D01*
X152307409Y-109246803D01*
X152217923Y-109401797D01*
X152215881Y-109408082D01*
X152166547Y-109559918D01*
X152162618Y-109572009D01*
X152143910Y-109750000D01*
X149008720Y-109750000D01*
X149022015Y-109744081D01*
X149022017Y-109744080D01*
X149028045Y-109741396D01*
X149089422Y-109696803D01*
X149167492Y-109640082D01*
X149167494Y-109640080D01*
X149172836Y-109636199D01*
X149177258Y-109631288D01*
X149288172Y-109508105D01*
X149288173Y-109508104D01*
X149292591Y-109503197D01*
X149382077Y-109348203D01*
X149437382Y-109177991D01*
X149456090Y-109000000D01*
X149437382Y-108822009D01*
X149382077Y-108651797D01*
X149292591Y-108496803D01*
X149172836Y-108363801D01*
X149028045Y-108258604D01*
X149022017Y-108255920D01*
X149022015Y-108255919D01*
X148870577Y-108188495D01*
X148870576Y-108188495D01*
X148864546Y-108185810D01*
X148777016Y-108167205D01*
X148695943Y-108149972D01*
X148695939Y-108149972D01*
X148689486Y-108148600D01*
X148510514Y-108148600D01*
X148504061Y-108149972D01*
X148504057Y-108149972D01*
X148422984Y-108167205D01*
X148335454Y-108185810D01*
X148329424Y-108188495D01*
X148329423Y-108188495D01*
X148177985Y-108255919D01*
X148177983Y-108255920D01*
X148171955Y-108258604D01*
X148027164Y-108363801D01*
X147907409Y-108496803D01*
X147817923Y-108651797D01*
X147762618Y-108822009D01*
X147743910Y-109000000D01*
X128758500Y-109000000D01*
X128758500Y-107000000D01*
X142543910Y-107000000D01*
X142562618Y-107177991D01*
X142564658Y-107184269D01*
X142564658Y-107184270D01*
X142594989Y-107277620D01*
X142617923Y-107348203D01*
X142707409Y-107503197D01*
X142711827Y-107508104D01*
X142711828Y-107508105D01*
X142807347Y-107614190D01*
X142827164Y-107636199D01*
X142832506Y-107640080D01*
X142832508Y-107640082D01*
X142848086Y-107651400D01*
X142971955Y-107741396D01*
X142977983Y-107744080D01*
X142977985Y-107744081D01*
X143129423Y-107811505D01*
X143135454Y-107814190D01*
X143222984Y-107832795D01*
X143304057Y-107850028D01*
X143304061Y-107850028D01*
X143310514Y-107851400D01*
X143489486Y-107851400D01*
X143495939Y-107850028D01*
X143495943Y-107850028D01*
X143577016Y-107832795D01*
X143664546Y-107814190D01*
X143670577Y-107811505D01*
X143822015Y-107744081D01*
X143822017Y-107744080D01*
X143828045Y-107741396D01*
X143951914Y-107651400D01*
X143967492Y-107640082D01*
X143967494Y-107640080D01*
X143972836Y-107636199D01*
X143992653Y-107614190D01*
X144088172Y-107508105D01*
X144088173Y-107508104D01*
X144092591Y-107503197D01*
X144182077Y-107348203D01*
X144205011Y-107277620D01*
X144235342Y-107184270D01*
X144235342Y-107184269D01*
X144237382Y-107177991D01*
X144256090Y-107000000D01*
X144237382Y-106822009D01*
X144197739Y-106700000D01*
X157443910Y-106700000D01*
X157462618Y-106877991D01*
X157517923Y-107048203D01*
X157607409Y-107203197D01*
X157611827Y-107208104D01*
X157611828Y-107208105D01*
X157697449Y-107303197D01*
X157727164Y-107336199D01*
X157732506Y-107340080D01*
X157732508Y-107340082D01*
X157864802Y-107436199D01*
X157871955Y-107441396D01*
X157877983Y-107444080D01*
X157877985Y-107444081D01*
X158029423Y-107511505D01*
X158035454Y-107514190D01*
X158122984Y-107532795D01*
X158204057Y-107550028D01*
X158204061Y-107550028D01*
X158210514Y-107551400D01*
X158389486Y-107551400D01*
X158395939Y-107550028D01*
X158395943Y-107550028D01*
X158477016Y-107532795D01*
X158564546Y-107514190D01*
X158570577Y-107511505D01*
X158722015Y-107444081D01*
X158722017Y-107444080D01*
X158728045Y-107441396D01*
X158735198Y-107436199D01*
X158867492Y-107340082D01*
X158867494Y-107340080D01*
X158872836Y-107336199D01*
X158902551Y-107303197D01*
X158988172Y-107208105D01*
X158988173Y-107208104D01*
X158992591Y-107203197D01*
X159082077Y-107048203D01*
X159137382Y-106877991D01*
X159145579Y-106800000D01*
X162243910Y-106800000D01*
X162262618Y-106977991D01*
X162317923Y-107148203D01*
X162407409Y-107303197D01*
X162527164Y-107436199D01*
X162532506Y-107440080D01*
X162532508Y-107440082D01*
X162666613Y-107537515D01*
X162671955Y-107541396D01*
X162677983Y-107544080D01*
X162677985Y-107544081D01*
X162694424Y-107551400D01*
X162835454Y-107614190D01*
X162915894Y-107631288D01*
X163004057Y-107650028D01*
X163004061Y-107650028D01*
X163010514Y-107651400D01*
X163189486Y-107651400D01*
X163195939Y-107650028D01*
X163195943Y-107650028D01*
X163284106Y-107631288D01*
X163364546Y-107614190D01*
X163505576Y-107551400D01*
X163522015Y-107544081D01*
X163522017Y-107544080D01*
X163528045Y-107541396D01*
X163533387Y-107537515D01*
X163667492Y-107440082D01*
X163667494Y-107440080D01*
X163672836Y-107436199D01*
X163792591Y-107303197D01*
X163882077Y-107148203D01*
X163937382Y-106977991D01*
X163956090Y-106800000D01*
X163937382Y-106622009D01*
X163882077Y-106451797D01*
X163792591Y-106296803D01*
X163707700Y-106202521D01*
X163677258Y-106168712D01*
X163677257Y-106168711D01*
X163672836Y-106163801D01*
X163653803Y-106149972D01*
X163533387Y-106062485D01*
X163533386Y-106062484D01*
X163528045Y-106058604D01*
X163522017Y-106055920D01*
X163522015Y-106055919D01*
X163370577Y-105988495D01*
X163370576Y-105988495D01*
X163364546Y-105985810D01*
X163277016Y-105967205D01*
X163195943Y-105949972D01*
X163195939Y-105949972D01*
X163189486Y-105948600D01*
X163010514Y-105948600D01*
X163004061Y-105949972D01*
X163004057Y-105949972D01*
X162922984Y-105967205D01*
X162835454Y-105985810D01*
X162829424Y-105988495D01*
X162829423Y-105988495D01*
X162677985Y-106055919D01*
X162677983Y-106055920D01*
X162671955Y-106058604D01*
X162666614Y-106062484D01*
X162666613Y-106062485D01*
X162546198Y-106149972D01*
X162527164Y-106163801D01*
X162522743Y-106168711D01*
X162522742Y-106168712D01*
X162492301Y-106202521D01*
X162407409Y-106296803D01*
X162317923Y-106451797D01*
X162262618Y-106622009D01*
X162243910Y-106800000D01*
X159145579Y-106800000D01*
X159156090Y-106700000D01*
X159137382Y-106522009D01*
X159127598Y-106491895D01*
X159084119Y-106358082D01*
X159082077Y-106351797D01*
X158992591Y-106196803D01*
X158985111Y-106188495D01*
X158877258Y-106068712D01*
X158877257Y-106068711D01*
X158872836Y-106063801D01*
X158861988Y-106055919D01*
X158733387Y-105962485D01*
X158733386Y-105962484D01*
X158728045Y-105958604D01*
X158722017Y-105955920D01*
X158722015Y-105955919D01*
X158570577Y-105888495D01*
X158570576Y-105888495D01*
X158564546Y-105885810D01*
X158477016Y-105867205D01*
X158395943Y-105849972D01*
X158395939Y-105849972D01*
X158389486Y-105848600D01*
X158210514Y-105848600D01*
X158204061Y-105849972D01*
X158204057Y-105849972D01*
X158122984Y-105867205D01*
X158035454Y-105885810D01*
X158029424Y-105888495D01*
X158029423Y-105888495D01*
X157877985Y-105955919D01*
X157877983Y-105955920D01*
X157871955Y-105958604D01*
X157866614Y-105962484D01*
X157866613Y-105962485D01*
X157738013Y-106055919D01*
X157727164Y-106063801D01*
X157722743Y-106068711D01*
X157722742Y-106068712D01*
X157614890Y-106188495D01*
X157607409Y-106196803D01*
X157517923Y-106351797D01*
X157515881Y-106358082D01*
X157472403Y-106491895D01*
X157462618Y-106522009D01*
X157443910Y-106700000D01*
X144197739Y-106700000D01*
X144182077Y-106651797D01*
X144092591Y-106496803D01*
X143972836Y-106363801D01*
X143964965Y-106358082D01*
X143833387Y-106262485D01*
X143833386Y-106262484D01*
X143828045Y-106258604D01*
X143822017Y-106255920D01*
X143822015Y-106255919D01*
X143670577Y-106188495D01*
X143670576Y-106188495D01*
X143664546Y-106185810D01*
X143577016Y-106167205D01*
X143495943Y-106149972D01*
X143495939Y-106149972D01*
X143489486Y-106148600D01*
X143310514Y-106148600D01*
X143304061Y-106149972D01*
X143304057Y-106149972D01*
X143222984Y-106167205D01*
X143135454Y-106185810D01*
X143129424Y-106188495D01*
X143129423Y-106188495D01*
X142977985Y-106255919D01*
X142977983Y-106255920D01*
X142971955Y-106258604D01*
X142966614Y-106262484D01*
X142966613Y-106262485D01*
X142835036Y-106358082D01*
X142827164Y-106363801D01*
X142707409Y-106496803D01*
X142617923Y-106651797D01*
X142562618Y-106822009D01*
X142543910Y-107000000D01*
X128758500Y-107000000D01*
X128758500Y-101000000D01*
X141343910Y-101000000D01*
X141344600Y-101006565D01*
X141352406Y-101080828D01*
X141362618Y-101177991D01*
X141417923Y-101348203D01*
X141507409Y-101503197D01*
X141627164Y-101636199D01*
X141771955Y-101741396D01*
X141777983Y-101744080D01*
X141777985Y-101744081D01*
X141929421Y-101811504D01*
X141935454Y-101814190D01*
X142022984Y-101832795D01*
X142104057Y-101850028D01*
X142104061Y-101850028D01*
X142110514Y-101851400D01*
X142289486Y-101851400D01*
X142295939Y-101850028D01*
X142295943Y-101850028D01*
X142377016Y-101832795D01*
X142464546Y-101814190D01*
X142470573Y-101811507D01*
X142470581Y-101811504D01*
X142548752Y-101776700D01*
X142619119Y-101767266D01*
X142651248Y-101776700D01*
X142729419Y-101811504D01*
X142729427Y-101811507D01*
X142735454Y-101814190D01*
X142822984Y-101832795D01*
X142904057Y-101850028D01*
X142904061Y-101850028D01*
X142910514Y-101851400D01*
X143089486Y-101851400D01*
X143095939Y-101850028D01*
X143095943Y-101850028D01*
X143177016Y-101832795D01*
X143264546Y-101814190D01*
X143270579Y-101811504D01*
X143422015Y-101744081D01*
X143422017Y-101744080D01*
X143428045Y-101741396D01*
X143572836Y-101636199D01*
X143692591Y-101503197D01*
X143782077Y-101348203D01*
X143837382Y-101177991D01*
X143847595Y-101080828D01*
X143855400Y-101006565D01*
X143856090Y-101000000D01*
X143855400Y-100993435D01*
X143840128Y-100848134D01*
X155491500Y-100848134D01*
X155498255Y-100910316D01*
X155549385Y-101046705D01*
X155636739Y-101163261D01*
X155753295Y-101250615D01*
X155889684Y-101301745D01*
X155951866Y-101308500D01*
X157848134Y-101308500D01*
X157910316Y-101301745D01*
X158046705Y-101250615D01*
X158163261Y-101163261D01*
X158250615Y-101046705D01*
X158301745Y-100910316D01*
X158308500Y-100848134D01*
X158308500Y-99757340D01*
X161292000Y-99757340D01*
X161292225Y-99762649D01*
X161306660Y-99932771D01*
X161308452Y-99943259D01*
X161365801Y-100164211D01*
X161369333Y-100174239D01*
X161463085Y-100382363D01*
X161468265Y-100391669D01*
X161595747Y-100581024D01*
X161602406Y-100589307D01*
X161759971Y-100754478D01*
X161767942Y-100761530D01*
X161951082Y-100897790D01*
X161960119Y-100903394D01*
X162163606Y-101006851D01*
X162173459Y-101010852D01*
X162391461Y-101078544D01*
X162401848Y-101080828D01*
X162428043Y-101084300D01*
X162442207Y-101082104D01*
X162446000Y-101068919D01*
X162446000Y-101067282D01*
X162954000Y-101067282D01*
X162957973Y-101080813D01*
X162968580Y-101082338D01*
X163100840Y-101054587D01*
X163111037Y-101051527D01*
X163323340Y-100967685D01*
X163332876Y-100962951D01*
X163528025Y-100844532D01*
X163536618Y-100838266D01*
X163709027Y-100688658D01*
X163716447Y-100681028D01*
X163861180Y-100504512D01*
X163867206Y-100495745D01*
X163980129Y-100297367D01*
X163984595Y-100287703D01*
X164062481Y-100073132D01*
X164065251Y-100062865D01*
X164106081Y-99837068D01*
X164107016Y-99828838D01*
X164107930Y-99809450D01*
X164108000Y-99806474D01*
X164108000Y-98872115D01*
X164103525Y-98856876D01*
X164102135Y-98855671D01*
X164094452Y-98854000D01*
X162972115Y-98854000D01*
X162956876Y-98858475D01*
X162955671Y-98859865D01*
X162954000Y-98867548D01*
X162954000Y-101067282D01*
X162446000Y-101067282D01*
X162446000Y-98872115D01*
X162441525Y-98856876D01*
X162440135Y-98855671D01*
X162432452Y-98854000D01*
X161310115Y-98854000D01*
X161294876Y-98858475D01*
X161293671Y-98859865D01*
X161292000Y-98867548D01*
X161292000Y-99757340D01*
X158308500Y-99757340D01*
X158308500Y-98327885D01*
X161292000Y-98327885D01*
X161296475Y-98343124D01*
X161297865Y-98344329D01*
X161305548Y-98346000D01*
X162427885Y-98346000D01*
X162443124Y-98341525D01*
X162444329Y-98340135D01*
X162446000Y-98332452D01*
X162446000Y-98327885D01*
X162954000Y-98327885D01*
X162958475Y-98343124D01*
X162959865Y-98344329D01*
X162967548Y-98346000D01*
X164089885Y-98346000D01*
X164105124Y-98341525D01*
X164106329Y-98340135D01*
X164108000Y-98332452D01*
X164108000Y-97442660D01*
X164107775Y-97437351D01*
X164093340Y-97267229D01*
X164091548Y-97256741D01*
X164034199Y-97035789D01*
X164030667Y-97025761D01*
X163936915Y-96817637D01*
X163931735Y-96808331D01*
X163804253Y-96618976D01*
X163797594Y-96610693D01*
X163640029Y-96445522D01*
X163632058Y-96438470D01*
X163448918Y-96302210D01*
X163439881Y-96296606D01*
X163236394Y-96193149D01*
X163226541Y-96189148D01*
X163008539Y-96121456D01*
X162998152Y-96119172D01*
X162971957Y-96115700D01*
X162957793Y-96117896D01*
X162954000Y-96131081D01*
X162954000Y-98327885D01*
X162446000Y-98327885D01*
X162446000Y-96132718D01*
X162442027Y-96119187D01*
X162431420Y-96117662D01*
X162299160Y-96145413D01*
X162288963Y-96148473D01*
X162076660Y-96232315D01*
X162067124Y-96237049D01*
X161871975Y-96355468D01*
X161863382Y-96361734D01*
X161690973Y-96511342D01*
X161683553Y-96518972D01*
X161538820Y-96695488D01*
X161532794Y-96704255D01*
X161419871Y-96902633D01*
X161415405Y-96912297D01*
X161337519Y-97126868D01*
X161334749Y-97137135D01*
X161293919Y-97362932D01*
X161292984Y-97371162D01*
X161292070Y-97390550D01*
X161292000Y-97393526D01*
X161292000Y-98327885D01*
X158308500Y-98327885D01*
X158308500Y-96351866D01*
X158301745Y-96289684D01*
X158250615Y-96153295D01*
X158163261Y-96036739D01*
X158046705Y-95949385D01*
X157910316Y-95898255D01*
X157848134Y-95891500D01*
X155951866Y-95891500D01*
X155889684Y-95898255D01*
X155753295Y-95949385D01*
X155636739Y-96036739D01*
X155549385Y-96153295D01*
X155498255Y-96289684D01*
X155491500Y-96351866D01*
X155491500Y-100848134D01*
X143840128Y-100848134D01*
X143838072Y-100828573D01*
X143838072Y-100828572D01*
X143837382Y-100822009D01*
X143782077Y-100651797D01*
X143780870Y-100649707D01*
X143771643Y-100580881D01*
X143780370Y-100551159D01*
X143782077Y-100548203D01*
X143837382Y-100377991D01*
X143856090Y-100200000D01*
X143837382Y-100022009D01*
X143782077Y-99851797D01*
X143780870Y-99849707D01*
X143771643Y-99780881D01*
X143780370Y-99751159D01*
X143782077Y-99748203D01*
X143829917Y-99600968D01*
X143835342Y-99584270D01*
X143835342Y-99584269D01*
X143837382Y-99577991D01*
X143856090Y-99400000D01*
X143837382Y-99222009D01*
X143782077Y-99051797D01*
X143692591Y-98896803D01*
X143658081Y-98858475D01*
X143577258Y-98768712D01*
X143577257Y-98768711D01*
X143572836Y-98763801D01*
X143428045Y-98658604D01*
X143422017Y-98655920D01*
X143422015Y-98655919D01*
X143270577Y-98588495D01*
X143270576Y-98588495D01*
X143264546Y-98585810D01*
X143177016Y-98567205D01*
X143095943Y-98549972D01*
X143095939Y-98549972D01*
X143089486Y-98548600D01*
X142910514Y-98548600D01*
X142904061Y-98549972D01*
X142904057Y-98549972D01*
X142822984Y-98567205D01*
X142735454Y-98585810D01*
X142729427Y-98588493D01*
X142729419Y-98588496D01*
X142651248Y-98623300D01*
X142580881Y-98632734D01*
X142548752Y-98623300D01*
X142470581Y-98588496D01*
X142470573Y-98588493D01*
X142464546Y-98585810D01*
X142377016Y-98567205D01*
X142295943Y-98549972D01*
X142295939Y-98549972D01*
X142289486Y-98548600D01*
X142110514Y-98548600D01*
X142104061Y-98549972D01*
X142104057Y-98549972D01*
X142022984Y-98567205D01*
X141935454Y-98585810D01*
X141929424Y-98588495D01*
X141929423Y-98588495D01*
X141777985Y-98655919D01*
X141777983Y-98655920D01*
X141771955Y-98658604D01*
X141627164Y-98763801D01*
X141622743Y-98768711D01*
X141622742Y-98768712D01*
X141541920Y-98858475D01*
X141507409Y-98896803D01*
X141417923Y-99051797D01*
X141362618Y-99222009D01*
X141343910Y-99400000D01*
X141362618Y-99577991D01*
X141364658Y-99584269D01*
X141364658Y-99584270D01*
X141370084Y-99600968D01*
X141417923Y-99748203D01*
X141419130Y-99750293D01*
X141428357Y-99819119D01*
X141419630Y-99848841D01*
X141417923Y-99851797D01*
X141362618Y-100022009D01*
X141343910Y-100200000D01*
X141362618Y-100377991D01*
X141417923Y-100548203D01*
X141419130Y-100550293D01*
X141428357Y-100619119D01*
X141419630Y-100648841D01*
X141417923Y-100651797D01*
X141362618Y-100822009D01*
X141361928Y-100828572D01*
X141361928Y-100828573D01*
X141344600Y-100993435D01*
X141343910Y-101000000D01*
X128758500Y-101000000D01*
X128758500Y-98558918D01*
X130236917Y-98558918D01*
X130252682Y-98832320D01*
X130253507Y-98836525D01*
X130253508Y-98836533D01*
X130283917Y-98991526D01*
X130305405Y-99101053D01*
X130306792Y-99105103D01*
X130306793Y-99105108D01*
X130349065Y-99228573D01*
X130394112Y-99360144D01*
X130517160Y-99604799D01*
X130519586Y-99608328D01*
X130519589Y-99608334D01*
X130664459Y-99819119D01*
X130672274Y-99830490D01*
X130856582Y-100033043D01*
X131066675Y-100208707D01*
X131070316Y-100210991D01*
X131295024Y-100351951D01*
X131295028Y-100351953D01*
X131298664Y-100354234D01*
X131365186Y-100384270D01*
X131544345Y-100465164D01*
X131544349Y-100465166D01*
X131548257Y-100466930D01*
X131552377Y-100468150D01*
X131552376Y-100468150D01*
X131806723Y-100543491D01*
X131806727Y-100543492D01*
X131810836Y-100544709D01*
X131815070Y-100545357D01*
X131815075Y-100545358D01*
X132077298Y-100585483D01*
X132077300Y-100585483D01*
X132081540Y-100586132D01*
X132220912Y-100588322D01*
X132351071Y-100590367D01*
X132351077Y-100590367D01*
X132355362Y-100590434D01*
X132627235Y-100557534D01*
X132892127Y-100488041D01*
X132896087Y-100486401D01*
X132896092Y-100486399D01*
X133018632Y-100435641D01*
X133145136Y-100383241D01*
X133381582Y-100245073D01*
X133597089Y-100076094D01*
X133638809Y-100033043D01*
X133784686Y-99882509D01*
X133787669Y-99879431D01*
X133790202Y-99875983D01*
X133790206Y-99875978D01*
X133947257Y-99662178D01*
X133949795Y-99658723D01*
X133977154Y-99608334D01*
X134078418Y-99421830D01*
X134078419Y-99421828D01*
X134080468Y-99418054D01*
X134177269Y-99161877D01*
X134238407Y-98894933D01*
X134240444Y-98872115D01*
X134262531Y-98624627D01*
X134262531Y-98624625D01*
X134262751Y-98622161D01*
X134263147Y-98584438D01*
X134263167Y-98582484D01*
X134263167Y-98582483D01*
X134263193Y-98580000D01*
X134261146Y-98549972D01*
X134244859Y-98311055D01*
X134244858Y-98311049D01*
X134244567Y-98306778D01*
X134189032Y-98038612D01*
X134097617Y-97780465D01*
X133972013Y-97537112D01*
X133962040Y-97522921D01*
X133855382Y-97371162D01*
X133814545Y-97313057D01*
X133744466Y-97237643D01*
X133631046Y-97115588D01*
X133631043Y-97115585D01*
X133628125Y-97112445D01*
X133624810Y-97109731D01*
X133624806Y-97109728D01*
X133419523Y-96941706D01*
X133416205Y-96938990D01*
X133182704Y-96795901D01*
X133178768Y-96794173D01*
X132935873Y-96687549D01*
X132935869Y-96687548D01*
X132931945Y-96685825D01*
X132668566Y-96610800D01*
X132664324Y-96610196D01*
X132664318Y-96610195D01*
X132463834Y-96581662D01*
X132397443Y-96572213D01*
X132253589Y-96571460D01*
X132127877Y-96570802D01*
X132127871Y-96570802D01*
X132123591Y-96570780D01*
X132119347Y-96571339D01*
X132119343Y-96571339D01*
X132000302Y-96587011D01*
X131852078Y-96606525D01*
X131847938Y-96607658D01*
X131847936Y-96607658D01*
X131775008Y-96627609D01*
X131587928Y-96678788D01*
X131583980Y-96680472D01*
X131339982Y-96784546D01*
X131339978Y-96784548D01*
X131336030Y-96786232D01*
X131283556Y-96817637D01*
X131104725Y-96924664D01*
X131104721Y-96924667D01*
X131101043Y-96926868D01*
X130887318Y-97098094D01*
X130775964Y-97215436D01*
X130736768Y-97256741D01*
X130698808Y-97296742D01*
X130539002Y-97519136D01*
X130410857Y-97761161D01*
X130409385Y-97765184D01*
X130409383Y-97765188D01*
X130402314Y-97784506D01*
X130316743Y-98018337D01*
X130258404Y-98285907D01*
X130236917Y-98558918D01*
X128758500Y-98558918D01*
X128758500Y-95048134D01*
X130241500Y-95048134D01*
X130248255Y-95110316D01*
X130299385Y-95246705D01*
X130386739Y-95363261D01*
X130503295Y-95450615D01*
X130639684Y-95501745D01*
X130701866Y-95508500D01*
X133798134Y-95508500D01*
X133860316Y-95501745D01*
X133996705Y-95450615D01*
X134113261Y-95363261D01*
X134200615Y-95246705D01*
X134251745Y-95110316D01*
X134258500Y-95048134D01*
X134258500Y-94068580D01*
X157417662Y-94068580D01*
X157445413Y-94200840D01*
X157448473Y-94211037D01*
X157532315Y-94423340D01*
X157537049Y-94432876D01*
X157655468Y-94628025D01*
X157661734Y-94636618D01*
X157811342Y-94809027D01*
X157818972Y-94816447D01*
X157995488Y-94961180D01*
X158004255Y-94967206D01*
X158202633Y-95080129D01*
X158212297Y-95084595D01*
X158426868Y-95162481D01*
X158437135Y-95165251D01*
X158662932Y-95206081D01*
X158671162Y-95207016D01*
X158690550Y-95207930D01*
X158693526Y-95208000D01*
X159627885Y-95208000D01*
X159643124Y-95203525D01*
X159644329Y-95202135D01*
X159646000Y-95194452D01*
X159646000Y-95189885D01*
X160154000Y-95189885D01*
X160158475Y-95205124D01*
X160159865Y-95206329D01*
X160167548Y-95208000D01*
X161057340Y-95208000D01*
X161062649Y-95207775D01*
X161232771Y-95193340D01*
X161243259Y-95191548D01*
X161464211Y-95134199D01*
X161474239Y-95130667D01*
X161682363Y-95036915D01*
X161691669Y-95031735D01*
X161881024Y-94904253D01*
X161889307Y-94897594D01*
X162054478Y-94740029D01*
X162061530Y-94732058D01*
X162197790Y-94548918D01*
X162203394Y-94539881D01*
X162306851Y-94336394D01*
X162310852Y-94326541D01*
X162378544Y-94108539D01*
X162380828Y-94098152D01*
X162384300Y-94071957D01*
X162382104Y-94057793D01*
X162368919Y-94054000D01*
X160172115Y-94054000D01*
X160156876Y-94058475D01*
X160155671Y-94059865D01*
X160154000Y-94067548D01*
X160154000Y-95189885D01*
X159646000Y-95189885D01*
X159646000Y-94072115D01*
X159641525Y-94056876D01*
X159640135Y-94055671D01*
X159632452Y-94054000D01*
X157432718Y-94054000D01*
X157419187Y-94057973D01*
X157417662Y-94068580D01*
X134258500Y-94068580D01*
X134258500Y-93528043D01*
X157415700Y-93528043D01*
X157417896Y-93542207D01*
X157431081Y-93546000D01*
X159627885Y-93546000D01*
X159643124Y-93541525D01*
X159644329Y-93540135D01*
X159646000Y-93532452D01*
X159646000Y-93527885D01*
X160154000Y-93527885D01*
X160158475Y-93543124D01*
X160159865Y-93544329D01*
X160167548Y-93546000D01*
X162367282Y-93546000D01*
X162380813Y-93542027D01*
X162382338Y-93531420D01*
X162354587Y-93399160D01*
X162351527Y-93388963D01*
X162267685Y-93176660D01*
X162262951Y-93167124D01*
X162144532Y-92971975D01*
X162138266Y-92963382D01*
X161988658Y-92790973D01*
X161981028Y-92783553D01*
X161804512Y-92638820D01*
X161795745Y-92632794D01*
X161597367Y-92519871D01*
X161587703Y-92515405D01*
X161373132Y-92437519D01*
X161362865Y-92434749D01*
X161137068Y-92393919D01*
X161128838Y-92392984D01*
X161109450Y-92392070D01*
X161106474Y-92392000D01*
X160172115Y-92392000D01*
X160156876Y-92396475D01*
X160155671Y-92397865D01*
X160154000Y-92405548D01*
X160154000Y-93527885D01*
X159646000Y-93527885D01*
X159646000Y-92410115D01*
X159641525Y-92394876D01*
X159640135Y-92393671D01*
X159632452Y-92392000D01*
X158742660Y-92392000D01*
X158737351Y-92392225D01*
X158567229Y-92406660D01*
X158556741Y-92408452D01*
X158335789Y-92465801D01*
X158325761Y-92469333D01*
X158117637Y-92563085D01*
X158108331Y-92568265D01*
X157918976Y-92695747D01*
X157910693Y-92702406D01*
X157745522Y-92859971D01*
X157738470Y-92867942D01*
X157602210Y-93051082D01*
X157596606Y-93060119D01*
X157493149Y-93263606D01*
X157489148Y-93273459D01*
X157421456Y-93491461D01*
X157419172Y-93501848D01*
X157415700Y-93528043D01*
X134258500Y-93528043D01*
X134258500Y-91951866D01*
X134251745Y-91889684D01*
X134200615Y-91753295D01*
X134113261Y-91636739D01*
X133996705Y-91549385D01*
X133860316Y-91498255D01*
X133798134Y-91491500D01*
X130701866Y-91491500D01*
X130639684Y-91498255D01*
X130503295Y-91549385D01*
X130386739Y-91636739D01*
X130299385Y-91753295D01*
X130248255Y-91889684D01*
X130241500Y-91951866D01*
X130241500Y-95048134D01*
X128758500Y-95048134D01*
X128758500Y-90836630D01*
X137642482Y-90836630D01*
X137642998Y-90842774D01*
X137653105Y-90963129D01*
X137658121Y-91022867D01*
X137709636Y-91202520D01*
X137795064Y-91368746D01*
X137798887Y-91373570D01*
X137798890Y-91373574D01*
X137866434Y-91458792D01*
X137911152Y-91515212D01*
X137915846Y-91519207D01*
X138038677Y-91623745D01*
X138053478Y-91636342D01*
X138216621Y-91727519D01*
X138394367Y-91785272D01*
X138576334Y-91806970D01*
X138576336Y-91806971D01*
X138579945Y-91807401D01*
X138579863Y-91808087D01*
X138643191Y-91828128D01*
X138688552Y-91882744D01*
X138693987Y-91897947D01*
X138709636Y-91952520D01*
X138730663Y-91993435D01*
X138755100Y-92040983D01*
X138795064Y-92118746D01*
X138798887Y-92123570D01*
X138798890Y-92123574D01*
X138841730Y-92177624D01*
X138911152Y-92265212D01*
X138915846Y-92269207D01*
X139040409Y-92375219D01*
X139053478Y-92386342D01*
X139216621Y-92477519D01*
X139394367Y-92535272D01*
X139579945Y-92557401D01*
X139586080Y-92556929D01*
X139586082Y-92556929D01*
X139642119Y-92552617D01*
X139766287Y-92543063D01*
X139772215Y-92541408D01*
X139772220Y-92541407D01*
X139815475Y-92529330D01*
X139886465Y-92530277D01*
X139945674Y-92569453D01*
X139970477Y-92615958D01*
X139997085Y-92708749D01*
X140009636Y-92752520D01*
X140095064Y-92918746D01*
X140098887Y-92923570D01*
X140098890Y-92923574D01*
X140187152Y-93034932D01*
X140211152Y-93065212D01*
X140215846Y-93069207D01*
X140248819Y-93097269D01*
X140353478Y-93186342D01*
X140516621Y-93277519D01*
X140694367Y-93335272D01*
X140879945Y-93357401D01*
X140886080Y-93356929D01*
X140886082Y-93356929D01*
X140942119Y-93352617D01*
X141066287Y-93343063D01*
X141246296Y-93292804D01*
X141251785Y-93290031D01*
X141251791Y-93290029D01*
X141329159Y-93250947D01*
X141413114Y-93208538D01*
X141441524Y-93186342D01*
X141536690Y-93111989D01*
X141560387Y-93093475D01*
X141564413Y-93088811D01*
X141564416Y-93088808D01*
X141610920Y-93034932D01*
X143928235Y-93034932D01*
X143931018Y-93038650D01*
X144062854Y-93087679D01*
X144076445Y-93091068D01*
X144231041Y-93111695D01*
X144245037Y-93111989D01*
X144400357Y-93097853D01*
X144414082Y-93095036D01*
X144562412Y-93046841D01*
X144571052Y-93042922D01*
X144579427Y-93033889D01*
X144575922Y-93025476D01*
X144266809Y-92716363D01*
X144252865Y-92708749D01*
X144251030Y-92708880D01*
X144244420Y-92713128D01*
X143934994Y-93022553D01*
X143928235Y-93034932D01*
X141610920Y-93034932D01*
X141665263Y-92971975D01*
X141682507Y-92951998D01*
X141760013Y-92815562D01*
X141771778Y-92794852D01*
X141771779Y-92794851D01*
X141774821Y-92789495D01*
X141789091Y-92746600D01*
X141820815Y-92651232D01*
X141833814Y-92612157D01*
X141843527Y-92535272D01*
X141856796Y-92430241D01*
X141856797Y-92430232D01*
X141857238Y-92426738D01*
X141857611Y-92400000D01*
X141852352Y-92346361D01*
X143491964Y-92346361D01*
X143507184Y-92501584D01*
X143510095Y-92515279D01*
X143559326Y-92663273D01*
X143561725Y-92668465D01*
X143569717Y-92675772D01*
X143578334Y-92672111D01*
X143887637Y-92362807D01*
X143894014Y-92351129D01*
X144612746Y-92351129D01*
X144612878Y-92352965D01*
X144617127Y-92359577D01*
X144926175Y-92668626D01*
X144938554Y-92675385D01*
X144942370Y-92672528D01*
X144990325Y-92546284D01*
X144993807Y-92532723D01*
X145015944Y-92375219D01*
X145016550Y-92367336D01*
X145016737Y-92353961D01*
X145016350Y-92346061D01*
X144998621Y-92188002D01*
X144995519Y-92174349D01*
X144944696Y-92028406D01*
X144939137Y-92023465D01*
X144930087Y-92027460D01*
X144620357Y-92337191D01*
X144612746Y-92351129D01*
X143894014Y-92351129D01*
X143895248Y-92348869D01*
X143895116Y-92347033D01*
X143890867Y-92340421D01*
X143581036Y-92030589D01*
X143568657Y-92023830D01*
X143565036Y-92026541D01*
X143514999Y-92164015D01*
X143511707Y-92177624D01*
X143492160Y-92332355D01*
X143491964Y-92346361D01*
X141852352Y-92346361D01*
X141839373Y-92213999D01*
X141785355Y-92035083D01*
X141697615Y-91870066D01*
X141663411Y-91828128D01*
X141583388Y-91730010D01*
X141583385Y-91730007D01*
X141579493Y-91725235D01*
X141574744Y-91721306D01*
X141507047Y-91665302D01*
X143927856Y-91665302D01*
X143931680Y-91674131D01*
X144241189Y-91983639D01*
X144255127Y-91991250D01*
X144256963Y-91991118D01*
X144263575Y-91986869D01*
X144573846Y-91676599D01*
X144580605Y-91664220D01*
X144578020Y-91660766D01*
X144577720Y-91660606D01*
X144434817Y-91609720D01*
X144421192Y-91606524D01*
X144266315Y-91588057D01*
X144252318Y-91587959D01*
X144097206Y-91604261D01*
X144083527Y-91607269D01*
X143935882Y-91657531D01*
X143934111Y-91658365D01*
X143927856Y-91665302D01*
X141507047Y-91665302D01*
X141440239Y-91610034D01*
X141440236Y-91610032D01*
X141435489Y-91606105D01*
X141271089Y-91517214D01*
X141181822Y-91489581D01*
X141098441Y-91463770D01*
X141098438Y-91463769D01*
X141092554Y-91461948D01*
X141086429Y-91461304D01*
X141086428Y-91461304D01*
X140912813Y-91443056D01*
X140912812Y-91443056D01*
X140906685Y-91442412D01*
X140829709Y-91449418D01*
X140726701Y-91458792D01*
X140726698Y-91458793D01*
X140720562Y-91459351D01*
X140714652Y-91461090D01*
X140714649Y-91461091D01*
X140686766Y-91469297D01*
X140615769Y-91469341D01*
X140556019Y-91430995D01*
X140530570Y-91384841D01*
X140500406Y-91284933D01*
X143178234Y-91284933D01*
X143181017Y-91288651D01*
X143312853Y-91337680D01*
X143326444Y-91341069D01*
X143481040Y-91361696D01*
X143495036Y-91361990D01*
X143650356Y-91347854D01*
X143664081Y-91345037D01*
X143812411Y-91296842D01*
X143821051Y-91292923D01*
X143828459Y-91284933D01*
X144678236Y-91284933D01*
X144681019Y-91288651D01*
X144812855Y-91337680D01*
X144826446Y-91341069D01*
X144981042Y-91361696D01*
X144995038Y-91361990D01*
X145150358Y-91347854D01*
X145164083Y-91345037D01*
X145312413Y-91296842D01*
X145321053Y-91292923D01*
X145329428Y-91283890D01*
X145325923Y-91275477D01*
X145016810Y-90966364D01*
X145002866Y-90958750D01*
X145001031Y-90958881D01*
X144994421Y-90963129D01*
X144684995Y-91272554D01*
X144678236Y-91284933D01*
X143828459Y-91284933D01*
X143829426Y-91283890D01*
X143825921Y-91275477D01*
X143516808Y-90966364D01*
X143502864Y-90958750D01*
X143501029Y-90958881D01*
X143494419Y-90963129D01*
X143184993Y-91272554D01*
X143178234Y-91284933D01*
X140500406Y-91284933D01*
X140487136Y-91240983D01*
X140485355Y-91235083D01*
X140397615Y-91070066D01*
X140363950Y-91028789D01*
X140283388Y-90930010D01*
X140283385Y-90930007D01*
X140279493Y-90925235D01*
X140274744Y-90921306D01*
X140140239Y-90810034D01*
X140140236Y-90810032D01*
X140135489Y-90806105D01*
X139971089Y-90717214D01*
X139881822Y-90689581D01*
X139798441Y-90663770D01*
X139798438Y-90663769D01*
X139792554Y-90661948D01*
X139786429Y-90661304D01*
X139786428Y-90661304D01*
X139613691Y-90643148D01*
X139548034Y-90616134D01*
X139534679Y-90596362D01*
X142741963Y-90596362D01*
X142757183Y-90751585D01*
X142760094Y-90765280D01*
X142809325Y-90913274D01*
X142811724Y-90918466D01*
X142819716Y-90925773D01*
X142828333Y-90922112D01*
X143137636Y-90612808D01*
X143144013Y-90601130D01*
X143862745Y-90601130D01*
X143862877Y-90602966D01*
X143867126Y-90609578D01*
X144176174Y-90918627D01*
X144190117Y-90926240D01*
X144199853Y-90925544D01*
X144243427Y-90909290D01*
X144312801Y-90924380D01*
X144314987Y-90925941D01*
X144318077Y-90926470D01*
X144328335Y-90922112D01*
X144637638Y-90612808D01*
X144644015Y-90601130D01*
X145362747Y-90601130D01*
X145362879Y-90602966D01*
X145367128Y-90609578D01*
X145676176Y-90918627D01*
X145688555Y-90925386D01*
X145692371Y-90922529D01*
X145740326Y-90796285D01*
X145743808Y-90782724D01*
X145765945Y-90625220D01*
X145766551Y-90617337D01*
X145766738Y-90603962D01*
X145766351Y-90596062D01*
X145748622Y-90438003D01*
X145745520Y-90424350D01*
X145694697Y-90278407D01*
X145689138Y-90273466D01*
X145680088Y-90277461D01*
X145370358Y-90587192D01*
X145362747Y-90601130D01*
X144644015Y-90601130D01*
X144645249Y-90598870D01*
X144645117Y-90597034D01*
X144640868Y-90590422D01*
X144331037Y-90280590D01*
X144317094Y-90272977D01*
X144306592Y-90273728D01*
X144264393Y-90289467D01*
X144195019Y-90274375D01*
X144193261Y-90273138D01*
X144190765Y-90272747D01*
X144180086Y-90277461D01*
X143870356Y-90587192D01*
X143862745Y-90601130D01*
X143144013Y-90601130D01*
X143145247Y-90598870D01*
X143145115Y-90597034D01*
X143140866Y-90590422D01*
X142831035Y-90280590D01*
X142818656Y-90273831D01*
X142815035Y-90276542D01*
X142764998Y-90414016D01*
X142761706Y-90427625D01*
X142742159Y-90582356D01*
X142741963Y-90596362D01*
X139534679Y-90596362D01*
X139506240Y-90554257D01*
X139503396Y-90544838D01*
X139485355Y-90485083D01*
X139397615Y-90320066D01*
X139362867Y-90277461D01*
X139283388Y-90180010D01*
X139283385Y-90180007D01*
X139279493Y-90175235D01*
X139274744Y-90171306D01*
X139140239Y-90060034D01*
X139140236Y-90060032D01*
X139135489Y-90056105D01*
X138971089Y-89967214D01*
X138839887Y-89926600D01*
X138803393Y-89915303D01*
X143177855Y-89915303D01*
X143181679Y-89924132D01*
X143491188Y-90233640D01*
X143505126Y-90241251D01*
X143506962Y-90241119D01*
X143513574Y-90236870D01*
X143823845Y-89926600D01*
X143830013Y-89915303D01*
X144677857Y-89915303D01*
X144681681Y-89924132D01*
X144991190Y-90233640D01*
X145005128Y-90241251D01*
X145006964Y-90241119D01*
X145013576Y-90236870D01*
X145323847Y-89926600D01*
X145330606Y-89914221D01*
X145328021Y-89910767D01*
X145327721Y-89910607D01*
X145184818Y-89859721D01*
X145171193Y-89856525D01*
X145016316Y-89838058D01*
X145002319Y-89837960D01*
X144847207Y-89854262D01*
X144833528Y-89857270D01*
X144685883Y-89907532D01*
X144684112Y-89908366D01*
X144677857Y-89915303D01*
X143830013Y-89915303D01*
X143830604Y-89914221D01*
X143828019Y-89910767D01*
X143827719Y-89910607D01*
X143684816Y-89859721D01*
X143671191Y-89856525D01*
X143516314Y-89838058D01*
X143502317Y-89837960D01*
X143347205Y-89854262D01*
X143333526Y-89857270D01*
X143185881Y-89907532D01*
X143184110Y-89908366D01*
X143177855Y-89915303D01*
X138803393Y-89915303D01*
X138798441Y-89913770D01*
X138798438Y-89913769D01*
X138792554Y-89911948D01*
X138786429Y-89911304D01*
X138786428Y-89911304D01*
X138612813Y-89893056D01*
X138612812Y-89893056D01*
X138606685Y-89892412D01*
X138488087Y-89903206D01*
X138426703Y-89908792D01*
X138426702Y-89908792D01*
X138420562Y-89909351D01*
X138414648Y-89911092D01*
X138414646Y-89911092D01*
X138361955Y-89926600D01*
X138241273Y-89962119D01*
X138075647Y-90048705D01*
X137929995Y-90165813D01*
X137809862Y-90308981D01*
X137806899Y-90314370D01*
X137806896Y-90314375D01*
X137752119Y-90414016D01*
X137719826Y-90472757D01*
X137663315Y-90650901D01*
X137642482Y-90836630D01*
X128758500Y-90836630D01*
X128758500Y-87478918D01*
X130236917Y-87478918D01*
X130252682Y-87752320D01*
X130253507Y-87756525D01*
X130253508Y-87756533D01*
X130264127Y-87810657D01*
X130305405Y-88021053D01*
X130306792Y-88025103D01*
X130306793Y-88025108D01*
X130376826Y-88229657D01*
X130394112Y-88280144D01*
X130517160Y-88524799D01*
X130519586Y-88528328D01*
X130519589Y-88528334D01*
X130646952Y-88713646D01*
X130672274Y-88750490D01*
X130675161Y-88753663D01*
X130675162Y-88753664D01*
X130804823Y-88896160D01*
X130856582Y-88953043D01*
X131066675Y-89128707D01*
X131070316Y-89130991D01*
X131295024Y-89271951D01*
X131295028Y-89271953D01*
X131298664Y-89274234D01*
X131366544Y-89304883D01*
X131544345Y-89385164D01*
X131544349Y-89385166D01*
X131548257Y-89386930D01*
X131552377Y-89388150D01*
X131552376Y-89388150D01*
X131806723Y-89463491D01*
X131806727Y-89463492D01*
X131810836Y-89464709D01*
X131815070Y-89465357D01*
X131815075Y-89465358D01*
X132077298Y-89505483D01*
X132077300Y-89505483D01*
X132081540Y-89506132D01*
X132220912Y-89508322D01*
X132351071Y-89510367D01*
X132351077Y-89510367D01*
X132355362Y-89510434D01*
X132627235Y-89477534D01*
X132892127Y-89408041D01*
X132896087Y-89406401D01*
X132896092Y-89406399D01*
X133018631Y-89355641D01*
X133145136Y-89303241D01*
X133306836Y-89208751D01*
X133377879Y-89167237D01*
X133377880Y-89167236D01*
X133381582Y-89165073D01*
X133597089Y-88996094D01*
X133638809Y-88953043D01*
X133703509Y-88886277D01*
X139742835Y-88886277D01*
X139743351Y-88892421D01*
X139756272Y-89046286D01*
X139758474Y-89072514D01*
X139809989Y-89252167D01*
X139895417Y-89418393D01*
X139899240Y-89423217D01*
X139899243Y-89423221D01*
X139994119Y-89542924D01*
X140011505Y-89564859D01*
X140016199Y-89568854D01*
X140049172Y-89596916D01*
X140153831Y-89685989D01*
X140316974Y-89777166D01*
X140494720Y-89834919D01*
X140680298Y-89857048D01*
X140686433Y-89856576D01*
X140686435Y-89856576D01*
X140742472Y-89852264D01*
X140866640Y-89842710D01*
X141046649Y-89792451D01*
X141052138Y-89789678D01*
X141052144Y-89789676D01*
X141129512Y-89750594D01*
X141213467Y-89708185D01*
X141241877Y-89685989D01*
X141265839Y-89667268D01*
X141360740Y-89593122D01*
X141364766Y-89588458D01*
X141364769Y-89588455D01*
X141410967Y-89534934D01*
X143928235Y-89534934D01*
X143931018Y-89538652D01*
X144062854Y-89587681D01*
X144076445Y-89591070D01*
X144231041Y-89611697D01*
X144245037Y-89611991D01*
X144400357Y-89597855D01*
X144414082Y-89595038D01*
X144562412Y-89546843D01*
X144571052Y-89542924D01*
X144579427Y-89533891D01*
X144575922Y-89525478D01*
X144266809Y-89216365D01*
X144252865Y-89208751D01*
X144251030Y-89208882D01*
X144244420Y-89213130D01*
X143934994Y-89522555D01*
X143928235Y-89534934D01*
X141410967Y-89534934D01*
X141478833Y-89456310D01*
X141482860Y-89451645D01*
X141575174Y-89289142D01*
X141580134Y-89274234D01*
X141612887Y-89175774D01*
X141634167Y-89111804D01*
X141648785Y-88996094D01*
X141657149Y-88929888D01*
X141657150Y-88929879D01*
X141657591Y-88926385D01*
X141657964Y-88899647D01*
X141652739Y-88846363D01*
X143491964Y-88846363D01*
X143507184Y-89001586D01*
X143510095Y-89015281D01*
X143559326Y-89163275D01*
X143561725Y-89168467D01*
X143569717Y-89175774D01*
X143578334Y-89172113D01*
X143887637Y-88862809D01*
X143894014Y-88851131D01*
X144612746Y-88851131D01*
X144612878Y-88852967D01*
X144617127Y-88859579D01*
X144926175Y-89168628D01*
X144938554Y-89175387D01*
X144942370Y-89172530D01*
X144990325Y-89046286D01*
X144993807Y-89032725D01*
X145015944Y-88875221D01*
X145016550Y-88867338D01*
X145016737Y-88853963D01*
X145016350Y-88846063D01*
X144998621Y-88688004D01*
X144995519Y-88674351D01*
X144944696Y-88528408D01*
X144939137Y-88523467D01*
X144930087Y-88527462D01*
X144620357Y-88837193D01*
X144612746Y-88851131D01*
X143894014Y-88851131D01*
X143895248Y-88848871D01*
X143895116Y-88847035D01*
X143890867Y-88840423D01*
X143581036Y-88530591D01*
X143568657Y-88523832D01*
X143565036Y-88526543D01*
X143514999Y-88664017D01*
X143511707Y-88677626D01*
X143492160Y-88832357D01*
X143491964Y-88846363D01*
X141652739Y-88846363D01*
X141639726Y-88713646D01*
X141635772Y-88700548D01*
X141598990Y-88578723D01*
X141585708Y-88534730D01*
X141497968Y-88369713D01*
X141475227Y-88341830D01*
X141383741Y-88229657D01*
X141383738Y-88229654D01*
X141379846Y-88224882D01*
X141375097Y-88220953D01*
X141307829Y-88165304D01*
X143927856Y-88165304D01*
X143931680Y-88174133D01*
X144241189Y-88483641D01*
X144255127Y-88491252D01*
X144256963Y-88491120D01*
X144263575Y-88486871D01*
X144573846Y-88176601D01*
X144580605Y-88164222D01*
X144578020Y-88160768D01*
X144577720Y-88160608D01*
X144434817Y-88109722D01*
X144421192Y-88106526D01*
X144266315Y-88088059D01*
X144252318Y-88087961D01*
X144097206Y-88104263D01*
X144083527Y-88107271D01*
X143935882Y-88157533D01*
X143934111Y-88158367D01*
X143927856Y-88165304D01*
X141307829Y-88165304D01*
X141240592Y-88109681D01*
X141240589Y-88109679D01*
X141235842Y-88105752D01*
X141071442Y-88016861D01*
X140982175Y-87989228D01*
X140898794Y-87963417D01*
X140898791Y-87963416D01*
X140892907Y-87961595D01*
X140886782Y-87960951D01*
X140886781Y-87960951D01*
X140713166Y-87942703D01*
X140713165Y-87942703D01*
X140707038Y-87942059D01*
X140588440Y-87952853D01*
X140527056Y-87958439D01*
X140527055Y-87958439D01*
X140520915Y-87958998D01*
X140515001Y-87960739D01*
X140514999Y-87960739D01*
X140392819Y-87996699D01*
X140341626Y-88011766D01*
X140176000Y-88098352D01*
X140030348Y-88215460D01*
X139910215Y-88358628D01*
X139907252Y-88364017D01*
X139907249Y-88364022D01*
X139841489Y-88483641D01*
X139820179Y-88522404D01*
X139763668Y-88700548D01*
X139742835Y-88886277D01*
X133703509Y-88886277D01*
X133784686Y-88802509D01*
X133787669Y-88799431D01*
X133790202Y-88795983D01*
X133790206Y-88795978D01*
X133947257Y-88582178D01*
X133949795Y-88578723D01*
X133975929Y-88530591D01*
X134078418Y-88341830D01*
X134078419Y-88341828D01*
X134080468Y-88338054D01*
X134141476Y-88176601D01*
X134175751Y-88085895D01*
X134175752Y-88085891D01*
X134177269Y-88081877D01*
X134238407Y-87814933D01*
X134262751Y-87542161D01*
X134263193Y-87500000D01*
X134244567Y-87226778D01*
X134189032Y-86958612D01*
X134097617Y-86700465D01*
X133972013Y-86457112D01*
X133962040Y-86442921D01*
X133817008Y-86236562D01*
X133814545Y-86233057D01*
X133628125Y-86032445D01*
X133624810Y-86029731D01*
X133624806Y-86029728D01*
X133419523Y-85861706D01*
X133416205Y-85858990D01*
X133182704Y-85715901D01*
X133178768Y-85714173D01*
X132935873Y-85607549D01*
X132935869Y-85607548D01*
X132931945Y-85605825D01*
X132668566Y-85530800D01*
X132664324Y-85530196D01*
X132664318Y-85530195D01*
X132463834Y-85501662D01*
X132397443Y-85492213D01*
X132253589Y-85491460D01*
X132127877Y-85490802D01*
X132127871Y-85490802D01*
X132123591Y-85490780D01*
X132119347Y-85491339D01*
X132119343Y-85491339D01*
X132000302Y-85507011D01*
X131852078Y-85526525D01*
X131847938Y-85527658D01*
X131847936Y-85527658D01*
X131775008Y-85547609D01*
X131587928Y-85598788D01*
X131583980Y-85600472D01*
X131339982Y-85704546D01*
X131339978Y-85704548D01*
X131336030Y-85706232D01*
X131316125Y-85718145D01*
X131104725Y-85844664D01*
X131104721Y-85844667D01*
X131101043Y-85846868D01*
X130887318Y-86018094D01*
X130698808Y-86216742D01*
X130539002Y-86439136D01*
X130410857Y-86681161D01*
X130409385Y-86685184D01*
X130409383Y-86685188D01*
X130402314Y-86704506D01*
X130316743Y-86938337D01*
X130258404Y-87205907D01*
X130236917Y-87478918D01*
X128758500Y-87478918D01*
X128758500Y-83968134D01*
X130241500Y-83968134D01*
X130248255Y-84030316D01*
X130299385Y-84166705D01*
X130386739Y-84283261D01*
X130503295Y-84370615D01*
X130639684Y-84421745D01*
X130701866Y-84428500D01*
X133798134Y-84428500D01*
X133860316Y-84421745D01*
X133996705Y-84370615D01*
X134113261Y-84283261D01*
X134200615Y-84166705D01*
X134251745Y-84030316D01*
X134258500Y-83968134D01*
X134258500Y-82486630D01*
X140342482Y-82486630D01*
X140358121Y-82672867D01*
X140409636Y-82852520D01*
X140495064Y-83018746D01*
X140498887Y-83023570D01*
X140498890Y-83023574D01*
X140604170Y-83156402D01*
X140611152Y-83165212D01*
X140615846Y-83169207D01*
X140648819Y-83197269D01*
X140753478Y-83286342D01*
X140916621Y-83377519D01*
X141094367Y-83435272D01*
X141279945Y-83457401D01*
X141286080Y-83456929D01*
X141286082Y-83456929D01*
X141342119Y-83452617D01*
X141466287Y-83443063D01*
X141646296Y-83392804D01*
X141651785Y-83390031D01*
X141651791Y-83390029D01*
X141729159Y-83350947D01*
X141813114Y-83308538D01*
X141841524Y-83286342D01*
X141865486Y-83267621D01*
X141960387Y-83193475D01*
X141964413Y-83188811D01*
X141964416Y-83188808D01*
X142078480Y-83056663D01*
X142082507Y-83051998D01*
X142174821Y-82889495D01*
X142189091Y-82846600D01*
X142231867Y-82718009D01*
X142233814Y-82712157D01*
X142239553Y-82666727D01*
X142256796Y-82530241D01*
X142256797Y-82530232D01*
X142257238Y-82526738D01*
X142257611Y-82500000D01*
X142239373Y-82313999D01*
X142235419Y-82300901D01*
X142187136Y-82140983D01*
X142185355Y-82135083D01*
X142097615Y-81970066D01*
X142084727Y-81954264D01*
X141983388Y-81830010D01*
X141983385Y-81830007D01*
X141979493Y-81825235D01*
X141974744Y-81821306D01*
X141840239Y-81710034D01*
X141840236Y-81710032D01*
X141835489Y-81706105D01*
X141671089Y-81617214D01*
X141581822Y-81589581D01*
X141498441Y-81563770D01*
X141498438Y-81563769D01*
X141492554Y-81561948D01*
X141486429Y-81561304D01*
X141486428Y-81561304D01*
X141312813Y-81543056D01*
X141312812Y-81543056D01*
X141306685Y-81542412D01*
X141188087Y-81553206D01*
X141126703Y-81558792D01*
X141126702Y-81558792D01*
X141120562Y-81559351D01*
X141114648Y-81561092D01*
X141114646Y-81561092D01*
X140992466Y-81597052D01*
X140941273Y-81612119D01*
X140775647Y-81698705D01*
X140629995Y-81815813D01*
X140509862Y-81958981D01*
X140506899Y-81964370D01*
X140506896Y-81964375D01*
X140433509Y-82097868D01*
X140419826Y-82122757D01*
X140363315Y-82300901D01*
X140342482Y-82486630D01*
X134258500Y-82486630D01*
X134258500Y-80871866D01*
X134251745Y-80809684D01*
X134200615Y-80673295D01*
X134113261Y-80556739D01*
X133996705Y-80469385D01*
X133860316Y-80418255D01*
X133798134Y-80411500D01*
X130701866Y-80411500D01*
X130639684Y-80418255D01*
X130503295Y-80469385D01*
X130386739Y-80556739D01*
X130299385Y-80673295D01*
X130248255Y-80809684D01*
X130241500Y-80871866D01*
X130241500Y-83968134D01*
X128758500Y-83968134D01*
X128758500Y-71527846D01*
X137991500Y-71527846D01*
X138006548Y-71685566D01*
X138066092Y-71888534D01*
X138068836Y-71893861D01*
X138068836Y-71893862D01*
X138116491Y-71986389D01*
X138162942Y-72076580D01*
X138293604Y-72242920D01*
X138298135Y-72246852D01*
X138298138Y-72246855D01*
X138383620Y-72321032D01*
X138453363Y-72381552D01*
X138458549Y-72384552D01*
X138458553Y-72384555D01*
X138554957Y-72440326D01*
X138636454Y-72487473D01*
X138836271Y-72556861D01*
X138842206Y-72557722D01*
X138842208Y-72557722D01*
X139039664Y-72586352D01*
X139039667Y-72586352D01*
X139045604Y-72587213D01*
X139256899Y-72577433D01*
X139388077Y-72545819D01*
X139456701Y-72529281D01*
X139456703Y-72529280D01*
X139462534Y-72527875D01*
X139467992Y-72525393D01*
X139467996Y-72525392D01*
X139585853Y-72471805D01*
X139655087Y-72440326D01*
X139827611Y-72317946D01*
X139973881Y-72165150D01*
X139977130Y-72160119D01*
X139977135Y-72160112D01*
X139995033Y-72132393D01*
X140048789Y-72086016D01*
X140119085Y-72076063D01*
X140183602Y-72105696D01*
X140199970Y-72122909D01*
X140290262Y-72237857D01*
X140298499Y-72246506D01*
X140449123Y-72377212D01*
X140458847Y-72384147D01*
X140631467Y-72484010D01*
X140642331Y-72488984D01*
X140830727Y-72554407D01*
X140831716Y-72554648D01*
X140842008Y-72553180D01*
X140846000Y-72539615D01*
X140846000Y-72535402D01*
X141354000Y-72535402D01*
X141357973Y-72548933D01*
X141367399Y-72550288D01*
X141456537Y-72528806D01*
X141467832Y-72524917D01*
X141649382Y-72442371D01*
X141659724Y-72436424D01*
X141822397Y-72321032D01*
X141831425Y-72313239D01*
X141969342Y-72169169D01*
X141976741Y-72159800D01*
X141994418Y-72132423D01*
X142048172Y-72086045D01*
X142118468Y-72076091D01*
X142182985Y-72105722D01*
X142199356Y-72122937D01*
X142293604Y-72242920D01*
X142298135Y-72246852D01*
X142298138Y-72246855D01*
X142383620Y-72321032D01*
X142453363Y-72381552D01*
X142458549Y-72384552D01*
X142458553Y-72384555D01*
X142554957Y-72440326D01*
X142636454Y-72487473D01*
X142836271Y-72556861D01*
X142842206Y-72557722D01*
X142842208Y-72557722D01*
X143039664Y-72586352D01*
X143039667Y-72586352D01*
X143045604Y-72587213D01*
X143256899Y-72577433D01*
X143388077Y-72545819D01*
X143456701Y-72529281D01*
X143456703Y-72529280D01*
X143462534Y-72527875D01*
X143467992Y-72525393D01*
X143467996Y-72525392D01*
X143585853Y-72471805D01*
X143655087Y-72440326D01*
X143827611Y-72317946D01*
X143831753Y-72313619D01*
X143831759Y-72313614D01*
X143918806Y-72222683D01*
X143980361Y-72187306D01*
X144051270Y-72190825D01*
X144109021Y-72232121D01*
X144116965Y-72243504D01*
X144151522Y-72299348D01*
X144276697Y-72424305D01*
X144282927Y-72428145D01*
X144282928Y-72428146D01*
X144420090Y-72512694D01*
X144427262Y-72517115D01*
X144482396Y-72535402D01*
X144588611Y-72570632D01*
X144588613Y-72570632D01*
X144595139Y-72572797D01*
X144601975Y-72573497D01*
X144601978Y-72573498D01*
X144640386Y-72577433D01*
X144699600Y-72583500D01*
X145500400Y-72583500D01*
X145503646Y-72583163D01*
X145503650Y-72583163D01*
X145599308Y-72573238D01*
X145599312Y-72573237D01*
X145606166Y-72572526D01*
X145612702Y-72570345D01*
X145612704Y-72570345D01*
X145748867Y-72524917D01*
X145773946Y-72516550D01*
X145924348Y-72423478D01*
X146049305Y-72298303D01*
X146077636Y-72252342D01*
X146138275Y-72153968D01*
X146138276Y-72153966D01*
X146142115Y-72147738D01*
X146197797Y-71979861D01*
X146208500Y-71875400D01*
X146208500Y-71527846D01*
X152791500Y-71527846D01*
X152806548Y-71685566D01*
X152866092Y-71888534D01*
X152868836Y-71893861D01*
X152868836Y-71893862D01*
X152916491Y-71986389D01*
X152962942Y-72076580D01*
X153093604Y-72242920D01*
X153098135Y-72246852D01*
X153098138Y-72246855D01*
X153183620Y-72321032D01*
X153253363Y-72381552D01*
X153258549Y-72384552D01*
X153258553Y-72384555D01*
X153354957Y-72440326D01*
X153436454Y-72487473D01*
X153636271Y-72556861D01*
X153642206Y-72557722D01*
X153642208Y-72557722D01*
X153839664Y-72586352D01*
X153839667Y-72586352D01*
X153845604Y-72587213D01*
X154056899Y-72577433D01*
X154188077Y-72545819D01*
X154256701Y-72529281D01*
X154256703Y-72529280D01*
X154262534Y-72527875D01*
X154267992Y-72525393D01*
X154267996Y-72525392D01*
X154385853Y-72471805D01*
X154455087Y-72440326D01*
X154627611Y-72317946D01*
X154773881Y-72165150D01*
X154777130Y-72160119D01*
X154777135Y-72160112D01*
X154795033Y-72132393D01*
X154848789Y-72086016D01*
X154919085Y-72076063D01*
X154983602Y-72105696D01*
X154999970Y-72122909D01*
X155090262Y-72237857D01*
X155098499Y-72246506D01*
X155249123Y-72377212D01*
X155258847Y-72384147D01*
X155431467Y-72484010D01*
X155442331Y-72488984D01*
X155630727Y-72554407D01*
X155631716Y-72554648D01*
X155642008Y-72553180D01*
X155646000Y-72539615D01*
X155646000Y-72535402D01*
X156154000Y-72535402D01*
X156157973Y-72548933D01*
X156167399Y-72550288D01*
X156256537Y-72528806D01*
X156267832Y-72524917D01*
X156449382Y-72442371D01*
X156459724Y-72436424D01*
X156622397Y-72321032D01*
X156631425Y-72313239D01*
X156769342Y-72169169D01*
X156776741Y-72159800D01*
X156794418Y-72132423D01*
X156848172Y-72086045D01*
X156918468Y-72076091D01*
X156982985Y-72105722D01*
X156999356Y-72122937D01*
X157093604Y-72242920D01*
X157098135Y-72246852D01*
X157098138Y-72246855D01*
X157183620Y-72321032D01*
X157253363Y-72381552D01*
X157258549Y-72384552D01*
X157258553Y-72384555D01*
X157354957Y-72440326D01*
X157436454Y-72487473D01*
X157636271Y-72556861D01*
X157642206Y-72557722D01*
X157642208Y-72557722D01*
X157839664Y-72586352D01*
X157839667Y-72586352D01*
X157845604Y-72587213D01*
X158056899Y-72577433D01*
X158188077Y-72545819D01*
X158256701Y-72529281D01*
X158256703Y-72529280D01*
X158262534Y-72527875D01*
X158267992Y-72525393D01*
X158267996Y-72525392D01*
X158385853Y-72471805D01*
X158455087Y-72440326D01*
X158627611Y-72317946D01*
X158631753Y-72313619D01*
X158631759Y-72313614D01*
X158718806Y-72222683D01*
X158780361Y-72187306D01*
X158851270Y-72190825D01*
X158909021Y-72232121D01*
X158916965Y-72243504D01*
X158951522Y-72299348D01*
X159076697Y-72424305D01*
X159082927Y-72428145D01*
X159082928Y-72428146D01*
X159220090Y-72512694D01*
X159227262Y-72517115D01*
X159282396Y-72535402D01*
X159388611Y-72570632D01*
X159388613Y-72570632D01*
X159395139Y-72572797D01*
X159401975Y-72573497D01*
X159401978Y-72573498D01*
X159440386Y-72577433D01*
X159499600Y-72583500D01*
X160300400Y-72583500D01*
X160303646Y-72583163D01*
X160303650Y-72583163D01*
X160399308Y-72573238D01*
X160399312Y-72573237D01*
X160406166Y-72572526D01*
X160412702Y-72570345D01*
X160412704Y-72570345D01*
X160548867Y-72524917D01*
X160573946Y-72516550D01*
X160724348Y-72423478D01*
X160849305Y-72298303D01*
X160877636Y-72252342D01*
X160938275Y-72153968D01*
X160938276Y-72153966D01*
X160942115Y-72147738D01*
X160997797Y-71979861D01*
X161008500Y-71875400D01*
X161008500Y-70985000D01*
X163984181Y-70985000D01*
X164003428Y-71229557D01*
X164004582Y-71234364D01*
X164004583Y-71234370D01*
X164024076Y-71315562D01*
X164060695Y-71468092D01*
X164154573Y-71694732D01*
X164282748Y-71903896D01*
X164285963Y-71907660D01*
X164285965Y-71907663D01*
X164429794Y-72076063D01*
X164442067Y-72090433D01*
X164445823Y-72093641D01*
X164620605Y-72242920D01*
X164628604Y-72249752D01*
X164632827Y-72252340D01*
X164632830Y-72252342D01*
X164702015Y-72294738D01*
X164837768Y-72377927D01*
X164959007Y-72428146D01*
X165059835Y-72469911D01*
X165059837Y-72469912D01*
X165064408Y-72471805D01*
X165147063Y-72491649D01*
X165298130Y-72527917D01*
X165298136Y-72527918D01*
X165302943Y-72529072D01*
X165547500Y-72548319D01*
X165792057Y-72529072D01*
X165796864Y-72527918D01*
X165796870Y-72527917D01*
X165947937Y-72491649D01*
X166030592Y-72471805D01*
X166035163Y-72469912D01*
X166035165Y-72469911D01*
X166135993Y-72428146D01*
X166257232Y-72377927D01*
X166392985Y-72294738D01*
X166462170Y-72252342D01*
X166462173Y-72252340D01*
X166466396Y-72249752D01*
X166474396Y-72242920D01*
X166649177Y-72093641D01*
X166652933Y-72090433D01*
X166665206Y-72076063D01*
X166809035Y-71907663D01*
X166809037Y-71907660D01*
X166812252Y-71903896D01*
X166940427Y-71694732D01*
X167034305Y-71468092D01*
X167070924Y-71315562D01*
X167090417Y-71234370D01*
X167090418Y-71234364D01*
X167091572Y-71229557D01*
X167110079Y-70994409D01*
X167135363Y-70928069D01*
X167192501Y-70885929D01*
X167263351Y-70881370D01*
X167299261Y-70895508D01*
X167433419Y-70973904D01*
X167442702Y-70978351D01*
X167645502Y-71055793D01*
X167655400Y-71058669D01*
X167868125Y-71101948D01*
X167878353Y-71103167D01*
X168095288Y-71111122D01*
X168105574Y-71110655D01*
X168320900Y-71083072D01*
X168330977Y-71080930D01*
X168538901Y-71018549D01*
X168548499Y-71014788D01*
X168743447Y-70919284D01*
X168752285Y-70914015D01*
X168804672Y-70876648D01*
X168813072Y-70865948D01*
X168806085Y-70852795D01*
X167679422Y-69726132D01*
X168401908Y-69726132D01*
X168402039Y-69727965D01*
X168406290Y-69734580D01*
X169165888Y-70494178D01*
X169177898Y-70500736D01*
X169189638Y-70491768D01*
X169224007Y-70443940D01*
X169229316Y-70435103D01*
X169325494Y-70240503D01*
X169329292Y-70230910D01*
X169392397Y-70023208D01*
X169394574Y-70013138D01*
X169423146Y-69796113D01*
X169423665Y-69789438D01*
X169425158Y-69728364D01*
X169424964Y-69721646D01*
X169407030Y-69503507D01*
X169405345Y-69493327D01*
X169352462Y-69282791D01*
X169349142Y-69273040D01*
X169262580Y-69073959D01*
X169257713Y-69064884D01*
X169188644Y-68958118D01*
X169177958Y-68948915D01*
X169168391Y-68953319D01*
X168409522Y-69712188D01*
X168401908Y-69726132D01*
X167679422Y-69726132D01*
X166909358Y-68956068D01*
X166897822Y-68949768D01*
X166885539Y-68959391D01*
X166833779Y-69035268D01*
X166828691Y-69044224D01*
X166737295Y-69241121D01*
X166733732Y-69250808D01*
X166675723Y-69459979D01*
X166673792Y-69470100D01*
X166657134Y-69625970D01*
X166630006Y-69691579D01*
X166571713Y-69732107D01*
X166500764Y-69734686D01*
X166466013Y-69720013D01*
X166312547Y-69625970D01*
X166257232Y-69592073D01*
X166112533Y-69532136D01*
X166035165Y-69500089D01*
X166035163Y-69500088D01*
X166030592Y-69498195D01*
X165913568Y-69470100D01*
X165796870Y-69442083D01*
X165796864Y-69442082D01*
X165792057Y-69440928D01*
X165547500Y-69421681D01*
X165302943Y-69440928D01*
X165298136Y-69442082D01*
X165298130Y-69442083D01*
X165181432Y-69470100D01*
X165064408Y-69498195D01*
X165059837Y-69500088D01*
X165059835Y-69500089D01*
X164982467Y-69532136D01*
X164837768Y-69592073D01*
X164782453Y-69625970D01*
X164632830Y-69717658D01*
X164632827Y-69717660D01*
X164628604Y-69720248D01*
X164624840Y-69723463D01*
X164624837Y-69723465D01*
X164500842Y-69829368D01*
X164442067Y-69879567D01*
X164438859Y-69883323D01*
X164319744Y-70022788D01*
X164282748Y-70066104D01*
X164280160Y-70070327D01*
X164280158Y-70070330D01*
X164257118Y-70107928D01*
X164154573Y-70275268D01*
X164138536Y-70313984D01*
X164064205Y-70493435D01*
X164060695Y-70501908D01*
X164003428Y-70740443D01*
X163984181Y-70985000D01*
X161008500Y-70985000D01*
X161008500Y-70524600D01*
X161005671Y-70497335D01*
X160998238Y-70425692D01*
X160998237Y-70425688D01*
X160997526Y-70418834D01*
X160993749Y-70407511D01*
X160943868Y-70258002D01*
X160941550Y-70251054D01*
X160848478Y-70100652D01*
X160723303Y-69975695D01*
X160717072Y-69971854D01*
X160578968Y-69886725D01*
X160578966Y-69886724D01*
X160572738Y-69882885D01*
X160464005Y-69846820D01*
X160411389Y-69829368D01*
X160411387Y-69829368D01*
X160404861Y-69827203D01*
X160398025Y-69826503D01*
X160398022Y-69826502D01*
X160354969Y-69822091D01*
X160300400Y-69816500D01*
X159499600Y-69816500D01*
X159496354Y-69816837D01*
X159496350Y-69816837D01*
X159400692Y-69826762D01*
X159400688Y-69826763D01*
X159393834Y-69827474D01*
X159387298Y-69829655D01*
X159387296Y-69829655D01*
X159323117Y-69851067D01*
X159226054Y-69883450D01*
X159075652Y-69976522D01*
X158950695Y-70101697D01*
X158946855Y-70107927D01*
X158946854Y-70107928D01*
X158918926Y-70153236D01*
X158866154Y-70200729D01*
X158796082Y-70212153D01*
X158730958Y-70183879D01*
X158712582Y-70164955D01*
X158706396Y-70157080D01*
X158701865Y-70153148D01*
X158701862Y-70153145D01*
X158551167Y-70022379D01*
X158546637Y-70018448D01*
X158541451Y-70015448D01*
X158541447Y-70015445D01*
X158368742Y-69915533D01*
X158363546Y-69912527D01*
X158163729Y-69843139D01*
X158157794Y-69842278D01*
X158157792Y-69842278D01*
X157960336Y-69813648D01*
X157960333Y-69813648D01*
X157954396Y-69812787D01*
X157743101Y-69822567D01*
X157630466Y-69849712D01*
X157543299Y-69870719D01*
X157543297Y-69870720D01*
X157537466Y-69872125D01*
X157532008Y-69874607D01*
X157532004Y-69874608D01*
X157440990Y-69915990D01*
X157344913Y-69959674D01*
X157172389Y-70082054D01*
X157026119Y-70234850D01*
X157022870Y-70239881D01*
X157022865Y-70239888D01*
X157004967Y-70267607D01*
X156951211Y-70313984D01*
X156880915Y-70323937D01*
X156816398Y-70294304D01*
X156800030Y-70277091D01*
X156709738Y-70162143D01*
X156701501Y-70153494D01*
X156550877Y-70022788D01*
X156541153Y-70015853D01*
X156368533Y-69915990D01*
X156357669Y-69911016D01*
X156169273Y-69845593D01*
X156168284Y-69845352D01*
X156157992Y-69846820D01*
X156154000Y-69860385D01*
X156154000Y-72535402D01*
X155646000Y-72535402D01*
X155646000Y-69864598D01*
X155642027Y-69851067D01*
X155632601Y-69849712D01*
X155543463Y-69871194D01*
X155532168Y-69875083D01*
X155350618Y-69957629D01*
X155340276Y-69963576D01*
X155177603Y-70078968D01*
X155168575Y-70086761D01*
X155030658Y-70230831D01*
X155023259Y-70240200D01*
X155005582Y-70267577D01*
X154951828Y-70313955D01*
X154881532Y-70323909D01*
X154817015Y-70294278D01*
X154800644Y-70277063D01*
X154710102Y-70161798D01*
X154706396Y-70157080D01*
X154701865Y-70153148D01*
X154701862Y-70153145D01*
X154551167Y-70022379D01*
X154546637Y-70018448D01*
X154541451Y-70015448D01*
X154541447Y-70015445D01*
X154368742Y-69915533D01*
X154363546Y-69912527D01*
X154163729Y-69843139D01*
X154157794Y-69842278D01*
X154157792Y-69842278D01*
X153960336Y-69813648D01*
X153960333Y-69813648D01*
X153954396Y-69812787D01*
X153743101Y-69822567D01*
X153630466Y-69849712D01*
X153543299Y-69870719D01*
X153543297Y-69870720D01*
X153537466Y-69872125D01*
X153532008Y-69874607D01*
X153532004Y-69874608D01*
X153440990Y-69915990D01*
X153344913Y-69959674D01*
X153172389Y-70082054D01*
X153026119Y-70234850D01*
X152911380Y-70412548D01*
X152832314Y-70608737D01*
X152791772Y-70816337D01*
X152791500Y-70821899D01*
X152791500Y-71527846D01*
X146208500Y-71527846D01*
X146208500Y-70524600D01*
X146205948Y-70500000D01*
X147843910Y-70500000D01*
X147862618Y-70677991D01*
X147917923Y-70848203D01*
X148007409Y-71003197D01*
X148011827Y-71008104D01*
X148011828Y-71008105D01*
X148021232Y-71018549D01*
X148127164Y-71136199D01*
X148132506Y-71140080D01*
X148132508Y-71140082D01*
X148266613Y-71237515D01*
X148271955Y-71241396D01*
X148277983Y-71244080D01*
X148277985Y-71244081D01*
X148429423Y-71311505D01*
X148435454Y-71314190D01*
X148522984Y-71332795D01*
X148604057Y-71350028D01*
X148604061Y-71350028D01*
X148610514Y-71351400D01*
X148789486Y-71351400D01*
X148795939Y-71350028D01*
X148795943Y-71350028D01*
X148877016Y-71332795D01*
X148964546Y-71314190D01*
X148970577Y-71311505D01*
X149122015Y-71244081D01*
X149122017Y-71244080D01*
X149128045Y-71241396D01*
X149133387Y-71237515D01*
X149267492Y-71140082D01*
X149267494Y-71140080D01*
X149272836Y-71136199D01*
X149378768Y-71018549D01*
X149388172Y-71008105D01*
X149388173Y-71008104D01*
X149392591Y-71003197D01*
X149482077Y-70848203D01*
X149537382Y-70677991D01*
X149556090Y-70500000D01*
X149537382Y-70322009D01*
X149482077Y-70151797D01*
X149392591Y-69996803D01*
X149373586Y-69975695D01*
X149277258Y-69868712D01*
X149277257Y-69868711D01*
X149272836Y-69863801D01*
X149255310Y-69851067D01*
X149133387Y-69762485D01*
X149133386Y-69762484D01*
X149128045Y-69758604D01*
X149122017Y-69755920D01*
X149122015Y-69755919D01*
X148970577Y-69688495D01*
X148970576Y-69688495D01*
X148964546Y-69685810D01*
X148877016Y-69667205D01*
X148795943Y-69649972D01*
X148795939Y-69649972D01*
X148789486Y-69648600D01*
X148610514Y-69648600D01*
X148604061Y-69649972D01*
X148604057Y-69649972D01*
X148522984Y-69667205D01*
X148435454Y-69685810D01*
X148429424Y-69688495D01*
X148429423Y-69688495D01*
X148277985Y-69755919D01*
X148277983Y-69755920D01*
X148271955Y-69758604D01*
X148266614Y-69762484D01*
X148266613Y-69762485D01*
X148144691Y-69851067D01*
X148127164Y-69863801D01*
X148122743Y-69868711D01*
X148122742Y-69868712D01*
X148026415Y-69975695D01*
X148007409Y-69996803D01*
X147917923Y-70151797D01*
X147862618Y-70322009D01*
X147843910Y-70500000D01*
X146205948Y-70500000D01*
X146205671Y-70497335D01*
X146198238Y-70425692D01*
X146198237Y-70425688D01*
X146197526Y-70418834D01*
X146193749Y-70407511D01*
X146143868Y-70258002D01*
X146141550Y-70251054D01*
X146048478Y-70100652D01*
X145923303Y-69975695D01*
X145917072Y-69971854D01*
X145778968Y-69886725D01*
X145778966Y-69886724D01*
X145772738Y-69882885D01*
X145664005Y-69846820D01*
X145611389Y-69829368D01*
X145611387Y-69829368D01*
X145604861Y-69827203D01*
X145598025Y-69826503D01*
X145598022Y-69826502D01*
X145554969Y-69822091D01*
X145500400Y-69816500D01*
X144699600Y-69816500D01*
X144696354Y-69816837D01*
X144696350Y-69816837D01*
X144600692Y-69826762D01*
X144600688Y-69826763D01*
X144593834Y-69827474D01*
X144587298Y-69829655D01*
X144587296Y-69829655D01*
X144523117Y-69851067D01*
X144426054Y-69883450D01*
X144275652Y-69976522D01*
X144150695Y-70101697D01*
X144146855Y-70107927D01*
X144146854Y-70107928D01*
X144118926Y-70153236D01*
X144066154Y-70200729D01*
X143996082Y-70212153D01*
X143930958Y-70183879D01*
X143912582Y-70164955D01*
X143906396Y-70157080D01*
X143901865Y-70153148D01*
X143901862Y-70153145D01*
X143751167Y-70022379D01*
X143746637Y-70018448D01*
X143741451Y-70015448D01*
X143741447Y-70015445D01*
X143568742Y-69915533D01*
X143563546Y-69912527D01*
X143363729Y-69843139D01*
X143357794Y-69842278D01*
X143357792Y-69842278D01*
X143160336Y-69813648D01*
X143160333Y-69813648D01*
X143154396Y-69812787D01*
X142943101Y-69822567D01*
X142830466Y-69849712D01*
X142743299Y-69870719D01*
X142743297Y-69870720D01*
X142737466Y-69872125D01*
X142732008Y-69874607D01*
X142732004Y-69874608D01*
X142640990Y-69915990D01*
X142544913Y-69959674D01*
X142372389Y-70082054D01*
X142226119Y-70234850D01*
X142222870Y-70239881D01*
X142222865Y-70239888D01*
X142204967Y-70267607D01*
X142151211Y-70313984D01*
X142080915Y-70323937D01*
X142016398Y-70294304D01*
X142000030Y-70277091D01*
X141909738Y-70162143D01*
X141901501Y-70153494D01*
X141750877Y-70022788D01*
X141741153Y-70015853D01*
X141568533Y-69915990D01*
X141557669Y-69911016D01*
X141369273Y-69845593D01*
X141368284Y-69845352D01*
X141357992Y-69846820D01*
X141354000Y-69860385D01*
X141354000Y-72535402D01*
X140846000Y-72535402D01*
X140846000Y-69864598D01*
X140842027Y-69851067D01*
X140832601Y-69849712D01*
X140743463Y-69871194D01*
X140732168Y-69875083D01*
X140550618Y-69957629D01*
X140540276Y-69963576D01*
X140377603Y-70078968D01*
X140368575Y-70086761D01*
X140230658Y-70230831D01*
X140223259Y-70240200D01*
X140205582Y-70267577D01*
X140151828Y-70313955D01*
X140081532Y-70323909D01*
X140017015Y-70294278D01*
X140000644Y-70277063D01*
X139910102Y-70161798D01*
X139906396Y-70157080D01*
X139901865Y-70153148D01*
X139901862Y-70153145D01*
X139751167Y-70022379D01*
X139746637Y-70018448D01*
X139741451Y-70015448D01*
X139741447Y-70015445D01*
X139568742Y-69915533D01*
X139563546Y-69912527D01*
X139363729Y-69843139D01*
X139357794Y-69842278D01*
X139357792Y-69842278D01*
X139160336Y-69813648D01*
X139160333Y-69813648D01*
X139154396Y-69812787D01*
X138943101Y-69822567D01*
X138830466Y-69849712D01*
X138743299Y-69870719D01*
X138743297Y-69870720D01*
X138737466Y-69872125D01*
X138732008Y-69874607D01*
X138732004Y-69874608D01*
X138640990Y-69915990D01*
X138544913Y-69959674D01*
X138372389Y-70082054D01*
X138226119Y-70234850D01*
X138111380Y-70412548D01*
X138032314Y-70608737D01*
X137991772Y-70816337D01*
X137991500Y-70821899D01*
X137991500Y-71527846D01*
X128758500Y-71527846D01*
X128758500Y-69600000D01*
X132143910Y-69600000D01*
X132144600Y-69606565D01*
X132153536Y-69691579D01*
X132162618Y-69777991D01*
X132164658Y-69784269D01*
X132164658Y-69784270D01*
X132183506Y-69842278D01*
X132217923Y-69948203D01*
X132221226Y-69953925D01*
X132221227Y-69953926D01*
X132234273Y-69976522D01*
X132307409Y-70103197D01*
X132311827Y-70108104D01*
X132311828Y-70108105D01*
X132422331Y-70230831D01*
X132427164Y-70236199D01*
X132432506Y-70240080D01*
X132432508Y-70240082D01*
X132566613Y-70337515D01*
X132571955Y-70341396D01*
X132577983Y-70344080D01*
X132577985Y-70344081D01*
X132729423Y-70411505D01*
X132735454Y-70414190D01*
X132822984Y-70432795D01*
X132904057Y-70450028D01*
X132904061Y-70450028D01*
X132910514Y-70451400D01*
X133089486Y-70451400D01*
X133095939Y-70450028D01*
X133095943Y-70450028D01*
X133177016Y-70432795D01*
X133264546Y-70414190D01*
X133270577Y-70411505D01*
X133422015Y-70344081D01*
X133422017Y-70344080D01*
X133428045Y-70341396D01*
X133433387Y-70337515D01*
X133567492Y-70240082D01*
X133567494Y-70240080D01*
X133572836Y-70236199D01*
X133577669Y-70230831D01*
X133688172Y-70108105D01*
X133688173Y-70108104D01*
X133692591Y-70103197D01*
X133765727Y-69976522D01*
X133778773Y-69953926D01*
X133778774Y-69953925D01*
X133782077Y-69948203D01*
X133816494Y-69842278D01*
X133835342Y-69784270D01*
X133835342Y-69784269D01*
X133837382Y-69777991D01*
X133846465Y-69691579D01*
X133855400Y-69606565D01*
X133856090Y-69600000D01*
X133837382Y-69422009D01*
X133817427Y-69360592D01*
X133805011Y-69322380D01*
X133782077Y-69251797D01*
X133692591Y-69096803D01*
X133572836Y-68963801D01*
X133566767Y-68959391D01*
X133433387Y-68862485D01*
X133433386Y-68862484D01*
X133428045Y-68858604D01*
X133422017Y-68855920D01*
X133422015Y-68855919D01*
X133270577Y-68788495D01*
X133270576Y-68788495D01*
X133264546Y-68785810D01*
X133177016Y-68767205D01*
X133095943Y-68749972D01*
X133095939Y-68749972D01*
X133089486Y-68748600D01*
X132910514Y-68748600D01*
X132904061Y-68749972D01*
X132904057Y-68749972D01*
X132822984Y-68767205D01*
X132735454Y-68785810D01*
X132729424Y-68788495D01*
X132729423Y-68788495D01*
X132577985Y-68855919D01*
X132577983Y-68855920D01*
X132571955Y-68858604D01*
X132566614Y-68862484D01*
X132566613Y-68862485D01*
X132433234Y-68959391D01*
X132427164Y-68963801D01*
X132307409Y-69096803D01*
X132217923Y-69251797D01*
X132194989Y-69322380D01*
X132182574Y-69360592D01*
X132162618Y-69422009D01*
X132143910Y-69600000D01*
X128758500Y-69600000D01*
X128758500Y-68583569D01*
X167260865Y-68583569D01*
X167267611Y-68595901D01*
X168024688Y-69352978D01*
X168038632Y-69360592D01*
X168040465Y-69360461D01*
X168047080Y-69356210D01*
X168808690Y-68594600D01*
X168815711Y-68581744D01*
X168808218Y-68571461D01*
X168800935Y-68566622D01*
X168610898Y-68461715D01*
X168601489Y-68457487D01*
X168396864Y-68385026D01*
X168386901Y-68382394D01*
X168173187Y-68344326D01*
X168162934Y-68343356D01*
X167945866Y-68340703D01*
X167935582Y-68341423D01*
X167721007Y-68374258D01*
X167710979Y-68376647D01*
X167504647Y-68444087D01*
X167495137Y-68448084D01*
X167302595Y-68548315D01*
X167293870Y-68553809D01*
X167269319Y-68572243D01*
X167260865Y-68583569D01*
X128758500Y-68583569D01*
X128758500Y-67600000D01*
X132143910Y-67600000D01*
X132162618Y-67777991D01*
X132217923Y-67948203D01*
X132307409Y-68103197D01*
X132427164Y-68236199D01*
X132571955Y-68341396D01*
X132577983Y-68344080D01*
X132577985Y-68344081D01*
X132669950Y-68385026D01*
X132735454Y-68414190D01*
X132822984Y-68432795D01*
X132904057Y-68450028D01*
X132904061Y-68450028D01*
X132910514Y-68451400D01*
X133089486Y-68451400D01*
X133095939Y-68450028D01*
X133095943Y-68450028D01*
X133177016Y-68432795D01*
X133264546Y-68414190D01*
X133330050Y-68385026D01*
X133422015Y-68344081D01*
X133422017Y-68344080D01*
X133428045Y-68341396D01*
X133572836Y-68236199D01*
X133692591Y-68103197D01*
X133782077Y-67948203D01*
X133837382Y-67777991D01*
X133856090Y-67600000D01*
X133837382Y-67422009D01*
X133782077Y-67251797D01*
X133692591Y-67096803D01*
X133572836Y-66963801D01*
X133428045Y-66858604D01*
X133422017Y-66855920D01*
X133422015Y-66855919D01*
X133270577Y-66788495D01*
X133270576Y-66788495D01*
X133264546Y-66785810D01*
X133177016Y-66767205D01*
X133095943Y-66749972D01*
X133095939Y-66749972D01*
X133089486Y-66748600D01*
X132910514Y-66748600D01*
X132904061Y-66749972D01*
X132904057Y-66749972D01*
X132822984Y-66767205D01*
X132735454Y-66785810D01*
X132729424Y-66788495D01*
X132729423Y-66788495D01*
X132577985Y-66855919D01*
X132577983Y-66855920D01*
X132571955Y-66858604D01*
X132427164Y-66963801D01*
X132307409Y-67096803D01*
X132217923Y-67251797D01*
X132162618Y-67422009D01*
X132143910Y-67600000D01*
X128758500Y-67600000D01*
X128758500Y-66500000D01*
X147843910Y-66500000D01*
X147862618Y-66677991D01*
X147917923Y-66848203D01*
X148007409Y-67003197D01*
X148127164Y-67136199D01*
X148271955Y-67241396D01*
X148277983Y-67244080D01*
X148277985Y-67244081D01*
X148429423Y-67311505D01*
X148435454Y-67314190D01*
X148522984Y-67332795D01*
X148604057Y-67350028D01*
X148604061Y-67350028D01*
X148610514Y-67351400D01*
X148789486Y-67351400D01*
X148795939Y-67350028D01*
X148795943Y-67350028D01*
X148877016Y-67332795D01*
X148964546Y-67314190D01*
X148970577Y-67311505D01*
X149122015Y-67244081D01*
X149122017Y-67244080D01*
X149128045Y-67241396D01*
X149272836Y-67136199D01*
X149392591Y-67003197D01*
X149482077Y-66848203D01*
X149537382Y-66677991D01*
X149556090Y-66500000D01*
X149541604Y-66362181D01*
X149538072Y-66328573D01*
X149538072Y-66328572D01*
X149537382Y-66322009D01*
X149482077Y-66151797D01*
X149392591Y-65996803D01*
X149345226Y-65944198D01*
X149277258Y-65868712D01*
X149277257Y-65868711D01*
X149272836Y-65863801D01*
X149255117Y-65850927D01*
X149133387Y-65762485D01*
X149133386Y-65762484D01*
X149128045Y-65758604D01*
X149122017Y-65755920D01*
X149122015Y-65755919D01*
X148970577Y-65688495D01*
X148970576Y-65688495D01*
X148964546Y-65685810D01*
X148867348Y-65665150D01*
X148795943Y-65649972D01*
X148795939Y-65649972D01*
X148789486Y-65648600D01*
X148610514Y-65648600D01*
X148604061Y-65649972D01*
X148604057Y-65649972D01*
X148532652Y-65665150D01*
X148435454Y-65685810D01*
X148429424Y-65688495D01*
X148429423Y-65688495D01*
X148277985Y-65755919D01*
X148277983Y-65755920D01*
X148271955Y-65758604D01*
X148266614Y-65762484D01*
X148266613Y-65762485D01*
X148144884Y-65850927D01*
X148127164Y-65863801D01*
X148122743Y-65868711D01*
X148122742Y-65868712D01*
X148054775Y-65944198D01*
X148007409Y-65996803D01*
X147917923Y-66151797D01*
X147862618Y-66322009D01*
X147861928Y-66328572D01*
X147861928Y-66328573D01*
X147858396Y-66362181D01*
X147843910Y-66500000D01*
X128758500Y-66500000D01*
X128758500Y-65027846D01*
X137991500Y-65027846D01*
X138006548Y-65185566D01*
X138066092Y-65388534D01*
X138068836Y-65393861D01*
X138068836Y-65393862D01*
X138132729Y-65517917D01*
X138162942Y-65576580D01*
X138293604Y-65742920D01*
X138298135Y-65746852D01*
X138298138Y-65746855D01*
X138383620Y-65821032D01*
X138453363Y-65881552D01*
X138458549Y-65884552D01*
X138458553Y-65884555D01*
X138554957Y-65940326D01*
X138636454Y-65987473D01*
X138836271Y-66056861D01*
X138842206Y-66057722D01*
X138842208Y-66057722D01*
X139039664Y-66086352D01*
X139039667Y-66086352D01*
X139045604Y-66087213D01*
X139256899Y-66077433D01*
X139410144Y-66040501D01*
X139456701Y-66029281D01*
X139456703Y-66029280D01*
X139462534Y-66027875D01*
X139467992Y-66025393D01*
X139467996Y-66025392D01*
X139583041Y-65973084D01*
X139655087Y-65940326D01*
X139827611Y-65817946D01*
X139973881Y-65665150D01*
X139977130Y-65660119D01*
X139977135Y-65660112D01*
X139995033Y-65632393D01*
X140048789Y-65586016D01*
X140119085Y-65576063D01*
X140183602Y-65605696D01*
X140199970Y-65622909D01*
X140290262Y-65737857D01*
X140298499Y-65746506D01*
X140449123Y-65877212D01*
X140458847Y-65884147D01*
X140631467Y-65984010D01*
X140642331Y-65988984D01*
X140830727Y-66054407D01*
X140831716Y-66054648D01*
X140842008Y-66053180D01*
X140846000Y-66039615D01*
X140846000Y-66035402D01*
X141354000Y-66035402D01*
X141357973Y-66048933D01*
X141367399Y-66050288D01*
X141456537Y-66028806D01*
X141467832Y-66024917D01*
X141649382Y-65942371D01*
X141659724Y-65936424D01*
X141822397Y-65821032D01*
X141831425Y-65813239D01*
X141969342Y-65669169D01*
X141976741Y-65659800D01*
X141994418Y-65632423D01*
X142048172Y-65586045D01*
X142118468Y-65576091D01*
X142182985Y-65605722D01*
X142199356Y-65622937D01*
X142293604Y-65742920D01*
X142298135Y-65746852D01*
X142298138Y-65746855D01*
X142383620Y-65821032D01*
X142453363Y-65881552D01*
X142458549Y-65884552D01*
X142458553Y-65884555D01*
X142554957Y-65940326D01*
X142636454Y-65987473D01*
X142836271Y-66056861D01*
X142842206Y-66057722D01*
X142842208Y-66057722D01*
X143039664Y-66086352D01*
X143039667Y-66086352D01*
X143045604Y-66087213D01*
X143256899Y-66077433D01*
X143410144Y-66040501D01*
X143456701Y-66029281D01*
X143456703Y-66029280D01*
X143462534Y-66027875D01*
X143467992Y-66025393D01*
X143467996Y-66025392D01*
X143583041Y-65973084D01*
X143655087Y-65940326D01*
X143827611Y-65817946D01*
X143831753Y-65813619D01*
X143831759Y-65813614D01*
X143918806Y-65722683D01*
X143980361Y-65687306D01*
X144051270Y-65690825D01*
X144109021Y-65732121D01*
X144116965Y-65743504D01*
X144151522Y-65799348D01*
X144276697Y-65924305D01*
X144282927Y-65928145D01*
X144282928Y-65928146D01*
X144420090Y-66012694D01*
X144427262Y-66017115D01*
X144463942Y-66029281D01*
X144588611Y-66070632D01*
X144588613Y-66070632D01*
X144595139Y-66072797D01*
X144601975Y-66073497D01*
X144601978Y-66073498D01*
X144640386Y-66077433D01*
X144699600Y-66083500D01*
X145500400Y-66083500D01*
X145503646Y-66083163D01*
X145503650Y-66083163D01*
X145599308Y-66073238D01*
X145599312Y-66073237D01*
X145606166Y-66072526D01*
X145612702Y-66070345D01*
X145612704Y-66070345D01*
X145748867Y-66024917D01*
X145773946Y-66016550D01*
X145924348Y-65923478D01*
X146049305Y-65798303D01*
X146087681Y-65736046D01*
X146138275Y-65653968D01*
X146138276Y-65653966D01*
X146142115Y-65647738D01*
X146168564Y-65567995D01*
X146195632Y-65486389D01*
X146195632Y-65486387D01*
X146197797Y-65479861D01*
X146208500Y-65375400D01*
X146208500Y-65027846D01*
X152791500Y-65027846D01*
X152806548Y-65185566D01*
X152866092Y-65388534D01*
X152868836Y-65393861D01*
X152868836Y-65393862D01*
X152932729Y-65517917D01*
X152962942Y-65576580D01*
X153093604Y-65742920D01*
X153098135Y-65746852D01*
X153098138Y-65746855D01*
X153183620Y-65821032D01*
X153253363Y-65881552D01*
X153258549Y-65884552D01*
X153258553Y-65884555D01*
X153354957Y-65940326D01*
X153436454Y-65987473D01*
X153636271Y-66056861D01*
X153642206Y-66057722D01*
X153642208Y-66057722D01*
X153839664Y-66086352D01*
X153839667Y-66086352D01*
X153845604Y-66087213D01*
X154056899Y-66077433D01*
X154210144Y-66040501D01*
X154256701Y-66029281D01*
X154256703Y-66029280D01*
X154262534Y-66027875D01*
X154267992Y-66025393D01*
X154267996Y-66025392D01*
X154383041Y-65973084D01*
X154455087Y-65940326D01*
X154627611Y-65817946D01*
X154773881Y-65665150D01*
X154777130Y-65660119D01*
X154777135Y-65660112D01*
X154795033Y-65632393D01*
X154848789Y-65586016D01*
X154919085Y-65576063D01*
X154983602Y-65605696D01*
X154999970Y-65622909D01*
X155090262Y-65737857D01*
X155098499Y-65746506D01*
X155249123Y-65877212D01*
X155258847Y-65884147D01*
X155431467Y-65984010D01*
X155442331Y-65988984D01*
X155630727Y-66054407D01*
X155631716Y-66054648D01*
X155642008Y-66053180D01*
X155646000Y-66039615D01*
X155646000Y-66035402D01*
X156154000Y-66035402D01*
X156157973Y-66048933D01*
X156167399Y-66050288D01*
X156256537Y-66028806D01*
X156267832Y-66024917D01*
X156449382Y-65942371D01*
X156459724Y-65936424D01*
X156622397Y-65821032D01*
X156631425Y-65813239D01*
X156769342Y-65669169D01*
X156776741Y-65659800D01*
X156794418Y-65632423D01*
X156848172Y-65586045D01*
X156918468Y-65576091D01*
X156982985Y-65605722D01*
X156999356Y-65622937D01*
X157093604Y-65742920D01*
X157098135Y-65746852D01*
X157098138Y-65746855D01*
X157183620Y-65821032D01*
X157253363Y-65881552D01*
X157258549Y-65884552D01*
X157258553Y-65884555D01*
X157354957Y-65940326D01*
X157436454Y-65987473D01*
X157636271Y-66056861D01*
X157642206Y-66057722D01*
X157642208Y-66057722D01*
X157839664Y-66086352D01*
X157839667Y-66086352D01*
X157845604Y-66087213D01*
X158056899Y-66077433D01*
X158210144Y-66040501D01*
X158256701Y-66029281D01*
X158256703Y-66029280D01*
X158262534Y-66027875D01*
X158267992Y-66025393D01*
X158267996Y-66025392D01*
X158383041Y-65973084D01*
X158455087Y-65940326D01*
X158627611Y-65817946D01*
X158631753Y-65813619D01*
X158631759Y-65813614D01*
X158718806Y-65722683D01*
X158780361Y-65687306D01*
X158851270Y-65690825D01*
X158909021Y-65732121D01*
X158916965Y-65743504D01*
X158951522Y-65799348D01*
X159076697Y-65924305D01*
X159082927Y-65928145D01*
X159082928Y-65928146D01*
X159220090Y-66012694D01*
X159227262Y-66017115D01*
X159263942Y-66029281D01*
X159388611Y-66070632D01*
X159388613Y-66070632D01*
X159395139Y-66072797D01*
X159401975Y-66073497D01*
X159401978Y-66073498D01*
X159440386Y-66077433D01*
X159499600Y-66083500D01*
X160300400Y-66083500D01*
X160303646Y-66083163D01*
X160303650Y-66083163D01*
X160399308Y-66073238D01*
X160399312Y-66073237D01*
X160406166Y-66072526D01*
X160412702Y-66070345D01*
X160412704Y-66070345D01*
X160548867Y-66024917D01*
X160573946Y-66016550D01*
X160724348Y-65923478D01*
X160849305Y-65798303D01*
X160887681Y-65736046D01*
X160938275Y-65653968D01*
X160938276Y-65653966D01*
X160942115Y-65647738D01*
X160968564Y-65567995D01*
X160995632Y-65486389D01*
X160995632Y-65486387D01*
X160997797Y-65479861D01*
X161008500Y-65375400D01*
X161008500Y-64024600D01*
X161003354Y-63975000D01*
X163984181Y-63975000D01*
X164003428Y-64219557D01*
X164004582Y-64224364D01*
X164004583Y-64224370D01*
X164040063Y-64372154D01*
X164060695Y-64458092D01*
X164154573Y-64684732D01*
X164282748Y-64893896D01*
X164442067Y-65080433D01*
X164445823Y-65083641D01*
X164615272Y-65228365D01*
X164628604Y-65239752D01*
X164632827Y-65242340D01*
X164632830Y-65242342D01*
X164702015Y-65284738D01*
X164837768Y-65367927D01*
X164971348Y-65423258D01*
X165059835Y-65459911D01*
X165059837Y-65459912D01*
X165064408Y-65461805D01*
X165139617Y-65479861D01*
X165298130Y-65517917D01*
X165298136Y-65517918D01*
X165302943Y-65519072D01*
X165547500Y-65538319D01*
X165792057Y-65519072D01*
X165796864Y-65517918D01*
X165796870Y-65517917D01*
X165955383Y-65479861D01*
X166030592Y-65461805D01*
X166035163Y-65459912D01*
X166035165Y-65459911D01*
X166123652Y-65423258D01*
X166257232Y-65367927D01*
X166466396Y-65239752D01*
X166467652Y-65241802D01*
X166525167Y-65221233D01*
X166594331Y-65237262D01*
X166643849Y-65288139D01*
X166658245Y-65339768D01*
X166662768Y-65418206D01*
X166663905Y-65423252D01*
X166663906Y-65423258D01*
X166691145Y-65544127D01*
X166712783Y-65640141D01*
X166798375Y-65850927D01*
X166917244Y-66044904D01*
X166920628Y-66048810D01*
X166920629Y-66048812D01*
X166945661Y-66077710D01*
X167066198Y-66216861D01*
X167241237Y-66362181D01*
X167245689Y-66364783D01*
X167245694Y-66364786D01*
X167339699Y-66419718D01*
X167437660Y-66476962D01*
X167650193Y-66558120D01*
X167655259Y-66559151D01*
X167655260Y-66559151D01*
X167754361Y-66579313D01*
X167873127Y-66603476D01*
X168000937Y-66608163D01*
X168095311Y-66611624D01*
X168095315Y-66611624D01*
X168100475Y-66611813D01*
X168105595Y-66611157D01*
X168105597Y-66611157D01*
X168321004Y-66583563D01*
X168321005Y-66583563D01*
X168326132Y-66582906D01*
X168408748Y-66558120D01*
X168539091Y-66519015D01*
X168539092Y-66519014D01*
X168544037Y-66517531D01*
X168748339Y-66417444D01*
X168752543Y-66414446D01*
X168752547Y-66414443D01*
X168929347Y-66288333D01*
X168929349Y-66288331D01*
X168933551Y-66285334D01*
X169094699Y-66124747D01*
X169129707Y-66076028D01*
X169224438Y-65944198D01*
X169224442Y-65944192D01*
X169227456Y-65939997D01*
X169322913Y-65746855D01*
X169325961Y-65740688D01*
X169325962Y-65740686D01*
X169328255Y-65736046D01*
X169394390Y-65518370D01*
X169395065Y-65513244D01*
X169423648Y-65296136D01*
X169423648Y-65296132D01*
X169424085Y-65292815D01*
X169425318Y-65242342D01*
X169425660Y-65228365D01*
X169425660Y-65228361D01*
X169425742Y-65225000D01*
X169407101Y-64998264D01*
X169351678Y-64777617D01*
X169260962Y-64568985D01*
X169137390Y-64377971D01*
X168984279Y-64209704D01*
X168805741Y-64068704D01*
X168606572Y-63958757D01*
X168601703Y-63957033D01*
X168601699Y-63957031D01*
X168396996Y-63884541D01*
X168396992Y-63884540D01*
X168392121Y-63882815D01*
X168387028Y-63881908D01*
X168387025Y-63881907D01*
X168173234Y-63843825D01*
X168173228Y-63843824D01*
X168168145Y-63842919D01*
X168094696Y-63842022D01*
X167945831Y-63840203D01*
X167945829Y-63840203D01*
X167940661Y-63840140D01*
X167715778Y-63874552D01*
X167499535Y-63945231D01*
X167494947Y-63947619D01*
X167494943Y-63947621D01*
X167302337Y-64047885D01*
X167302333Y-64047888D01*
X167297739Y-64050279D01*
X167297341Y-64049514D01*
X167233426Y-64067644D01*
X167165492Y-64047016D01*
X167119494Y-63992936D01*
X167108972Y-63951535D01*
X167108476Y-63945231D01*
X167091572Y-63730443D01*
X167084439Y-63700729D01*
X167049383Y-63554714D01*
X167034305Y-63491908D01*
X167030079Y-63481704D01*
X166988420Y-63381132D01*
X166940427Y-63265268D01*
X166812252Y-63056104D01*
X166652933Y-62869567D01*
X166627919Y-62848203D01*
X166470163Y-62713465D01*
X166470160Y-62713463D01*
X166466396Y-62710248D01*
X166462173Y-62707660D01*
X166462170Y-62707658D01*
X166392985Y-62665262D01*
X166257232Y-62582073D01*
X166059092Y-62500000D01*
X166035165Y-62490089D01*
X166035163Y-62490088D01*
X166030592Y-62488195D01*
X165947937Y-62468351D01*
X165796870Y-62432083D01*
X165796864Y-62432082D01*
X165792057Y-62430928D01*
X165547500Y-62411681D01*
X165302943Y-62430928D01*
X165298136Y-62432082D01*
X165298130Y-62432083D01*
X165147063Y-62468351D01*
X165064408Y-62488195D01*
X165059837Y-62490088D01*
X165059835Y-62490089D01*
X165035908Y-62500000D01*
X164837768Y-62582073D01*
X164702015Y-62665262D01*
X164632830Y-62707658D01*
X164632827Y-62707660D01*
X164628604Y-62710248D01*
X164624840Y-62713463D01*
X164624837Y-62713465D01*
X164467081Y-62848203D01*
X164442067Y-62869567D01*
X164282748Y-63056104D01*
X164154573Y-63265268D01*
X164106580Y-63381132D01*
X164064922Y-63481704D01*
X164060695Y-63491908D01*
X164045617Y-63554714D01*
X164010562Y-63700729D01*
X164003428Y-63730443D01*
X163984181Y-63975000D01*
X161003354Y-63975000D01*
X161001928Y-63961256D01*
X160998238Y-63925692D01*
X160998237Y-63925688D01*
X160997526Y-63918834D01*
X160993749Y-63907511D01*
X160943868Y-63758002D01*
X160941550Y-63751054D01*
X160848478Y-63600652D01*
X160723303Y-63475695D01*
X160717072Y-63471854D01*
X160578968Y-63386725D01*
X160578966Y-63386724D01*
X160572738Y-63382885D01*
X160464005Y-63346820D01*
X160411389Y-63329368D01*
X160411387Y-63329368D01*
X160404861Y-63327203D01*
X160398025Y-63326503D01*
X160398022Y-63326502D01*
X160354969Y-63322091D01*
X160300400Y-63316500D01*
X159499600Y-63316500D01*
X159496354Y-63316837D01*
X159496350Y-63316837D01*
X159400692Y-63326762D01*
X159400688Y-63326763D01*
X159393834Y-63327474D01*
X159387298Y-63329655D01*
X159387296Y-63329655D01*
X159264213Y-63370719D01*
X159226054Y-63383450D01*
X159075652Y-63476522D01*
X158950695Y-63601697D01*
X158946855Y-63607927D01*
X158946854Y-63607928D01*
X158918926Y-63653236D01*
X158866154Y-63700729D01*
X158796082Y-63712153D01*
X158730958Y-63683879D01*
X158712582Y-63664955D01*
X158706396Y-63657080D01*
X158701865Y-63653148D01*
X158701862Y-63653145D01*
X158551167Y-63522379D01*
X158546637Y-63518448D01*
X158541451Y-63515448D01*
X158541447Y-63515445D01*
X158368742Y-63415533D01*
X158363546Y-63412527D01*
X158163729Y-63343139D01*
X158157794Y-63342278D01*
X158157792Y-63342278D01*
X157960336Y-63313648D01*
X157960333Y-63313648D01*
X157954396Y-63312787D01*
X157743101Y-63322567D01*
X157630466Y-63349712D01*
X157543299Y-63370719D01*
X157543297Y-63370720D01*
X157537466Y-63372125D01*
X157532008Y-63374607D01*
X157532004Y-63374608D01*
X157440990Y-63415990D01*
X157344913Y-63459674D01*
X157172389Y-63582054D01*
X157026119Y-63734850D01*
X157022870Y-63739881D01*
X157022865Y-63739888D01*
X157004967Y-63767607D01*
X156951211Y-63813984D01*
X156880915Y-63823937D01*
X156816398Y-63794304D01*
X156800030Y-63777091D01*
X156709738Y-63662143D01*
X156701501Y-63653494D01*
X156550877Y-63522788D01*
X156541153Y-63515853D01*
X156368533Y-63415990D01*
X156357669Y-63411016D01*
X156169273Y-63345593D01*
X156168284Y-63345352D01*
X156157992Y-63346820D01*
X156154000Y-63360385D01*
X156154000Y-66035402D01*
X155646000Y-66035402D01*
X155646000Y-63364598D01*
X155642027Y-63351067D01*
X155632601Y-63349712D01*
X155543463Y-63371194D01*
X155532168Y-63375083D01*
X155350618Y-63457629D01*
X155340276Y-63463576D01*
X155177603Y-63578968D01*
X155168575Y-63586761D01*
X155030658Y-63730831D01*
X155023259Y-63740200D01*
X155005582Y-63767577D01*
X154951828Y-63813955D01*
X154881532Y-63823909D01*
X154817015Y-63794278D01*
X154800644Y-63777063D01*
X154710102Y-63661798D01*
X154706396Y-63657080D01*
X154701865Y-63653148D01*
X154701862Y-63653145D01*
X154551167Y-63522379D01*
X154546637Y-63518448D01*
X154541451Y-63515448D01*
X154541447Y-63515445D01*
X154368742Y-63415533D01*
X154363546Y-63412527D01*
X154163729Y-63343139D01*
X154157794Y-63342278D01*
X154157792Y-63342278D01*
X153960336Y-63313648D01*
X153960333Y-63313648D01*
X153954396Y-63312787D01*
X153743101Y-63322567D01*
X153630466Y-63349712D01*
X153543299Y-63370719D01*
X153543297Y-63370720D01*
X153537466Y-63372125D01*
X153532008Y-63374607D01*
X153532004Y-63374608D01*
X153440990Y-63415990D01*
X153344913Y-63459674D01*
X153172389Y-63582054D01*
X153026119Y-63734850D01*
X152911380Y-63912548D01*
X152897245Y-63947621D01*
X152848448Y-64068704D01*
X152832314Y-64108737D01*
X152791772Y-64316337D01*
X152791500Y-64321899D01*
X152791500Y-65027846D01*
X146208500Y-65027846D01*
X146208500Y-64024600D01*
X146201928Y-63961256D01*
X146198238Y-63925692D01*
X146198237Y-63925688D01*
X146197526Y-63918834D01*
X146193749Y-63907511D01*
X146143868Y-63758002D01*
X146141550Y-63751054D01*
X146048478Y-63600652D01*
X146002460Y-63554714D01*
X145968381Y-63492431D01*
X145973384Y-63421611D01*
X146015881Y-63364739D01*
X146082380Y-63339870D01*
X146117676Y-63342295D01*
X146154050Y-63350027D01*
X146154059Y-63350028D01*
X146160514Y-63351400D01*
X146339486Y-63351400D01*
X146345939Y-63350028D01*
X146345943Y-63350028D01*
X146427016Y-63332795D01*
X146514546Y-63314190D01*
X146614161Y-63269839D01*
X146672015Y-63244081D01*
X146672017Y-63244080D01*
X146678045Y-63241396D01*
X146822836Y-63136199D01*
X146827258Y-63131288D01*
X146938172Y-63008105D01*
X146938173Y-63008104D01*
X146942591Y-63003197D01*
X147017574Y-62873323D01*
X147028773Y-62853926D01*
X147028774Y-62853925D01*
X147032077Y-62848203D01*
X147087382Y-62677991D01*
X147106090Y-62500000D01*
X147104728Y-62487040D01*
X147088072Y-62328573D01*
X147088072Y-62328572D01*
X147087382Y-62322009D01*
X147032077Y-62151797D01*
X146942591Y-61996803D01*
X146822836Y-61863801D01*
X146678045Y-61758604D01*
X146672017Y-61755920D01*
X146672015Y-61755919D01*
X146520577Y-61688495D01*
X146520576Y-61688495D01*
X146514546Y-61685810D01*
X146427016Y-61667205D01*
X146345943Y-61649972D01*
X146345939Y-61649972D01*
X146339486Y-61648600D01*
X146160514Y-61648600D01*
X146154061Y-61649972D01*
X146154057Y-61649972D01*
X146072984Y-61667205D01*
X145985454Y-61685810D01*
X145979424Y-61688495D01*
X145979423Y-61688495D01*
X145827985Y-61755919D01*
X145827983Y-61755920D01*
X145821955Y-61758604D01*
X145677164Y-61863801D01*
X145593634Y-61956571D01*
X145533191Y-61993809D01*
X145462207Y-61992458D01*
X145406366Y-61956571D01*
X145322836Y-61863801D01*
X145178045Y-61758604D01*
X145172017Y-61755920D01*
X145172015Y-61755919D01*
X145020577Y-61688495D01*
X145020576Y-61688495D01*
X145014546Y-61685810D01*
X144927016Y-61667205D01*
X144845943Y-61649972D01*
X144845939Y-61649972D01*
X144839486Y-61648600D01*
X144660514Y-61648600D01*
X144654061Y-61649972D01*
X144654057Y-61649972D01*
X144572984Y-61667205D01*
X144485454Y-61685810D01*
X144479424Y-61688495D01*
X144479423Y-61688495D01*
X144327985Y-61755919D01*
X144327983Y-61755920D01*
X144321955Y-61758604D01*
X144177164Y-61863801D01*
X144057409Y-61996803D01*
X143967923Y-62151797D01*
X143912618Y-62322009D01*
X143911928Y-62328572D01*
X143911928Y-62328573D01*
X143895272Y-62487040D01*
X143893910Y-62500000D01*
X143912618Y-62677991D01*
X143967923Y-62848203D01*
X143971226Y-62853925D01*
X143971227Y-62853926D01*
X143982426Y-62873323D01*
X144057409Y-63003197D01*
X144061827Y-63008104D01*
X144061828Y-63008105D01*
X144172742Y-63131288D01*
X144177164Y-63136199D01*
X144182506Y-63140080D01*
X144182508Y-63140082D01*
X144321955Y-63241396D01*
X144320491Y-63243411D01*
X144361725Y-63286661D01*
X144375157Y-63356375D01*
X144348766Y-63422285D01*
X144316033Y-63451533D01*
X144275652Y-63476522D01*
X144150695Y-63601697D01*
X144146855Y-63607927D01*
X144146854Y-63607928D01*
X144118926Y-63653236D01*
X144066154Y-63700729D01*
X143996082Y-63712153D01*
X143930958Y-63683879D01*
X143912582Y-63664955D01*
X143906396Y-63657080D01*
X143901865Y-63653148D01*
X143901862Y-63653145D01*
X143751167Y-63522379D01*
X143746637Y-63518448D01*
X143741451Y-63515448D01*
X143741447Y-63515445D01*
X143568742Y-63415533D01*
X143563546Y-63412527D01*
X143363729Y-63343139D01*
X143357794Y-63342278D01*
X143357792Y-63342278D01*
X143160336Y-63313648D01*
X143160333Y-63313648D01*
X143154396Y-63312787D01*
X142943101Y-63322567D01*
X142830466Y-63349712D01*
X142743299Y-63370719D01*
X142743297Y-63370720D01*
X142737466Y-63372125D01*
X142732008Y-63374607D01*
X142732004Y-63374608D01*
X142640990Y-63415990D01*
X142544913Y-63459674D01*
X142372389Y-63582054D01*
X142226119Y-63734850D01*
X142222870Y-63739881D01*
X142222865Y-63739888D01*
X142204967Y-63767607D01*
X142151211Y-63813984D01*
X142080915Y-63823937D01*
X142016398Y-63794304D01*
X142000030Y-63777091D01*
X141909738Y-63662143D01*
X141901501Y-63653494D01*
X141750877Y-63522788D01*
X141741153Y-63515853D01*
X141568533Y-63415990D01*
X141557669Y-63411016D01*
X141369273Y-63345593D01*
X141368284Y-63345352D01*
X141357992Y-63346820D01*
X141354000Y-63360385D01*
X141354000Y-66035402D01*
X140846000Y-66035402D01*
X140846000Y-63364598D01*
X140842027Y-63351067D01*
X140832601Y-63349712D01*
X140743463Y-63371194D01*
X140732168Y-63375083D01*
X140550618Y-63457629D01*
X140540276Y-63463576D01*
X140377603Y-63578968D01*
X140368575Y-63586761D01*
X140230658Y-63730831D01*
X140223259Y-63740200D01*
X140205582Y-63767577D01*
X140151828Y-63813955D01*
X140081532Y-63823909D01*
X140017015Y-63794278D01*
X140000644Y-63777063D01*
X139910102Y-63661798D01*
X139906396Y-63657080D01*
X139901865Y-63653148D01*
X139901862Y-63653145D01*
X139751167Y-63522379D01*
X139746637Y-63518448D01*
X139741451Y-63515448D01*
X139741447Y-63515445D01*
X139568742Y-63415533D01*
X139563546Y-63412527D01*
X139363729Y-63343139D01*
X139357794Y-63342278D01*
X139357792Y-63342278D01*
X139160336Y-63313648D01*
X139160333Y-63313648D01*
X139154396Y-63312787D01*
X138943101Y-63322567D01*
X138830466Y-63349712D01*
X138743299Y-63370719D01*
X138743297Y-63370720D01*
X138737466Y-63372125D01*
X138732008Y-63374607D01*
X138732004Y-63374608D01*
X138640990Y-63415990D01*
X138544913Y-63459674D01*
X138372389Y-63582054D01*
X138226119Y-63734850D01*
X138111380Y-63912548D01*
X138097245Y-63947621D01*
X138048448Y-64068704D01*
X138032314Y-64108737D01*
X137991772Y-64316337D01*
X137991500Y-64321899D01*
X137991500Y-65027846D01*
X128758500Y-65027846D01*
X128758500Y-57733754D01*
X128778502Y-57665633D01*
X128832158Y-57619140D01*
X128902432Y-57609036D01*
X128967012Y-57638530D01*
X129003313Y-57692053D01*
X129004129Y-57695036D01*
X129116923Y-57959476D01*
X129264561Y-58206161D01*
X129444313Y-58430528D01*
X129652851Y-58628423D01*
X129886317Y-58796186D01*
X129890112Y-58798195D01*
X129890113Y-58798196D01*
X129911869Y-58809715D01*
X130140392Y-58930712D01*
X130410373Y-59029511D01*
X130691264Y-59090755D01*
X130719841Y-59093004D01*
X130914282Y-59108307D01*
X130914291Y-59108307D01*
X130916739Y-59108500D01*
X131072271Y-59108500D01*
X131074407Y-59108354D01*
X131074418Y-59108354D01*
X131282548Y-59094165D01*
X131282554Y-59094164D01*
X131286825Y-59093873D01*
X131291020Y-59093004D01*
X131291022Y-59093004D01*
X131427583Y-59064724D01*
X131568342Y-59035574D01*
X131839343Y-58939607D01*
X132094812Y-58807750D01*
X132098313Y-58805289D01*
X132098317Y-58805287D01*
X132212418Y-58725095D01*
X132330023Y-58642441D01*
X132540622Y-58446740D01*
X132722713Y-58224268D01*
X132872927Y-57979142D01*
X132988483Y-57715898D01*
X133005387Y-57656558D01*
X133066068Y-57443534D01*
X133067244Y-57439406D01*
X133098517Y-57219669D01*
X142317001Y-57219669D01*
X142317371Y-57226490D01*
X142322895Y-57277352D01*
X142326521Y-57292604D01*
X142371676Y-57413054D01*
X142380214Y-57428649D01*
X142456715Y-57530724D01*
X142469276Y-57543285D01*
X142571351Y-57619786D01*
X142586946Y-57628324D01*
X142707394Y-57673478D01*
X142722649Y-57677105D01*
X142773514Y-57682631D01*
X142780328Y-57683000D01*
X143227885Y-57683000D01*
X143243124Y-57678525D01*
X143244329Y-57677135D01*
X143246000Y-57669452D01*
X143246000Y-56772115D01*
X143241525Y-56756876D01*
X143240135Y-56755671D01*
X143232452Y-56754000D01*
X142335116Y-56754000D01*
X142319877Y-56758475D01*
X142318672Y-56759865D01*
X142317001Y-56767548D01*
X142317001Y-57219669D01*
X133098517Y-57219669D01*
X133107146Y-57159036D01*
X133107146Y-57159034D01*
X133107751Y-57154784D01*
X133107845Y-57136951D01*
X133109235Y-56871583D01*
X133109235Y-56871576D01*
X133109257Y-56867297D01*
X133071732Y-56582266D01*
X132995871Y-56304964D01*
X132899753Y-56079619D01*
X132884763Y-56044476D01*
X132884761Y-56044472D01*
X132883077Y-56040524D01*
X132783622Y-55874347D01*
X132737643Y-55797521D01*
X132737640Y-55797517D01*
X132735439Y-55793839D01*
X132732758Y-55790492D01*
X132732752Y-55790484D01*
X132670900Y-55713280D01*
X132643918Y-55647611D01*
X132656723Y-55577779D01*
X132705250Y-55525955D01*
X132769234Y-55508500D01*
X142219285Y-55508500D01*
X142287406Y-55528502D01*
G37*
%TD.AperFunction*%
%TD*%
M02*
